<svg viewBox="0 0 900 253" fill="none" xmlns="http://www.w3.org/2000/svg">
<path d="M91.8087 1.59577V107.693L74.0246 121.221L3.49603 68.4763L91.8087 1.59577Z" fill="#00335E"/>
<path d="M106.097 0.379761L209.002 75.6203L137.561 128.669L106.097 106.477V0.379761Z" fill="#00335E"/>
<path d="M107.161 253.006V152.381L68.8565 124.565L0.760006 173.357L107.161 253.006Z" fill="#006D99"/>
<path d="M208.698 185.821L119.929 251.638V149.493L140.601 134.445L208.698 185.821Z" fill="#006D99"/>
<path d="M65.0565 121.221L0 71.9723V167.581L65.0565 121.221Z" fill="#006D99"/>
<path d="M211.738 80.7884L144.249 130.645L211.738 180.805V80.7884Z" fill="#006D99"/>
<path d="M638.058 156.108C624.146 156.108 614.108 143.973 614.108 130.463C614.108 116.896 624.908 105.396 638.471 105.396C645.371 105.396 653.899 108.685 658.395 114.18L653.586 117.813C641.675 107.391 620.587 110.692 620.587 130.463C620.587 147.584 634.205 151.415 646.713 148.139C653.514 146.241 653.323 140.689 653.125 134.362H638.333V128.599H659.065C659.065 128.599 659.054 140.793 659.065 146.149C657.134 153.575 644.125 156.108 638.058 156.108Z" fill="white"/>
<path d="M678.567 154.509V106.416H702.064C704.858 106.416 707.423 107.08 709.759 108.409C712.095 109.737 713.95 111.546 715.324 113.836C716.698 116.126 717.385 118.691 717.385 121.531C717.385 124.234 716.652 126.73 715.186 129.02C713.766 131.31 711.843 133.142 709.415 134.516C707.033 135.89 704.4 136.578 701.514 136.578H685.987V154.509H678.567ZM710.583 154.509L696.705 132.799L704.468 131.081L719.721 154.578L710.583 154.509ZM685.987 129.432H701.651C703.163 129.432 704.514 129.089 705.705 128.402C706.942 127.669 707.904 126.707 708.591 125.516C709.323 124.279 709.69 122.928 709.69 121.463C709.69 119.951 709.278 118.6 708.453 117.409C707.675 116.218 706.575 115.279 705.155 114.592C703.781 113.905 702.224 113.561 700.483 113.561H685.987V129.432Z" fill="white"/>
<path d="M758.575 155.196C754.819 155.196 751.384 154.578 748.269 153.341C745.154 152.105 742.429 150.364 740.093 148.12C737.757 145.876 735.948 143.265 734.666 140.288C733.429 137.265 732.811 133.99 732.811 130.463C732.811 126.936 733.429 123.684 734.666 120.707C735.948 117.684 737.757 115.05 740.093 112.806C742.429 110.561 745.154 108.821 748.269 107.584C751.384 106.348 754.819 105.729 758.575 105.729C762.285 105.729 765.697 106.348 768.812 107.584C771.972 108.821 774.697 110.584 776.988 112.874C779.323 115.119 781.133 117.752 782.415 120.775C783.698 123.753 784.339 126.982 784.339 130.463C784.339 133.944 783.698 137.196 782.415 140.219C781.133 143.196 779.323 145.83 776.988 148.12C774.697 150.364 771.972 152.105 768.812 153.341C765.697 154.578 762.285 155.196 758.575 155.196ZM758.575 147.982C761.231 147.982 763.659 147.547 765.857 146.677C768.102 145.807 770.025 144.593 771.629 143.036C773.278 141.433 774.537 139.578 775.407 137.471C776.323 135.318 776.781 132.982 776.781 130.463C776.781 127.944 776.323 125.631 775.407 123.524C774.537 121.371 773.278 119.516 771.629 117.959C770.025 116.355 768.102 115.119 765.857 114.249C763.659 113.378 761.231 112.943 758.575 112.943C755.918 112.943 753.468 113.378 751.223 114.249C749.025 115.119 747.101 116.355 745.452 117.959C743.803 119.516 742.544 121.371 741.673 123.524C740.803 125.631 740.368 127.944 740.368 130.463C740.368 132.982 740.803 135.318 741.673 137.471C742.544 139.578 743.803 141.433 745.452 143.036C747.101 144.593 749.025 145.807 751.223 146.677C753.468 147.547 755.918 147.982 758.575 147.982Z" fill="white"/>
<path d="M821.519 154.922C817.351 154.922 813.664 154.028 810.457 152.242C807.251 150.456 804.732 148.005 802.9 144.891C801.114 141.73 800.22 138.181 800.22 134.242V106.348H807.641V133.761C807.641 136.417 808.259 138.799 809.496 140.906C810.778 143.013 812.45 144.685 814.511 145.921C816.618 147.158 818.954 147.776 821.519 147.776C824.221 147.776 826.626 147.158 828.733 145.921C830.886 144.685 832.58 143.013 833.817 140.906C835.099 138.799 835.741 136.417 835.741 133.761V106.348H842.817V134.242C842.817 138.181 841.901 141.73 840.069 144.891C838.283 148.005 835.786 150.456 832.58 152.242C829.374 154.028 825.687 154.922 821.519 154.922Z" fill="white"/>
<path d="M862.282 154.509V106.416H885.229C887.931 106.416 890.382 107.08 892.58 108.409C894.825 109.691 896.611 111.455 897.939 113.699C899.313 115.943 900 118.44 900 121.188C900 123.982 899.29 126.524 897.87 128.814C896.496 131.104 894.641 132.936 892.305 134.31C890.015 135.684 887.473 136.371 884.679 136.371H869.702V154.509H862.282ZM869.702 129.226H884.336C885.756 129.226 887.061 128.86 888.252 128.127C889.489 127.394 890.473 126.432 891.206 125.241C891.939 124.005 892.305 122.653 892.305 121.188C892.305 119.768 891.939 118.485 891.206 117.34C890.473 116.195 889.489 115.279 888.252 114.592C887.061 113.905 885.756 113.561 884.336 113.561H869.702V129.226Z" fill="white"/>
<path fill-rule="evenodd" clip-rule="evenodd" d="M262.656 79.4186V179.891H341.241C358.265 177.915 371.185 162.563 371.641 129.123C370.425 95.9868 361.138 79.7814 341.241 79.4186H262.656ZM284.24 159.219V100.243H341.241C344.433 102.523 348.537 112.555 349.145 129.123C348.689 149.187 343.977 158.307 339.569 159.219H284.24Z" fill="white"/>
<path fill-rule="evenodd" clip-rule="evenodd" d="M390.793 79.4186V179.891H467.858C497.307 176.929 509.354 143.565 491.114 124.259C505.402 105.413 493.85 78.0524 467.858 79.4186H390.793ZM412.225 114.989V100.243H467.858C473.321 100.083 475.558 101.013 476.066 107.085C476.066 112.101 473.782 115.363 467.858 114.989H412.225ZM412.225 150.405V135.659H467.858C473.321 135.499 476.774 140.229 477.282 146.301C477.892 153.597 473.782 159.594 467.858 159.219H412.225V150.405Z" fill="white"/>
<path d="M517.714 95.9886L529.874 112.557L541.578 105.109V179.589H563.163V80.0285H541.578L517.714 95.9886Z" fill="white"/>
</svg>
