<svg viewBox="0 0 900 246" fill="none" xmlns="http://www.w3.org/2000/svg">
<path fill-rule="evenodd" clip-rule="evenodd" d="M125.691 0.379761C56.2826 0.379761 0 56.6526 0 126.07C0 181.605 36.0142 228.719 85.9552 245.339C92.2365 246.502 94.5432 242.612 94.5432 239.292C94.5432 237.935 94.5194 235.16 94.4881 231.554V231.553C94.4503 227.2 94.402 221.635 94.3729 215.891C59.4047 223.494 52.026 201.061 52.026 201.061C46.3084 186.533 38.0705 182.671 38.0705 182.671C26.6671 174.869 38.9301 175.029 38.9301 175.029C51.5517 175.916 58.1978 187.982 58.1978 187.982C69.408 207.198 87.6014 201.642 94.7741 198.431C95.9017 190.306 99.1595 184.762 102.754 181.624C74.8368 178.445 45.4884 167.667 45.4884 119.506C45.4884 105.784 50.3986 94.5711 58.4395 85.7692C57.1343 82.6028 52.8324 69.8195 59.6568 52.5063C59.6568 52.5063 70.2115 49.1281 94.231 65.3904C104.256 62.6047 115.009 61.2088 125.691 61.1613C136.373 61.2088 147.133 62.6047 157.178 65.3904C181.169 49.1281 191.709 52.5063 191.709 52.5063C198.55 69.8195 194.246 82.6028 192.941 85.7692C201 94.5711 205.876 105.783 205.876 119.506C205.876 167.782 176.473 178.412 148.485 181.523C152.993 185.424 157.01 193.073 157.01 204.799C157.01 216.039 156.945 225.813 156.901 232.296V232.296V232.302C156.88 235.516 156.864 237.92 156.864 239.292C156.864 242.637 159.126 246.557 165.498 245.322C215.412 228.683 251.381 181.586 251.381 126.07C251.381 56.6526 195.106 0.379761 125.691 0.379761ZM47.0755 179.429C46.7996 180.053 45.8157 180.241 44.9215 179.813C44.0096 179.403 43.4971 178.551 43.7928 177.924C44.064 177.281 45.0479 177.102 45.9576 177.534C46.8713 177.943 47.3921 178.802 47.0755 179.429ZM53.2581 184.946C52.6588 185.502 51.4869 185.244 50.6914 184.365C49.8691 183.489 49.7154 182.318 50.3236 181.753C50.9417 181.198 52.0783 181.457 52.9023 182.334C53.7245 183.221 53.884 184.385 53.2574 184.947L53.2581 184.946ZM57.4999 192.004C56.7292 192.539 55.4694 192.037 54.6915 190.919C53.9218 189.803 53.9218 188.462 54.7084 187.925C55.4892 187.387 56.7292 187.87 57.5179 188.98C58.2868 190.116 58.2868 191.457 57.4992 192.005L57.4999 192.004ZM64.6725 200.179C63.9836 200.938 62.5167 200.735 61.442 199.698C60.3439 198.684 60.0375 197.246 60.7286 196.486C61.4254 195.725 62.901 195.939 63.9836 196.967C65.0748 197.979 65.4079 199.428 64.6736 200.179H64.6725ZM73.9426 202.939C73.6401 203.923 72.2265 204.37 70.8029 203.952C69.3814 203.522 68.4508 202.368 68.7378 201.374C69.0335 200.383 70.4532 199.916 71.8873 200.364C73.307 200.793 74.2394 201.938 73.9437 202.939H73.9426ZM84.4945 204.109C84.5298 205.146 83.3222 206.006 81.828 206.025C80.3247 206.057 79.1092 205.218 79.0934 204.199C79.0934 203.152 80.2732 202.3 81.7757 202.275C83.27 202.246 84.4945 203.079 84.4945 204.109ZM94.8587 203.712C95.038 204.723 93.999 205.762 92.5156 206.038C91.0567 206.304 89.7061 205.681 89.5199 204.678C89.3384 203.641 90.3972 202.603 91.8533 202.334C93.3396 202.076 94.6696 202.684 94.8587 203.712ZM374.132 127.73H423.706C424.984 127.73 426.018 128.768 426.018 130.046V205.64C426.018 206.075 425.946 207.022 425.269 207.398C425.269 207.398 408.818 218.987 381.699 218.987C348.95 218.987 310.084 208.902 310.084 141.211C310.084 73.525 344.03 59.4434 377.125 59.4434C405.85 59.4434 417.22 65.8068 419.085 67.1361C419.766 67.6262 419.971 68.3483 419.971 68.9465L414.439 92.3645C414.439 93.6455 413.107 95.0804 411.663 94.6381C411.198 94.4948 410.708 94.3352 410.182 94.1649C405.519 92.6526 398.168 90.2699 383.118 90.2699C363.778 90.2699 343.175 95.9969 343.175 139.515C343.175 183.023 362.96 188.2 377.125 188.2C389.128 188.2 393.472 186.719 393.472 186.719V156.606H374.132C373.516 156.604 372.929 156.359 372.493 155.925C372.061 155.489 371.816 154.9 371.816 154.285V130.047C371.816 129.432 372.061 128.843 372.493 128.409C372.929 127.974 373.52 127.73 374.132 127.73ZM679.008 66.6657C679.124 66.9477 679.181 67.2495 679.178 67.5535V213.62C679.178 214.906 678.155 215.955 676.876 215.955H648.897C647.622 215.955 646.585 214.907 646.585 213.62L646.66 151.141H603.151V213.62C603.151 214.906 602.125 215.955 600.85 215.955H572.939C571.667 215.955 570.634 214.907 570.634 213.62V67.5535C570.63 66.9391 570.872 66.3484 571.304 65.9116C571.736 65.4747 572.323 65.2277 572.939 65.2244H600.85C601.152 65.2255 601.455 65.2867 601.736 65.4045C602.017 65.5223 602.273 65.6944 602.485 65.9108C602.697 66.1269 602.867 66.3837 602.982 66.6654C603.097 66.9473 603.155 67.2491 603.151 67.5535V121.498H646.66L646.653 67.5535C646.653 67.2488 646.711 66.947 646.826 66.665C646.941 66.383 647.11 66.1266 647.327 65.9101C647.543 65.694 647.795 65.5219 648.076 65.4045C648.36 65.2867 648.659 65.2255 648.965 65.2244H676.876C677.182 65.2255 677.485 65.2867 677.762 65.4045C678.043 65.5223 678.299 65.6944 678.511 65.9108C678.727 66.1273 678.897 66.3837 679.008 66.6657ZM458.377 68.5475C468.317 68.5475 476.377 76.6698 476.377 86.7221C476.377 96.7622 468.317 104.905 458.377 104.905C448.444 104.905 440.381 96.7622 440.381 86.7221C440.381 76.6698 448.444 68.5475 458.377 68.5475ZM474.378 115.384V182.808V212.207C474.378 214.583 473.705 215.935 470.953 215.935H445.887C443.597 215.935 441.828 215.092 441.828 212.252V115.654C441.828 114.373 442.97 113.056 444.245 113.056H472.07C472.685 113.059 473.272 113.307 473.705 113.743C474.14 114.179 474.382 114.769 474.378 115.384ZM757.556 113.276H785.254C786.533 113.276 787.567 114.323 787.567 115.613L787.577 213.663C787.577 214.946 786.537 215.995 785.269 215.995L767.384 216.073C766.491 216.073 765.666 215.438 765.346 214.809C765.029 214.178 764.327 208.86 764.327 208.86C764.327 208.86 749.6 218.953 731.33 218.953C709.059 218.953 692.87 211.846 692.87 182.798V115.611C692.87 114.323 693.911 113.276 695.179 113.276H723.288C724.559 113.276 725.593 114.323 725.593 115.611V178.07C725.593 187.85 728.244 192.382 738.23 192.382C748.217 192.382 755.255 187.232 755.255 187.232V115.611C755.255 114.323 756.288 113.276 757.556 113.276ZM833.91 187.64C833.91 187.64 840.425 192.001 850.034 192.293C863.474 192.697 867.81 187.745 867.81 162.653C867.81 138.86 858.202 135.846 848.226 136.739C840.339 137.444 833.91 141.385 833.91 141.385V187.64ZM834.526 117.016C834.526 117.016 845.226 109.996 860.96 109.996C876.702 109.996 900 115.879 900 160.903C900 205.925 885.411 218.829 859.974 218.829C838.307 218.829 826.862 207.982 826.862 207.982C826.862 207.982 826.167 213.931 825.684 214.716C825.194 215.505 824.532 215.955 823.657 215.955H804.238C802.959 215.955 801.926 214.907 801.926 213.62V67.5549C801.926 67.2502 801.983 66.9484 802.098 66.6664C802.214 66.3844 802.383 66.128 802.595 65.9116C802.812 65.6951 803.067 65.523 803.345 65.4052C803.625 65.2874 803.928 65.2259 804.234 65.2244H832.224C833.496 65.2244 834.526 66.2649 834.526 67.5549V117.016ZM533.661 113.044H554.6C554.906 113.045 555.205 113.105 555.486 113.223C555.767 113.34 556.023 113.511 556.239 113.728C556.451 113.944 556.621 114.2 556.736 114.481C556.851 114.763 556.912 115.065 556.909 115.369V137.871C556.909 139.162 555.875 140.202 554.6 140.202H533.661V181.271C533.661 187.462 537.148 192.244 547.433 192.244C549.421 192.244 551.373 192.054 552.861 191.909C553.779 191.82 554.521 191.748 554.986 191.748C556.214 191.748 557.301 192.788 557.301 194.078L557.276 213.839C557.276 214.77 556.797 215.629 555.965 215.933C554.597 216.442 546.292 218.67 539.352 218.67C524.157 218.67 501.645 215.517 501.645 183.418V140.204H487.016C485.741 140.204 484.707 139.164 484.707 137.872V119.908C484.707 119.406 484.869 118.918 485.172 118.516C485.474 118.115 485.896 117.822 486.378 117.683C487.347 117.402 501.645 113.952 501.645 113.952V85.3648C501.645 84.2998 502.239 83.8107 503.348 83.8107H531.882C533.092 83.8107 533.633 84.334 533.633 85.3806L533.661 113.044Z" fill="white"/>
</svg>
