<svg width="900" height="355" viewBox="0 0 900 355" fill="none" xmlns="http://www.w3.org/2000/svg">
  <path d="M515.708 249.425C515.522 247.036 515.275 244.805 515.264 242.572C515.218 233.64 515.338 224.705 515.218 215.774C515.106 207.402 511.533 200.685 504.945 195.541C503.5 194.413 501.985 193.337 500.717 192.028C498.036 189.262 495.366 190.177 492.612 191.772C484 196.759 475.386 201.741 466.776 206.73C457.548 212.076 448.483 217.737 439.029 222.647C434.314 225.096 432.922 228.296 433.181 233.193C433.462 238.512 433.122 243.86 433.298 249.187C433.383 251.777 430.623 254.591 427.905 254.535C420.175 254.377 412.435 254.305 404.71 254.556C401.051 254.675 398.946 251.409 398.847 248.827C398.834 248.494 398.845 248.16 398.845 247.827C398.845 206.963 398.793 166.099 398.877 125.236C398.902 113.333 406.521 103.407 418.274 100.19C419.646 99.8143 421.128 99.7013 422.559 99.7002C456.29 99.6739 490.022 99.6542 523.752 99.7059C529.153 99.7142 533.847 101.849 538.117 105.115C542.831 108.721 545.812 113.404 547.282 119.088C547.654 120.527 548.001 122.024 548.012 123.496C548.078 132.495 547.942 141.497 548.079 150.494C548.183 157.38 544.87 161.988 539.094 165.192C537.502 166.074 535.923 166.981 534.375 167.936C531.881 169.476 531.801 172.696 534.215 174.56C540.582 179.478 545.928 185.247 548.141 193.219C548.971 196.208 549.549 199.372 549.579 202.462C549.726 217.26 549.645 232.06 549.645 246.859C549.645 250.995 546.811 254.027 542.726 254.063C535.86 254.124 528.992 254.153 522.128 254.046C519.119 253.998 517.098 252.188 515.708 249.425ZM442.529 180.864C446.837 178.445 451.156 176.047 455.449 173.602C465.728 167.75 475.986 161.859 486.27 156.015C493.786 151.743 501.335 147.529 508.858 143.269C510.93 142.096 512.162 139.278 511.598 137.185C511.035 135.101 509.399 134.08 506.619 134.08C485.635 134.08 464.65 134.221 443.668 133.983C438.264 133.922 433.266 138.937 433.252 144.53C433.227 154.655 433.227 164.781 433.253 174.906C433.265 179.9 438.278 183.356 442.529 180.864Z" fill="#FF0188"/>
  <path d="M312.727 202.365C304.772 206.962 296.932 211.461 289.108 215.985C284.266 218.784 279.464 221.65 274.613 224.431C272.499 225.643 271.652 227.475 271.648 229.796C271.638 236.196 271.51 242.6 271.707 248.993C271.793 251.753 269.062 254.618 266.098 254.544C258.437 254.353 250.767 254.48 243.101 254.48C239.628 254.479 237.286 252.16 237.252 248.621C237.219 245.221 237.245 241.821 237.245 238.421C237.245 200.49 237.189 162.559 237.278 124.628C237.305 112.971 246.151 102.045 257.86 100.083C259.083 99.8787 260.329 99.6973 261.564 99.6965C294.829 99.6757 328.094 99.6985 361.358 99.662C367.037 99.6558 371.906 101.706 376.363 105.004C382.012 109.185 384.93 115.024 386.412 121.714C386.525 122.223 386.444 122.777 386.444 123.31C386.445 132.709 386.487 142.109 386.429 151.508C386.394 157.148 383.735 161.33 378.942 164.208C376.935 165.413 374.88 166.545 372.921 167.824C370.12 169.653 370.169 172.528 372.799 174.667C378.911 179.634 384.316 185.202 386.445 193.081C387.254 196.077 387.942 199.214 387.974 202.294C388.131 217.158 388.045 232.025 388.045 246.89C388.045 251.112 385.152 254.053 380.894 254.072C374.361 254.102 367.827 254.017 361.295 254.103C357.209 254.157 353.651 251.108 353.647 246.468C353.639 235.869 353.838 225.265 353.58 214.671C353.392 206.906 349.56 200.732 343.785 195.72C342.308 194.438 340.718 193.286 339.184 192.068C335.308 188.994 334.492 189.942 330.786 191.988C324.752 195.319 318.822 198.837 312.727 202.365ZM296.037 172.288C296.819 171.822 297.592 171.339 298.386 170.893C303.712 167.9 309.055 164.935 314.371 161.921C322.004 157.592 329.624 153.238 337.239 148.877C340.68 146.906 344.125 144.938 347.516 142.884C349.606 141.619 350.568 139.204 349.992 137.157C349.491 135.38 347.419 134.08 345.087 134.08C324.099 134.08 303.11 134.196 282.125 134.002C276.593 133.95 271.804 138.437 271.702 143.949C271.507 154.406 271.578 164.87 271.697 175.329C271.723 177.667 272.805 179.738 275.063 180.94C277.323 182.143 279.364 181.707 281.499 180.465C286.217 177.719 291.019 175.117 296.037 172.288Z" fill="#FF0188"/>
  <path d="M711.245 170.48C711.245 189.278 711.469 207.879 711.163 226.472C710.973 238.001 705.594 246.836 695.221 252.261C691.783 254.059 688.056 254.909 684.101 254.904C651.172 254.861 618.242 254.876 585.312 254.884C580.669 254.885 576.385 253.484 572.541 251.076C565.482 246.653 560.722 240.247 559.421 232.047C558.583 226.769 559.152 221.251 559.272 215.845C559.341 212.765 559.721 209.687 560.056 206.619C560.766 200.122 562.471 193.864 564.833 187.786C568.263 178.959 573.445 171.315 580.528 165.014C585.989 160.156 592.293 156.692 599.089 154.071C605.621 151.552 612.425 150.297 619.322 149.218C633.035 147.073 646.821 147.739 660.586 147.745C665.769 147.747 670.958 148.405 676.129 148.917C678.167 149.12 679.163 148.031 679.157 146.436C679.144 143.035 679.107 139.554 678.386 136.257C677.489 132.152 674.308 130.08 670.193 130.08C640.796 130.08 611.399 130.103 582.003 130.059C576.676 130.051 573.452 127.991 571.921 123.344C571.722 122.738 571.66 122.063 571.657 121.42C571.635 116.821 571.724 112.22 571.622 107.622C571.528 103.334 575.544 98.9136 580.265 98.9062C612.261 98.8561 644.259 98.7221 676.253 98.9908C684.281 99.0583 691.534 102.25 697.793 107.57C705.043 113.73 709.037 121.609 710.765 130.781C711.105 132.582 711.218 134.448 711.225 136.284C711.265 147.616 711.245 158.948 711.245 170.48ZM644.658 177.68C637.371 178.488 630.024 178.957 622.819 180.229C618.283 181.03 613.717 182.548 609.594 184.605C601.968 188.409 596.688 194.723 593.273 202.495C590.884 207.932 589.966 213.565 591.552 219.485C592.087 221.483 593.119 222.1 595.029 222.098C622.145 222.072 649.261 222.061 676.377 222.12C678.303 222.124 679.392 221.224 679.977 219.699C680.48 218.388 680.799 216.922 680.809 215.521C680.877 205.728 680.88 195.934 680.827 186.14C680.807 182.469 678.561 179.697 675.088 179.332C668.621 178.653 662.135 178.12 655.646 177.719C652.128 177.501 648.586 177.68 644.658 177.68Z" fill="#FF0188"/>
  <path d="M834.062 142.499C837.675 130.76 841.21 119.165 844.899 107.619C846.655 102.122 851.15 100.042 856.379 101.485C862.121 103.069 867.732 105.123 873.435 106.857C876.63 107.828 878.365 110.681 877.23 114.201C873.946 124.383 870.734 134.588 867.504 144.787C864.294 154.924 861.095 165.065 857.891 175.204C854.687 185.343 851.484 195.482 848.28 205.621C845.076 215.76 841.876 225.9 838.666 236.037C837.003 241.29 835.346 246.546 833.644 251.786C832.449 255.467 827.81 257.653 823.996 257.145C819.621 256.562 815.156 256.569 810.727 256.511C806.785 256.459 803.735 254.934 802.342 251.254C801.663 249.459 801.401 247.126 801.925 245.319C804.741 235.608 807.846 225.98 810.884 216.334C814.41 205.139 817.994 193.962 821.508 182.763C824.265 173.978 826.941 165.167 829.679 156.376C831.105 151.796 832.588 147.233 834.062 142.499Z" fill="#FF0188"/>
  <path d="M227.245 214.48C227.245 224.275 227.171 233.871 227.271 243.465C227.337 249.867 223.416 253.816 217.09 253.696C212.76 253.613 208.424 253.797 204.098 253.648C199.514 253.49 196.445 251.703 195.08 247.297C194.89 246.685 194.854 246.006 194.854 245.358C194.844 199.048 194.848 152.737 194.84 106.427C194.839 101.492 198.664 97.8817 203.193 98.0394C208.251 98.2155 213.334 98.3114 218.38 98.0139C223.31 97.7233 227.236 102.028 227.242 106.933C227.252 114.13 227.245 121.326 227.245 128.522C227.245 157.108 227.245 185.694 227.245 214.48Z" fill="#FF0188"/>
  <path d="M756.445 120.08C756.445 162.276 756.402 204.272 756.521 246.268C756.531 249.946 752.366 254.357 748.59 254.156C743.073 253.861 737.525 253.965 731.997 254.119C728.111 254.227 724.431 250.014 724.433 246.553C724.451 199.824 724.42 153.095 724.483 106.366C724.489 101.683 728.263 98.7709 732.931 98.5365C737.918 98.2861 742.929 98.3937 747.926 98.505C752.673 98.6107 756.801 102.453 756.499 107.284C756.238 111.468 756.445 115.68 756.445 120.08Z" fill="#FF0188"/>
  <path d="M815.134 182.71C814.66 188.33 812.871 193.3 809.626 197.686C805.159 203.725 799.168 207.26 791.73 208.512C785.477 209.565 779.574 208.561 774.078 205.638C767.138 201.948 762.489 196.189 760.47 188.566C758.06 179.464 759.615 171.101 765.511 163.564C770.119 157.675 776.228 154.319 783.407 153.398C791.109 152.411 798.303 154.194 804.616 159.176C810.188 163.571 813.31 169.307 814.766 176.051C815.219 178.15 815.083 180.378 815.134 182.71Z" fill="#FF0188"/>
  <path d="M177.144 195.532C174.348 199.203 170.839 201.55 166.422 202.285C156.82 203.884 147.252 198.892 145.62 188.441C144.376 180.474 147.526 174.568 154.206 170.671C159.704 167.464 167.655 167.896 173.548 172.1C180.311 176.925 181.89 187.111 178.202 193.736C177.888 194.3 177.55 194.85 177.144 195.532ZM168.837 178.668C166.061 176.269 162.806 175.65 159.522 176.997C155.19 178.774 153.227 182.62 154.093 187.41C155.134 193.175 160.06 195.763 165.018 194.565C171.874 192.908 173.826 183.902 168.837 178.668Z" fill="#FF0188"/>
  <path d="M51.2451 195.278C51.245 197.143 51.3346 198.816 51.1938 200.47C51.1473 201.016 50.5378 201.936 50.1322 201.966C44.2468 202.404 38.3596 203.226 32.5237 201.333C25.9242 199.191 22.1685 193.73 22.0099 186.941C21.9075 182.557 22.5702 178.541 25.3291 174.935C28.0425 171.388 31.7389 169.668 35.9011 168.944C39.366 168.342 42.8252 168.609 46.3255 169.574C52.1914 171.19 52.8088 175.605 48.2769 179.181C45.6511 177.171 42.682 175.886 39.2342 176.081C34.051 176.374 30.6388 179.674 30.4688 184.914C30.3092 189.836 31.9332 192.941 35.593 194.137C37.778 194.852 40.2024 194.833 42.4842 195.14C42.6922 194.642 42.8095 194.479 42.8247 194.306C42.9332 193.081 43.5184 191.493 42.9678 190.733C42.4688 190.044 40.7259 190.249 39.5292 190.076C37.2925 189.752 35.8978 187.416 36.5632 185.037C36.7899 184.227 37.1137 183.444 37.5072 182.323C41.05 182.495 44.7401 182.593 48.4151 182.883C50.6429 183.058 51.2141 184.761 51.2366 186.685C51.2693 189.483 51.2451 192.281 51.2451 195.278Z" fill="#FF0188"/>
  <path d="M79.9526 185.908C78.9864 187.232 78.0448 188.08 76.4448 188.88C78.2378 192.262 81.1018 197.27 83.4398 201.68C80.2711 201.68 77.551 201.726 74.8353 201.638C74.3314 201.621 73.621 201.178 73.3874 200.733C71.913 197.918 70.3202 194.494 68.8448 191.68C67.9315 190.738 64.1462 190.88 62.6448 190.88C62.6448 194.353 62.4903 198.111 62.4903 201.572C59.7381 201.572 57.5836 201.572 54.8448 201.572C54.8448 198.587 54.8448 195.675 54.8448 192.763C54.8448 186.636 54.9438 180.507 54.8074 174.383C54.7266 170.758 56.4648 169.447 59.7335 169.312C63.2006 169.169 66.6867 169.122 70.1495 169.31C79.3975 169.812 83.79 177.327 79.9526 185.908ZM70.4448 176.48C67.8912 175.541 65.4448 175.68 62.9347 175.791C62.9347 178.88 62.9347 181.387 62.9347 184.08C64.7985 184.08 66.5831 184.163 68.3561 184.056C70.1519 183.948 71.9992 183.58 72.6624 181.61C73.3119 179.681 72.6937 177.622 70.4448 176.48Z" fill="#FF0188"/>
  <path d="M92.0449 182.879C92.1773 185.508 92.2104 187.949 92.4689 190.365C92.7496 192.99 95.1964 195.025 98.155 194.926C103.029 194.761 104.903 193.348 105.207 188.509C105.523 183.488 105.54 178.448 105.635 173.416C105.693 170.335 106.285 169.684 109.303 169.68C113.645 169.675 113.645 169.675 113.645 174.039C113.645 179.1 113.79 184.167 113.606 189.221C113.396 195.002 110.272 200.281 104.495 201.767C98.3806 203.34 92.3754 203.157 87.4102 198.425C85.344 196.456 84.2512 193.865 84.1026 191.116C83.7846 185.228 83.7364 179.324 83.6638 173.425C83.6301 170.689 84.7594 169.657 87.5335 169.693C88.9702 169.711 90.4051 169.863 92.0449 169.967C92.0449 174.321 92.0449 178.5 92.0449 182.879Z" fill="#FF0188"/>
  <path d="M118.115 171.102C118.791 169.968 120.05 169.53 121.049 169.423C126.339 168.857 131.713 168.237 136.841 170.14C142.479 172.232 144.245 175.88 143.768 182.112C143.045 187.48 138.845 190.88 132.255 191.278C130.132 191.288 127.609 191.28 125.287 191.28C125.287 194.623 125.287 198.25 125.287 201.576C122.579 201.576 120.469 201.576 117.784 201.576C117.742 201.141 117.652 200.639 117.651 200.137C117.643 191.206 117.636 182.274 117.662 173.343C117.664 172.646 117.658 171.869 118.115 171.102ZM133.989 177.028C131.333 175.723 128.538 176.086 125.768 176.143C125.768 179.036 125.768 181.729 125.768 184.873C125.768 184.873 130.513 184.834 132.645 184.28C136.191 183.358 136.823 179.85 133.989 177.028Z" fill="#FF0188"/>
</svg>
