<svg width="900" height="354" viewBox="0 0 900 354" fill="none" xmlns="http://www.w3.org/2000/svg">
  <path d="M518.595 252.17C518.401 249.668 518.143 247.332 518.131 244.994C518.083 235.642 518.208 226.287 518.083 216.936C517.965 208.169 514.224 201.136 507.327 195.751C505.814 194.57 504.228 193.443 502.9 192.073C500.093 189.176 497.297 190.134 494.414 191.804C485.398 197.026 476.379 202.242 467.364 207.466C457.702 213.064 448.212 218.991 438.313 224.132C433.376 226.696 431.919 230.047 432.19 235.174C432.485 240.743 432.129 246.343 432.312 251.921C432.402 254.632 429.512 257.578 426.666 257.52C418.573 257.355 410.469 257.279 402.381 257.542C398.55 257.667 396.346 254.248 396.242 251.544C396.229 251.195 396.24 250.846 396.24 250.497C396.24 207.71 396.186 164.924 396.274 122.137C396.3 109.674 404.277 99.282 416.583 95.9132C418.019 95.5199 419.571 95.4016 421.069 95.4004C456.386 95.3729 491.702 95.3523 527.018 95.4064C532.673 95.4151 537.587 97.6507 542.057 101.07C546.994 104.846 550.115 109.749 551.654 115.7C552.043 117.207 552.406 118.774 552.418 120.316C552.487 129.739 552.344 139.163 552.488 148.584C552.597 155.794 549.128 160.618 543.08 163.973C541.414 164.897 539.76 165.847 538.14 166.847C535.528 168.459 535.445 171.831 537.972 173.783C544.639 178.932 550.236 184.973 552.553 193.319C553.422 196.449 554.027 199.761 554.059 202.998C554.212 218.491 554.128 233.987 554.127 249.483C554.127 253.814 551.161 256.988 546.883 257.026C539.695 257.09 532.504 257.121 525.317 257.008C522.167 256.958 520.051 255.063 518.595 252.17ZM441.978 180.383C446.488 177.85 451.01 175.339 455.505 172.779C466.267 166.651 477.007 160.484 487.774 154.364C495.643 149.892 503.547 145.479 511.424 141.019C513.593 139.791 514.883 136.841 514.292 134.649C513.703 132.466 511.99 131.398 509.08 131.398C487.109 131.398 465.137 131.545 443.17 131.296C437.512 131.232 432.279 136.484 432.265 142.339C432.238 152.941 432.238 163.543 432.265 174.145C432.278 179.374 437.526 182.992 441.978 180.383Z" fill="#FFCF09"/>
  <path d="M306.075 202.895C297.746 207.709 289.538 212.419 281.346 217.156C276.277 220.087 271.249 223.088 266.169 226C263.957 227.269 263.069 229.187 263.066 231.617C263.055 238.318 262.921 245.023 263.128 251.718C263.217 254.608 260.358 257.607 257.255 257.53C249.233 257.329 241.203 257.463 233.177 257.462C229.541 257.462 227.089 255.034 227.053 251.328C227.018 247.768 227.045 244.208 227.045 240.648C227.045 200.933 226.987 161.217 227.08 121.501C227.109 109.295 236.371 97.8551 248.63 95.8018C249.91 95.5873 251.214 95.3974 252.508 95.3966C287.336 95.3748 322.164 95.3986 356.992 95.3604C362.937 95.3539 368.036 97.5001 372.702 100.953C378.616 105.331 381.672 111.446 383.223 118.449C383.341 118.983 383.257 119.563 383.257 120.121C383.258 129.963 383.301 139.805 383.241 149.646C383.205 155.551 380.421 159.93 375.402 162.943C373.3 164.205 371.149 165.391 369.098 166.73C366.165 168.644 366.217 171.655 368.971 173.894C375.369 179.096 381.029 184.925 383.258 193.174C384.105 196.311 384.825 199.596 384.859 202.821C385.023 218.384 384.933 233.951 384.933 249.516C384.933 253.936 381.904 257.015 377.446 257.036C370.606 257.067 363.765 256.977 356.926 257.068C352.648 257.125 348.922 253.932 348.919 249.074C348.91 237.975 349.119 226.873 348.849 215.781C348.651 207.65 344.639 201.186 338.593 195.938C337.046 194.595 335.381 193.389 333.775 192.115C329.718 188.895 328.863 189.888 324.983 192.03C318.666 195.518 312.457 199.201 306.075 202.895ZM288.601 171.404C289.42 170.916 290.229 170.41 291.06 169.943C296.637 166.809 302.231 163.705 307.796 160.549C315.789 156.016 323.766 151.457 331.739 146.891C335.342 144.827 338.948 142.767 342.499 140.616C344.687 139.292 345.695 136.763 345.091 134.62C344.567 132.759 342.398 131.398 339.956 131.398C317.982 131.398 296.006 131.519 274.034 131.316C268.243 131.262 263.229 135.96 263.122 141.731C262.918 152.68 262.993 163.636 263.116 174.587C263.144 177.035 264.277 179.204 266.641 180.463C269.007 181.722 271.145 181.265 273.379 179.965C278.319 177.09 283.346 174.365 288.601 171.404Z" fill="#FFCF09"/>
  <path d="M725.007 169.51C725.007 189.193 725.242 208.669 724.921 228.137C724.722 240.208 719.09 249.459 708.23 255.139C704.63 257.022 700.728 257.912 696.587 257.907C662.11 257.862 627.633 257.878 593.156 257.885C588.295 257.886 583.809 256.42 579.784 253.898C572.393 249.267 567.41 242.56 566.047 233.974C565.17 228.448 565.766 222.67 565.892 217.01C565.964 213.785 566.361 210.563 566.712 207.35C567.456 200.547 569.241 193.995 571.714 187.63C575.305 178.389 580.73 170.385 588.147 163.787C593.864 158.701 600.465 155.074 607.58 152.33C614.419 149.692 621.543 148.377 628.764 147.248C643.121 145.002 657.556 145.7 671.967 145.706C677.393 145.708 682.826 146.397 688.24 146.933C690.374 147.145 691.417 146.005 691.411 144.336C691.397 140.775 691.359 137.129 690.604 133.677C689.664 129.379 686.334 127.21 682.025 127.21C651.247 127.21 620.469 127.234 589.691 127.187C584.113 127.179 580.738 125.022 579.135 120.156C578.926 119.522 578.862 118.816 578.858 118.142C578.836 113.327 578.928 108.509 578.822 103.695C578.724 99.2053 582.928 94.5769 587.871 94.5691C621.371 94.5166 654.872 94.3763 688.37 94.6577C696.776 94.7283 704.369 98.0706 710.923 103.64C718.513 110.091 722.696 118.34 724.505 127.944C724.86 129.829 724.979 131.783 724.986 133.706C725.028 145.571 725.007 157.436 725.007 169.51ZM655.291 177.049C647.661 177.896 639.969 178.386 632.425 179.718C627.676 180.557 622.896 182.146 618.579 184.3C610.594 188.283 605.066 194.894 601.49 203.032C598.989 208.725 598.028 214.623 599.688 220.821C600.248 222.913 601.33 223.559 603.329 223.557C631.719 223.529 660.11 223.518 688.5 223.58C690.517 223.584 691.657 222.641 692.27 221.045C692.796 219.673 693.13 218.137 693.14 216.671C693.212 206.417 693.215 196.162 693.159 185.908C693.138 182.064 690.787 179.161 687.151 178.779C680.38 178.068 673.589 177.51 666.795 177.09C663.111 176.862 659.403 177.049 655.291 177.049Z" fill="#FFCF09"/>
  <path d="M854.438 139.792C858.221 127.501 861.922 115.36 865.785 103.27C867.623 97.5154 872.329 95.3373 877.804 96.848C883.816 98.5071 889.69 100.658 895.661 102.473C899.007 103.489 900.824 106.477 899.635 110.163C896.196 120.823 892.834 131.509 889.452 142.188C886.091 152.801 882.742 163.419 879.387 174.035C876.033 184.651 872.678 195.267 869.324 205.883C865.969 216.499 862.619 227.117 859.259 237.731C857.518 243.231 855.782 248.734 854 254.221C852.749 258.075 847.893 260.364 843.899 259.832C839.319 259.222 834.643 259.229 830.006 259.168C825.879 259.113 822.686 257.517 821.227 253.663C820.516 251.784 820.242 249.341 820.791 247.449C823.739 237.281 826.989 227.201 830.17 217.101C833.862 205.379 837.614 193.676 841.294 181.951C844.18 172.752 846.982 163.527 849.849 154.322C851.342 149.526 852.895 144.749 854.438 139.792Z" fill="#FFCF09"/>
  <path d="M215.733 215.58C215.733 225.837 215.655 235.884 215.76 245.93C215.829 252.633 211.724 256.767 205.1 256.641C200.567 256.555 196.027 256.747 191.497 256.591C186.699 256.426 183.486 254.555 182.056 249.941C181.857 249.301 181.819 248.59 181.819 247.911C181.809 199.422 181.813 150.933 181.805 102.444C181.804 97.2761 185.808 93.4964 190.551 93.6615C195.846 93.8459 201.168 93.9463 206.452 93.6348C211.613 93.3305 215.723 97.8379 215.73 102.974C215.74 110.509 215.733 118.044 215.733 125.579C215.733 155.51 215.733 185.44 215.733 215.58Z" fill="#FFCF09"/>
  <path d="M772.752 116.739C772.752 160.92 772.707 204.893 772.832 248.864C772.842 252.715 768.482 257.334 764.528 257.123C758.752 256.815 752.943 256.924 747.155 257.084C743.086 257.198 739.234 252.786 739.235 249.163C739.255 200.235 739.223 151.308 739.288 102.38C739.295 97.4761 743.246 94.4275 748.133 94.182C753.354 93.9198 758.601 94.0325 763.833 94.149C768.802 94.2597 773.125 98.2823 772.809 103.342C772.536 107.722 772.752 112.132 772.752 116.739Z" fill="#FFCF09"/>
  <path d="M834.2 182.316C833.703 188.2 831.83 193.404 828.433 197.996C823.756 204.32 817.483 208.021 809.695 209.332C803.149 210.434 796.969 209.383 791.214 206.323C783.948 202.459 779.08 196.429 776.967 188.447C774.443 178.917 776.072 170.161 782.245 162.269C787.069 156.103 793.465 152.589 800.981 151.625C809.045 150.591 816.577 152.459 823.188 157.674C829.021 162.276 832.289 168.282 833.814 175.343C834.289 177.542 834.146 179.874 834.2 182.316Z" fill="#FFCF09"/>
  <path d="M162.856 195.741C159.93 199.584 156.255 202.042 151.631 202.812C142.42 204.486 132.403 199.681 129.852 188.316C128.549 181.238 131.846 173.791 138.841 169.71C144.597 166.353 152.922 166.805 159.091 171.206C166.173 176.259 167.826 186.924 163.965 193.861C163.636 194.451 163.282 195.027 162.856 195.741ZM154.58 177.663C151.674 175.15 147.845 174.503 144.407 175.913C139.871 177.774 137.816 182.221 138.722 187.237C139.812 193.273 144.97 195.562 150.161 194.728C157.76 192.994 159.804 183.143 154.58 177.663Z" fill="#FFCF09"/>
  <path d="M30.6196 195.475C30.6194 197.428 30.7133 199.18 30.5659 200.911C30.5172 201.483 29.879 202.446 29.4543 202.478C23.2924 202.936 17.1285 203.798 11.0183 201.815C4.10863 199.572 0.176441 193.854 0.0103811 186.746C-0.0968559 182.156 0.597011 177.951 3.48555 174.175C6.32652 170.461 10.1966 168.661 14.5544 167.903C18.1821 167.272 21.804 167.552 25.4688 168.562C31.6103 170.254 32.2568 174.876 27.5119 178.621C24.7627 176.516 21.654 175.171 18.0442 175.375C12.6174 175.681 9.04481 179.137 8.86682 184.624C8.69969 189.777 10.4001 193.029 14.2319 194.281C16.5196 195.029 19.0579 195.01 21.4469 195.33C21.6647 194.809 21.7875 194.638 21.8035 194.458C21.917 193.175 22.5297 191.512 21.9533 190.716C21.4308 189.995 19.606 190.21 18.353 190.028C16.0113 189.689 14.5509 187.244 15.2476 184.753C15.485 183.904 15.8241 183.084 16.236 181.911C19.9453 182.091 23.8088 182.194 27.6565 182.497C29.9891 182.68 30.5871 184.463 30.6107 186.478C30.645 189.407 30.6195 192.337 30.6196 195.475Z" fill="#FFCF09"/>
  <path d="M60.6765 185.665C59.6649 187.05 58.6791 187.938 57.0039 188.776C58.8811 192.317 61.8797 197.561 64.3276 202.178C61.01 202.178 58.162 202.227 55.3187 202.134C54.7911 202.117 54.0473 201.653 53.8027 201.186C52.259 198.239 50.5914 194.654 49.0467 191.708C48.0904 190.721 44.1272 190.87 42.5553 190.87C42.5553 194.506 42.3935 198.442 42.3935 202.066C39.5119 202.066 37.2562 202.066 34.3887 202.066C34.3887 198.94 34.3887 195.891 34.3887 192.841C34.3887 186.426 34.4923 180.009 34.3495 173.597C34.265 169.802 36.0848 168.429 39.5071 168.288C43.1371 168.138 46.7871 168.089 50.4126 168.285C60.0953 168.811 64.6943 176.68 60.6765 185.665ZM50.7219 175.793C48.0482 174.809 45.4869 174.955 42.8588 175.072C42.8588 178.306 42.8588 180.931 42.8588 183.75C44.8102 183.75 46.6786 183.838 48.535 183.725C50.4151 183.612 52.3493 183.226 53.0437 181.164C53.7237 179.144 53.0764 176.988 50.7219 175.793Z" fill="#FFCF09"/>
  <path d="M73.3373 182.493C73.4759 185.246 73.5106 187.801 73.7811 190.331C74.0751 193.08 76.6369 195.211 79.7346 195.106C84.8372 194.934 86.7993 193.454 87.1178 188.387C87.4483 183.131 87.4667 177.853 87.5657 172.584C87.6264 169.359 88.2464 168.677 91.4067 168.673C95.9524 168.667 95.9524 168.667 95.9524 173.237C95.9524 178.536 96.1048 183.841 95.9122 189.133C95.6919 195.186 92.4214 200.714 86.3724 202.27C79.9708 203.917 73.6833 203.725 68.4847 198.77C66.3214 196.708 65.1773 193.996 65.0217 191.117C64.6888 184.952 64.6383 178.77 64.5623 172.594C64.527 169.729 65.7094 168.649 68.6139 168.686C70.1181 168.705 71.6205 168.864 73.3373 168.973C73.3373 173.532 73.3373 177.908 73.3373 182.493Z" fill="#FFCF09"/>
  <path d="M100.632 170.162C101.34 168.974 102.658 168.516 103.705 168.403C109.243 167.811 114.869 167.162 120.239 169.155C126.141 171.345 127.99 175.164 127.491 181.69C126.734 187.31 122.336 190.87 115.437 191.287C113.214 191.297 110.573 191.289 108.141 191.289C108.141 194.789 108.141 198.587 108.141 202.069C105.306 202.069 103.097 202.069 100.285 202.069C100.242 201.614 100.147 201.089 100.147 200.563C100.138 191.211 100.131 181.86 100.158 172.508C100.161 171.778 100.153 170.965 100.632 170.162ZM117.673 175.945C114.437 174.772 111.545 175.38 108.645 175.44C108.645 178.469 108.645 181.289 108.645 184.581C108.645 184.581 113.613 184.54 115.845 183.96C120.239 183.403 121.174 177.719 117.673 175.945Z" fill="#FFCF09"/>
</svg>
