<svg viewBox="0 0 1543 482" fill="none" xmlns="http://www.w3.org/2000/svg">
  <path d="M396.516 43.3317C396.936 43.211 395.181 43.8412 391.684 45.0839C391.684 45.0839 194.23 122.863 130.694 147.352C125.786 149.246 124.225 152.414 123.786 154.031C122.818 157.629 125.843 159.815 127.936 160.568C129.486 161.125 186.798 168.696 212.8 176.462C269.905 193.518 314.181 247.95 311.428 314.895C311.234 319.79 310.776 324.622 310.113 329.372C301.019 397.772 245.126 448.885 179.808 445.77C110.281 442.448 56.3951 378.937 59.4782 303.879C61.3117 259.232 82.8768 220.584 114.684 197.27C115.083 196.984 115.454 196.669 115.849 196.375L116.605 195.591C94.5161 194.696 60.9488 189.923 58.2177 189.755C51.5877 189.369 43.1706 186.66 40.6851 175.976C38.3059 165.778 45.7844 159.467 50.4582 156.599L391.122 23.9164C397.037 22.2702 407.576 19.0133 408.995 28.69C410.209 36.9856 402.363 40.6813 396.516 43.3317ZM354.485 97.2928L237.568 142.799C234.057 141.247 230.488 139.857 226.843 138.715L226.188 138.515C219.211 136.385 212.224 135.157 205.299 134.704C263.035 111.764 349.17 77.5919 350.608 77.3622C355.301 75.6188 363.701 72.2205 364.626 82.1682C365.447 90.6758 359.156 94.5188 354.485 97.2928ZM375.12 4.71906L27.4606 132.781C-2.65259 145.756 -1.36206 171.108 1.22991 182.569C4.9296 198.978 21.5318 211.025 45.6426 214.789C47.326 215.054 49.3095 215.295 51.6259 215.516C32.2189 247.647 23.2971 285.895 26.3992 324.257C33.3593 409.872 98.5432 477.315 178.032 481.105H178.037C185.008 481.437 192.094 481.267 199.098 480.604C241.445 476.605 279.853 454.984 307.237 419.743C334.63 384.496 347.675 339.909 343.961 294.211C338.917 232.098 302.635 177.707 250.299 152.293C255.794 149.999 363.955 105.456 363.955 105.456C372.047 101.551 381.752 92.8343 380.055 74.9975C379.87 73.0362 394.278 67.9299 409.623 59.5254C440.808 42.4542 432.312 -17.0227 375.12 4.71906Z" fill="#7FBC0B"/>
  <path d="M286.806 249.403C285.95 247.525 283.843 246.765 282.097 247.687C280.359 248.617 279.644 250.894 280.507 252.772C289.098 271.534 293.237 292.595 292.473 313.657C291.136 350.302 275.123 384.495 248.519 407.461C247.01 408.766 246.765 411.157 247.973 412.798C248.636 413.705 249.608 414.176 250.582 414.22C251.397 414.246 252.235 413.984 252.914 413.395C281.101 389.021 298.086 352.805 299.493 313.945C300.304 291.632 295.914 269.319 286.806 249.403Z" fill="#7FBC0B"/>
  <path d="M193.787 303.046C193.626 306.259 192.515 308.989 190.466 311.25C190.182 311.483 189.929 311.742 189.71 311.992L188.846 312.708L188.608 312.835L188.215 313.094L187.64 313.435L174.601 288.342L174.658 288.316L175.419 287.848C175.542 287.774 175.629 287.748 175.703 287.733C175.768 287.712 175.823 287.706 175.867 287.68C175.902 287.653 175.938 287.633 175.984 287.606C176.502 287.347 177.018 287.162 177.534 287.047C177.681 286.952 177.847 286.896 178.022 286.838C180.89 286.257 183.621 286.699 186.224 288.177C188.717 289.718 190.611 291.817 191.94 294.435C193.315 297.109 193.939 299.977 193.787 303.046ZM167.982 325.315L154.964 300.225C158.514 298.016 162.077 295.843 165.638 293.658L178.74 318.904C175.19 321.095 171.61 323.233 167.982 325.315ZM192.008 266.854C184.761 263.738 177.787 263.323 171.07 265.602C169.455 266.144 167.911 266.854 166.437 267.734L165.403 268.265L164.585 268.759L164.481 268.833L153.349 247.4C150.891 248.876 150.132 252.728 151.049 258.921C151.77 263.718 153.36 268.845 155.769 274.266C152.13 276.448 148.479 278.621 144.826 280.706C140.018 283.622 136.993 288.228 135.773 294.527C134.559 300.82 135.5 306.974 138.605 312.961L181.304 395.225C186.125 392.31 189.148 387.71 190.368 381.405C191.582 375.106 190.646 368.969 187.536 362.97L178.12 344.833C181.67 342.627 185.23 340.442 188.794 338.278L209.794 378.737C212.261 377.235 213.027 373.407 212.11 367.196C211.18 361.006 208.828 354.286 205.066 347.036L197.77 332.951L198.395 332.565L198.736 332.362L199.32 331.997L201.448 330.633L203.475 328.919C208.839 324.031 212.252 317.47 213.685 309.209C214.271 305.116 214.203 300.884 213.54 296.538C212.823 292.2 211.453 288.069 209.469 284.125C205.178 276.059 199.361 270.291 192.008 266.854Z" fill="#7FBC0B"/>
  <path d="M175.365 418.493C121.075 416.193 78.6433 366.67 80.7796 308.074C82.9105 249.492 128.799 203.703 183.094 205.994C237.364 208.297 279.794 257.817 277.668 316.416C275.537 374.995 229.64 420.796 175.365 418.493ZM183.31 199.995C125.956 197.566 77.4701 245.935 75.2274 307.838C72.9737 369.747 117.804 422.071 175.135 424.486C232.497 426.924 280.978 378.55 283.229 316.646C285.479 254.749 240.649 202.428 183.31 199.995Z" fill="#7FBC0B"/>
  <path d="M247.397 270.67C233.087 244.14 205.923 226.241 178.208 225.072C152.125 223.956 127.902 242.924 120.612 250.392C119.753 251.267 119.725 252.718 120.533 253.634C121.332 254.553 123.357 254.185 124.143 253.145L124.249 253.254C139.52 238.277 157.694 230.782 176.803 231.589C202.325 232.679 226.842 248.493 240.781 272.858C253.651 295.336 255.438 321.036 246.003 345.566C245.605 346.503 245.242 347.442 244.814 348.393L244.942 348.467C244.227 349.58 244.448 351.777 245.477 352.36C246.522 352.949 247.807 352.528 248.355 351.403C249.496 349.076 250.977 345.439 252.45 340.993C260.974 317.346 259.29 292.703 247.397 270.67Z" fill="#7FBC0B"/>
  <path d="M529.403 290.893C526.991 293.458 523.998 294.801 520.408 294.948L458.986 295.054C450.793 295.054 443.816 291.936 438.06 285.672C432.305 279.414 429.416 271.923 429.416 263.123V170.514C429.416 161.441 432.374 153.708 438.313 147.303C444.231 140.904 451.401 137.712 459.816 137.712V267.508H520.408C523.998 267.6 526.991 268.916 529.403 271.472C531.812 274.028 533.048 277.279 533.119 281.24C533.048 285.112 531.812 288.316 529.403 290.893Z" fill="white"/>
  <path d="M637.758 267.507C641.357 267.657 644.355 269.017 646.762 271.565C649.163 274.13 650.401 277.343 650.467 281.239C650.401 285.167 649.163 288.433 646.762 290.992C644.355 293.56 641.357 294.92 637.758 295.053L584.091 294.947V295.053C575.674 295.053 568.517 291.84 562.588 285.397C556.657 278.956 553.691 271.241 553.691 262.238V169.417C553.691 160.633 556.504 153.238 562.133 147.19C567.756 141.165 574.738 138.055 583.076 137.825H637.758C641.357 137.884 644.355 139.221 646.762 141.821C649.163 144.433 650.401 147.658 650.467 151.519C650.401 155.406 649.163 158.651 646.762 161.242C644.355 163.852 641.357 165.168 637.758 165.242H584.091V202.664H619.049C622.648 202.741 625.636 204.081 628.004 206.678C630.389 209.27 631.644 212.503 631.769 216.39C631.644 220.345 630.389 223.59 628.004 226.141C625.636 228.709 622.618 230.022 618.959 230.099H584.091V267.507H637.758Z" fill="white"/>
  <path d="M790.615 151.52C790.465 155.407 789.21 158.62 786.842 161.185C784.46 163.75 781.453 165.104 777.786 165.243L745.987 165.134V294.948C737.573 294.948 730.403 291.744 724.474 285.356C718.545 278.946 715.582 271.209 715.582 262.136V165.134H683.75C680.162 164.989 677.175 163.649 674.765 161.087C672.356 158.525 671.118 155.271 671.049 151.308C671.118 147.444 672.356 144.216 674.765 141.669C677.175 139.101 680.162 137.741 683.75 137.596L738.653 137.711H745.987H777.893C781.492 137.859 784.46 139.201 786.842 141.766C789.21 144.32 790.465 147.579 790.615 151.52Z" fill="white"/>
  <path d="M987.531 295.055C979.127 295.055 971.941 291.839 965.988 285.399C960.01 278.955 957.03 271.207 957.03 262.134V219.331L934.966 278.59C930.559 289.05 923.081 294.545 912.5 295.055C901.851 294.545 894.365 289.05 890.029 278.59L867.872 219.331V262.134C867.872 271.207 864.898 278.955 858.972 285.399C853.038 291.839 845.881 295.055 837.475 295.055V170.515C837.475 161.506 840.449 153.803 846.375 147.368C852.307 140.925 859.466 137.712 867.872 137.712L912.5 254.348L946.245 167.34C955.734 147.577 969.504 137.712 987.531 137.712V295.055Z" fill="white"/>
  <path d="M1092.17 267.507C1095.78 267.657 1098.77 269.017 1101.19 271.565C1103.6 274.13 1104.81 277.343 1104.89 281.239C1104.81 285.167 1103.6 288.433 1101.19 290.992C1098.77 293.56 1095.78 294.92 1092.17 295.053L1038.51 294.947V295.053C1030.1 295.053 1022.94 291.84 1017.01 285.397C1011.08 278.956 1008.12 271.241 1008.12 262.238V169.417C1008.12 160.633 1010.92 153.238 1016.55 147.19C1022.19 141.165 1029.15 138.055 1037.49 137.825H1092.17C1095.78 137.884 1098.77 139.221 1101.19 141.821C1103.6 144.433 1104.81 147.658 1104.89 151.519C1104.81 155.406 1103.6 158.651 1101.19 161.242C1098.77 163.852 1095.78 165.168 1092.17 165.242H1038.51V202.664H1073.48C1077.08 202.741 1080.05 204.081 1082.43 206.678C1084.8 209.27 1086.05 212.503 1086.19 216.39C1086.05 220.345 1084.8 223.59 1082.43 226.141C1080.05 228.709 1077.04 230.022 1073.38 230.099H1038.51V267.507H1092.17Z" fill="white"/>
  <path d="M1261.83 197.513C1264.13 194.064 1265.29 190.339 1265.29 186.316C1265.35 182.364 1264.27 178.621 1262.04 175.129C1259.59 171.607 1256.28 169.201 1252.08 167.873C1251.79 167.811 1251.52 167.764 1251.25 167.764C1250.51 167.549 1249.69 167.405 1248.81 167.34H1248.6C1248.55 167.34 1248.47 167.322 1248.37 167.275C1248.26 167.249 1248.11 167.228 1247.9 167.228H1246.58H1243.84L1232.97 167.107C1226.05 167.107 1219.14 167.143 1212.23 167.228V205.193C1219 205.343 1225.77 205.372 1232.55 205.305H1243.43L1246.18 205.193H1247.49H1248.2H1248.6L1250.23 204.969C1250.72 204.819 1251.22 204.713 1251.77 204.645C1256.03 203.473 1259.39 201.096 1261.83 197.513ZM1284.39 154.615C1291.78 163.668 1295.55 174.357 1295.68 186.646C1295.61 192.574 1294.58 198.287 1292.55 203.753C1290.43 209.248 1287.58 214.154 1283.99 218.468C1276.41 226.949 1267.34 232.141 1256.85 234.043L1252.98 234.609L1249.23 234.697H1248.2H1247.6H1246.18H1243.43L1232.55 234.609C1225.77 234.609 1219 234.629 1212.23 234.697V262.134C1212.23 271.207 1209.24 278.943 1203.27 285.357C1197.29 291.744 1190.12 294.948 1181.72 294.948V170.514C1181.72 161.438 1184.7 153.708 1190.67 147.303C1196.63 140.904 1203.81 137.712 1212.23 137.712C1219.14 137.859 1226.07 137.915 1233.06 137.915L1243.93 137.824L1246.68 137.712H1248.11L1249.83 137.824C1252.41 137.824 1254.95 138.074 1257.47 138.584C1267.96 140.621 1276.94 145.978 1284.39 154.615Z" fill="#7FBC0B"/>
  <path d="M1342.79 233.168H1381.13L1362.02 181.707L1342.79 233.168ZM1400.34 284.726L1391.39 260.702L1332.52 260.611L1323.58 284.726C1320.4 291.617 1315.69 295.054 1309.46 295.054C1304.09 295.054 1299.94 292.718 1297.01 288.024C1294.06 283.36 1293.48 278.15 1295.32 272.449L1339.45 154.149C1344.6 143.192 1352.13 137.711 1362.02 137.711C1371.9 137.711 1379.4 143.192 1384.47 154.149L1428.61 272.449C1430.42 278.15 1429.88 283.36 1426.91 288.024C1423.98 292.718 1419.81 295.054 1414.47 295.054C1408.24 295.054 1403.53 291.617 1400.34 284.726Z" fill="#7FBC0B"/>
  <path d="M1540.58 146.416C1543.29 152.232 1542.92 158.037 1539.45 163.817L1500.31 221.218V295.054C1491.91 295.054 1484.74 291.838 1478.8 285.398C1472.88 278.954 1469.91 271.206 1469.91 262.133V221.218L1430.78 163.817C1427.25 158.037 1426.84 152.232 1429.55 146.416C1432.27 140.612 1436.73 137.711 1442.98 137.711C1447.79 137.711 1451.88 139.935 1455.28 144.414L1485.06 188.18L1514.95 144.414C1518.28 139.935 1522.34 137.711 1527.15 137.711C1533.38 137.711 1537.87 140.612 1540.58 146.416Z" fill="#7FBC0B"/>
  <path d="M513.272 409.371C504.32 409.371 499.117 403.755 498.606 397.038H501.594C502.102 401.01 504.893 406.703 513.272 406.703C519.994 406.703 524.122 402.312 524.122 396.832C524.122 381.286 499.242 391.015 499.242 372.725C499.242 365.872 504.576 360.327 512.89 360.327C521.268 360.327 525.836 365.599 526.725 371.217H523.675C523.042 367.86 519.806 362.998 512.827 362.998C506.985 362.931 502.102 366.556 502.102 372.654C502.102 388.206 526.976 378.677 526.976 396.764C526.976 402.93 522.409 409.371 513.272 409.371Z" fill="#A2C142"/>
  <path d="M558.352 406.702C565.591 406.702 572.565 401.558 572.565 390.261C572.565 379.027 565.651 373.885 558.415 373.885C551.18 373.885 544.323 379.027 544.323 390.261C544.323 401.558 551.117 406.702 558.352 406.702ZM558.352 409.438C548.702 409.438 541.409 402.176 541.409 390.261C541.409 378.414 548.83 371.217 558.478 371.217C568.126 371.217 575.424 378.414 575.424 390.261C575.424 402.176 567.997 409.438 558.352 409.438Z" fill="#A2C142"/>
  <path d="M591.761 358.198H594.615V408.887H591.761V358.198Z" fill="#A2C142"/>
  <path d="M641.841 408.887H638.984V400.807C637.017 406.623 632.008 409.506 626.357 409.506C618.677 409.506 612.394 404.57 612.394 393.342V371.697H615.19V393.13C615.19 402.244 619.823 406.841 626.734 406.841C633.91 406.841 638.984 401.97 638.984 391.628V371.697H641.841V408.887Z" fill="#A2C142"/>
  <path d="M674.806 371.217C683.564 371.217 689.28 376.356 690.609 384.092H687.626C686.483 377.722 681.534 373.82 674.806 373.82C667.445 373.82 661.038 379.094 661.038 390.261C661.038 401.493 667.445 406.77 674.806 406.77C681.534 406.77 686.483 402.933 687.626 396.49H690.609C689.343 403.819 684.009 409.029 675.758 409.438V414.226C680.901 413.955 683.818 416.155 683.818 420.122C683.818 423.885 681.22 426.421 676.713 426.421H671.567V424.162H676.205C679.943 424.162 681.283 422.657 681.283 420.122C681.283 417.931 679.943 416.358 676.205 416.358H673.54V409.37C664.528 408.826 658.116 401.625 658.116 390.261C658.116 378.411 665.098 371.217 674.806 371.217Z" fill="#A2C142"/>
  <path d="M719.829 361.833C723.062 361.833 723.955 365.19 726.809 365.19C728.205 365.19 729.346 364.163 729.6 362.036H731.507C731.253 365.326 729.283 367.455 726.746 367.455C723.384 367.455 722.364 364.095 719.767 364.095C718.304 364.095 717.289 365.12 717.038 367.311H715.134C715.576 363.889 717.289 361.833 719.829 361.833ZM722.113 406.701C729.346 406.701 736.331 401.556 736.331 390.26C736.331 379.025 729.409 373.887 722.176 373.887C714.94 373.887 708.089 379.025 708.089 390.26C708.089 401.556 714.877 406.701 722.113 406.701ZM722.113 409.437C712.468 409.437 705.167 402.175 705.167 390.26C705.167 378.413 712.596 371.218 722.238 371.218C731.889 371.218 739.182 378.413 739.182 390.26C739.182 402.175 731.763 409.437 722.113 409.437Z" fill="#A2C142"/>
  <path d="M756.662 388.955H783.698C784.143 378.616 777.412 373.819 770.432 373.819C763.39 373.819 756.979 378.678 756.662 388.955ZM770.498 409.437C760.85 409.437 753.746 402.175 753.746 390.26C753.746 378.413 760.722 371.218 770.498 371.218C780.841 371.218 786.557 379.164 786.557 387.795C786.557 389.438 786.557 390.26 786.426 391.491H756.662C756.916 401.833 763.39 406.771 770.498 406.771C777.286 406.771 782.175 402.864 783.319 396.694H786.301C784.967 404.027 779.321 409.437 770.498 409.437Z" fill="#A2C142"/>
  <path d="M814.313 409.437C806.761 409.437 801.429 405.738 800.796 398.892H803.716C804.16 403.615 807.778 406.772 814.313 406.772C819.71 406.772 822.88 403.341 822.88 399.301C822.88 389.026 801.751 394.984 801.751 380.878C801.751 375.663 806.444 371.216 813.172 371.216C820.345 371.216 825.104 375.256 825.486 382.177H822.623C822.372 377.518 819.205 373.819 813.11 373.819C808.098 373.819 804.605 377.038 804.605 380.878C804.605 392.378 825.548 386.288 825.674 399.301C825.674 405.12 820.915 409.437 814.313 409.437Z" fill="#A2C142"/>
  <path d="M868.675 388.955H895.711C896.153 378.616 889.422 373.819 882.448 373.819C875.406 373.819 868.992 378.678 868.675 388.955ZM882.508 409.437C872.861 409.437 865.756 402.175 865.756 390.26C865.756 378.413 872.732 371.218 882.508 371.218C892.851 371.218 898.565 379.164 898.565 387.795C898.565 389.438 898.565 390.26 898.439 391.491H868.675C868.929 401.833 875.406 406.771 882.508 406.771C889.302 406.771 894.191 402.864 895.332 396.694H898.311C896.977 404.027 891.332 409.437 882.508 409.437Z" fill="#A2C142"/>
  <path d="M966.181 387.31C966.181 378.27 961.801 373.614 955.136 373.614C948.351 373.614 943.339 378.676 943.339 389.089V408.887H940.545V387.31C940.545 378.27 936.163 373.614 929.497 373.614C922.644 373.614 917.694 378.676 917.694 389.089V408.887H914.843V371.697H917.694V379.778C919.73 373.752 924.488 370.94 929.948 370.94C935.909 370.94 940.989 374.232 942.7 381.359C944.411 374.232 949.619 370.94 955.584 370.94C962.942 370.94 968.974 375.94 968.974 387.107V408.887H966.181V387.31Z" fill="#A2C142"/>
  <path d="M1024.68 385.053C1033.19 385.053 1036.43 380.877 1036.43 374.363C1036.43 367.584 1033.19 363.547 1024.68 363.547H1015.17V385.053H1024.68ZM1024.68 387.798H1015.17V408.889H1012.31V360.808H1024.68C1034.9 360.808 1039.29 366.421 1039.29 374.363C1039.29 382.727 1034.52 387.798 1024.68 387.798Z" fill="#A2C142"/>
  <path d="M1069.84 373.886C1061.52 373.886 1055.74 379.982 1055.74 390.262C1055.74 400.531 1061.52 406.703 1069.84 406.703C1077.89 406.703 1084.05 400.328 1084.05 390.262C1084.05 380.326 1077.89 373.886 1069.84 373.886ZM1069.45 371.218C1077.07 371.218 1082.14 375.803 1084.05 381.428V371.698H1086.9V408.888H1084.05V399.097C1082.14 404.78 1077 409.436 1069.45 409.436C1059.81 409.436 1052.83 401.971 1052.83 390.262C1052.83 378.474 1059.81 371.218 1069.45 371.218Z" fill="#A2C142"/>
  <path d="M1120.18 373.886C1111.87 373.886 1106.1 379.982 1106.1 390.262C1106.1 400.531 1111.87 406.703 1120.18 406.703C1128.25 406.703 1134.4 400.328 1134.4 390.262C1134.4 380.326 1128.25 373.886 1120.18 373.886ZM1119.8 371.218C1127.36 371.218 1132.5 375.735 1134.4 381.357V371.698H1137.26V410.054C1137.26 420.603 1130.27 427.111 1121.58 427.111C1112.82 427.111 1106.99 422.175 1105.27 414.707H1108.13C1109.78 420.467 1114.41 424.44 1121.58 424.44C1128.75 424.44 1134.4 419.024 1134.4 410.054V399.167C1132.5 404.78 1127.36 409.436 1119.8 409.436C1110.16 409.436 1103.18 401.971 1103.18 390.262C1103.18 378.474 1110.16 371.218 1119.8 371.218Z" fill="#A2C142"/>
  <path d="M1170.54 373.886C1162.23 373.886 1156.45 379.982 1156.45 390.262C1156.45 400.531 1162.23 406.703 1170.54 406.703C1178.6 406.703 1184.76 400.328 1184.76 390.262C1184.76 380.326 1178.6 373.886 1170.54 373.886ZM1170.16 371.218C1177.77 371.218 1182.85 375.803 1184.76 381.428V371.698H1187.61V408.888H1184.76V399.097C1182.85 404.78 1177.71 409.436 1170.16 409.436C1160.51 409.436 1153.53 401.971 1153.53 390.262C1153.53 378.474 1160.51 371.218 1170.16 371.218Z" fill="#A2C142"/>
  <path d="M1257.01 387.31C1257.01 378.27 1252.63 373.614 1245.96 373.614C1239.17 373.614 1234.16 378.676 1234.16 389.089V408.887H1231.37V387.31C1231.37 378.27 1226.99 373.614 1220.32 373.614C1213.47 373.614 1208.52 378.676 1208.52 389.089V408.887H1205.67V371.697H1208.52V379.778C1210.55 373.752 1215.31 370.94 1220.77 370.94C1226.73 370.94 1231.81 374.232 1233.53 381.359C1235.24 374.232 1240.44 370.94 1246.41 370.94C1253.77 370.94 1259.8 375.94 1259.8 387.107V408.887H1257.01V387.31Z" fill="#A2C142"/>
  <path d="M1278.75 388.955H1305.79C1306.23 378.616 1299.5 373.819 1292.52 373.819C1285.47 373.819 1279.06 378.678 1278.75 388.955ZM1292.58 409.437C1282.94 409.437 1275.83 402.175 1275.83 390.26C1275.83 378.413 1282.81 371.218 1292.58 371.218C1302.93 371.218 1308.64 379.164 1308.64 387.795C1308.64 389.438 1308.64 390.26 1308.52 391.491H1278.75C1279 401.833 1285.47 406.771 1292.58 406.771C1299.38 406.771 1304.26 402.864 1305.4 396.694H1308.39C1307.06 404.027 1301.41 409.437 1292.58 409.437Z" fill="#A2C142"/>
  <path d="M1351.57 387.31C1351.57 378.27 1346.94 373.614 1340.02 373.614C1332.85 373.614 1327.77 378.473 1327.77 388.815V408.887H1324.92V371.697H1327.77V379.574C1329.8 373.82 1334.75 370.94 1340.46 370.94C1348.14 370.94 1354.36 375.94 1354.36 387.107V408.887H1351.57V387.31Z" fill="#A2C142"/>
  <path d="M1373.49 374.363H1368.28V371.698H1373.49V362.243H1376.35V371.698H1386.56V374.363H1376.35V398.965C1376.35 404.572 1378.06 406.147 1382.69 406.147H1386.56V408.889H1382.25C1376.35 408.889 1373.49 406.285 1373.49 398.965V374.363Z" fill="#A2C142"/>
  <path d="M1416.91 406.702C1424.15 406.702 1431.13 401.558 1431.13 390.261C1431.13 379.027 1424.21 373.885 1416.97 373.885C1409.74 373.885 1402.89 379.027 1402.89 390.261C1402.89 401.558 1409.68 406.702 1416.91 406.702ZM1416.91 409.438C1407.27 409.438 1399.96 402.176 1399.96 390.261C1399.96 378.414 1407.39 371.217 1417.04 371.217C1426.69 371.217 1433.98 378.414 1433.98 390.261C1433.98 402.176 1426.56 409.438 1416.91 409.438Z" fill="#A2C142"/>
  <path d="M1461.81 409.437C1454.25 409.437 1448.93 405.738 1448.29 398.892H1451.21C1451.66 403.615 1455.27 406.772 1461.81 406.772C1467.21 406.772 1470.37 403.341 1470.37 399.301C1470.37 389.026 1449.24 394.984 1449.24 380.878C1449.24 375.663 1453.94 371.216 1460.67 371.216C1467.84 371.216 1472.6 375.256 1472.98 382.177H1470.12C1469.87 377.518 1466.7 373.819 1460.61 373.819C1455.59 373.819 1452.1 377.038 1452.1 380.878C1452.1 392.378 1473.04 386.288 1473.17 399.301C1473.17 405.12 1468.41 409.437 1461.81 409.437Z" fill="#A2C142"/>
</svg>
