<svg viewBox="0 0 900 355" fill="none" xmlns="http://www.w3.org/2000/svg">
<g clip-path="url(#clip0_416_3325)">
<mask id="mask0_416_3325" style="mask-type:luminance" maskUnits="userSpaceOnUse" x="0" y="67" width="900" height="220">
<path d="M0 67.7349H900V286.895H0V67.7349Z" fill="white"/>
</mask>
<g mask="url(#mask0_416_3325)">
<path d="M144.721 198.057V282.542H110.204V203.466C110.204 180.047 96.079 164.417 74.761 164.417C51.9538 164.417 34.5459 182.142 34.5459 207.959V282.542H0.000976562V133.459H33.9328V153.908H35.1337C45.94 139.507 63.3669 130.49 83.4871 130.49C120.694 130.49 144.721 156.012 144.721 198.057Z" fill="white"/>
</g>
<mask id="mask1_416_3325" style="mask-type:luminance" maskUnits="userSpaceOnUse" x="0" y="67" width="900" height="220">
<path d="M0 67.7349H900V286.895H0V67.7349Z" fill="white"/>
</mask>
<g mask="url(#mask1_416_3325)">
<path d="M409.014 167.106V133.466H344.452V81.5411H309.934V133.466H284.964H283.257H202.389C176.572 133.466 157.354 151.192 157.354 176.101C157.354 195.927 171.171 211.526 192.194 216.34L251.329 229.252C256.438 230.448 259.148 234.04 259.148 239.147C259.148 245.459 254.945 249.368 249.545 249.368H163.373V282.689H249.838C275.947 282.689 295.479 264.377 295.479 239.147C295.479 219.03 281.667 203.116 260.031 198.616L201.19 185.71C196.98 184.805 193.685 181.502 193.685 176.395C193.685 170.702 197.593 167.106 203.287 167.106H283.079V167.174L309.934 167.106V242.158C309.934 267.68 325.239 282.689 351.077 282.689H409.014V249.076H357.973C349.265 249.076 344.452 244.26 344.452 236.144V167.106H409.014Z" fill="white"/>
</g>
<mask id="mask2_416_3325" style="mask-type:luminance" maskUnits="userSpaceOnUse" x="0" y="67" width="900" height="220">
<path d="M0 67.7349H900V286.895H0V67.7349Z" fill="white"/>
</mask>
<g mask="url(#mask2_416_3325)">
<path d="M453.69 191.724H535.365C530.844 173.093 515.244 161.094 494.222 161.094C473.519 161.094 457.891 173.413 453.69 191.724ZM571.078 219.937H453.077C455.792 239.147 472.001 254.477 495.42 255.063C512.24 255.354 526.954 247.851 532.941 235.85H568.686C559.077 268.287 529.938 286.892 494.833 286.892C445.891 286.892 417.364 250.567 417.364 208.224C417.364 164.097 448.896 129.264 494.833 129.264C544.361 129.264 575.584 168.598 571.078 219.937Z" fill="white"/>
</g>
<mask id="mask3_416_3325" style="mask-type:luminance" maskUnits="userSpaceOnUse" x="0" y="67" width="900" height="220">
<path d="M0 67.7349H900V286.895H0V67.7349Z" fill="white"/>
</mask>
<g mask="url(#mask3_416_3325)">
<path d="M702.862 189.01C697.748 174.001 683.031 162.582 663.524 162.582C636.196 162.582 619.082 183.018 619.082 208.221C619.082 233.159 636.196 253.867 663.524 253.867C682.447 253.867 697.748 242.766 702.862 226.852H739.186C732.587 261.372 703.155 286.894 663.236 286.894C615.492 286.894 584.567 252.055 584.567 207.933C584.567 163.808 615.492 129.261 663.236 129.261C703.155 129.261 732.587 154.492 739.186 189.01H702.862Z" fill="white"/>
</g>
<mask id="mask4_416_3325" style="mask-type:luminance" maskUnits="userSpaceOnUse" x="0" y="67" width="900" height="220">
<path d="M0 67.7349H900V286.895H0V67.7349Z" fill="white"/>
</mask>
<g mask="url(#mask4_416_3325)">
<path d="M900 198.057V282.566H865.482V203.461C865.482 180.042 851.351 164.421 830.036 164.421C807.224 164.421 789.824 182.141 789.824 207.957V282.566H755.282V67.7352H789.824V153.907H791.31C801.823 139.507 818.642 130.49 838.765 130.49C875.97 130.49 900 156.012 900 198.057Z" fill="white"/>
</g>
</g>
<defs>
<clipPath id="clip0_416_3325">
<rect width="900" height="219.16" fill="white" transform="translate(0 67.7349)"/>
</clipPath>
</defs>
</svg>