<svg width="363" height="88" viewBox="0 0 363 88" fill="none" xmlns="http://www.w3.org/2000/svg">
<g clip-path="url(#clip0_27_210)">
<path fill-rule="evenodd" clip-rule="evenodd" d="M1.65164 38.0351L29.936 66.3718C30.4866 66.9234 31.1519 67.3604 31.8632 67.636V42.0799C29.8675 40.4251 27.1148 39.3683 23.3984 38.8856H23.3754C20.5997 38.4718 18.5123 37.7363 17.0211 36.6102C15.0483 35.1624 14.0619 33.0709 14.0619 30.4053V28.9572C12.7085 28.4977 11.745 27.2106 11.745 25.7168C11.745 23.8553 13.282 22.3155 15.1401 22.3155C16.9982 22.3155 18.5351 23.8553 18.5351 25.7168C18.5351 27.2338 17.5717 28.4977 16.2182 28.9572V30.4053C16.2182 34.0592 18.5123 36.0125 23.6737 36.7941C27.0227 37.2079 29.7068 38.104 31.8403 39.46V34.1052C30.9455 33.4847 29.7757 33.1398 28.2385 32.9103C25.05 32.4504 23.4442 30.9566 23.4442 28.4977V25.9006C21.9532 25.5329 20.8061 24.2 20.8061 22.5682C20.8061 20.7067 22.3431 19.1899 24.2012 19.1899C26.0593 19.1899 27.5965 20.7297 27.5965 22.5913C27.5965 24.2229 26.4492 25.5789 24.9582 25.9238V28.5205C24.9582 29.6466 25.3482 30.9798 28.4449 31.4393C29.7757 31.6003 30.8998 31.922 31.8403 32.3815V22.844C30.6013 22.1316 29.7757 20.7987 29.7757 19.2588C29.7757 16.9377 31.6568 15.0761 33.9506 15.0761C36.2677 15.0761 38.1255 16.9607 38.1255 19.2588C38.1255 20.7756 37.3 22.1086 36.0609 22.844V34.0131C37.0932 33.3698 38.4008 32.9563 40.0066 32.7721C42.484 32.3815 43.5395 31.5082 43.5395 29.8076V26.1306C42.0255 25.8085 40.8554 24.4298 40.8554 22.7981C40.8554 20.8906 42.3926 19.3508 44.2504 19.3508C46.1086 19.3508 47.6455 20.8906 47.6455 22.7751C47.6455 24.3838 46.5214 25.7168 45.0535 26.0845V29.7848C45.0535 32.2437 43.4249 33.7604 40.2362 34.2431H40.213C38.3548 34.473 37.0015 35.0014 36.0381 35.8519V37.5296C37.0247 38.334 38.378 38.8624 40.1673 39.0923H40.1901C42.4611 39.4372 43.9065 40.2873 44.5946 41.6204C49.6412 40.816 51.8893 38.8395 51.8893 35.2542V28.9343C50.4899 28.4977 49.5037 27.1649 49.5037 25.6707C49.5037 23.8092 51.0405 22.2696 52.8988 22.2696C53.8164 22.2696 54.6649 22.6372 55.3072 23.2807C55.9267 23.9472 56.271 24.7975 56.271 25.6939C56.271 27.1877 55.3304 28.4516 54.0917 28.9343V35.2774C54.0917 37.943 53.1051 40.0345 51.1323 41.4823C49.6872 42.5627 47.6915 43.2981 45.0763 43.7348V44.9298C46.0626 45.2286 46.7967 46.1937 46.7967 47.2741C46.7967 48.3541 46.0626 49.2963 45.0763 49.618V50.1696C45.0763 52.6288 43.4477 54.1455 40.259 54.6282H40.2362C38.4008 54.8578 37.0704 55.3637 36.107 56.191V67.6128C36.7722 67.3372 37.4146 66.9234 37.9649 66.3718L66.2494 38.0351C68.4518 35.829 68.4518 32.1976 66.2494 29.9915L37.9649 1.65471C35.7628 -0.551571 32.1385 -0.551571 29.936 1.65471L1.65164 29.9915C-0.550546 32.1976 -0.550546 35.829 1.65164 38.0351ZM44.2047 20.6377C43.0346 20.6377 42.0712 21.603 42.0712 22.7981C42.0712 23.9472 43.0574 24.9354 44.2047 24.9354C45.3745 24.9354 46.3379 23.9932 46.3379 22.7981C46.3379 21.603 45.3973 20.6377 44.2047 20.6377ZM22.022 22.5682C22.022 23.7403 22.9855 24.7055 24.1554 24.7055C25.3023 24.7055 26.2889 23.7403 26.2889 22.5682C26.2889 21.3962 25.3253 20.4309 24.1554 20.4309C22.9855 20.4309 22.022 21.3733 22.022 22.5682ZM12.9608 25.6707C12.9608 26.866 13.9243 27.8082 15.0942 27.8082C16.2412 27.8082 17.2275 26.8428 17.2275 25.6707C17.2275 24.4987 16.2641 23.5335 15.0942 23.5335C13.9243 23.5335 12.9608 24.4758 12.9608 25.6707ZM30.9912 19.2129C30.9912 20.8217 32.2988 22.1316 33.9046 22.1316C35.5107 22.1316 36.8179 20.7987 36.8179 19.1899C36.8179 17.5812 35.5107 16.2713 33.9046 16.2713C32.2988 16.2713 30.9912 17.5812 30.9912 19.2129ZM39.9377 40.5861C38.3548 40.3794 37.0704 39.9656 36.0152 39.3683V44.4471C37.8502 43.2292 40.1673 42.3788 42.92 41.8732C42.3926 41.2066 41.406 40.816 39.9377 40.5861ZM41.773 47.2741C41.773 46.1937 42.5072 45.2515 43.4934 44.9298V43.9644C40.2819 44.516 37.8502 45.5503 36.0609 47.1359V54.3523C37.0932 53.7317 38.378 53.3183 39.9609 53.1344C42.4383 52.7438 43.4706 51.8702 43.4934 50.1696V49.618C42.5072 49.3192 41.773 48.4001 41.773 47.2741ZM50.7652 25.6939C50.7652 26.866 51.7058 27.8311 52.8988 27.8311C54.0685 27.8311 55.0319 26.866 55.0319 25.6707C55.0319 25.1192 54.8487 24.5907 54.4356 24.177C54.0228 23.7863 53.4722 23.5565 52.8988 23.5565C51.7286 23.5565 50.7652 24.5217 50.7652 25.6939Z" fill="#15A04B"/>
<path d="M52.9885 22.2899C51.1289 22.2899 49.5907 23.8249 49.5907 25.6807C49.5907 27.1702 50.578 28.499 51.9784 28.9343V35.235C51.9784 38.8092 49.7285 40.7797 44.678 41.5814C43.9892 40.2526 42.5431 39.4048 40.2701 39.0613H40.2472C38.4566 38.8321 37.1023 38.305 36.115 37.5029V35.8306C37.0791 34.9829 38.4337 34.4558 40.293 34.2269H40.3161C43.5072 33.7455 45.1371 32.2335 45.1371 29.782V26.0932C46.6064 25.7268 47.7312 24.3977 47.7312 22.7939C47.7312 20.9152 46.1933 19.3801 44.3338 19.3801C42.4742 19.3801 40.936 20.9152 40.936 22.8168C40.936 24.4435 42.1068 25.8182 43.6221 26.1392V29.8049C43.6221 31.5004 42.566 32.371 40.0866 32.7603C38.4795 32.9438 37.1708 33.3563 36.1379 33.9976V22.8626C37.3776 22.1295 38.2042 20.8006 38.2042 19.2884C38.2042 16.9974 36.3446 15.1186 34.0259 15.1186C31.73 15.1186 29.8476 16.9744 29.8476 19.2884C29.8476 20.8235 30.6742 22.1525 31.9139 22.8626V32.371C30.9727 31.9129 29.8476 31.5918 28.5161 31.4315C25.4168 30.9733 25.0265 29.6445 25.0265 28.5218V25.9328C26.5187 25.5893 27.6667 24.2373 27.6667 22.6107C27.6667 20.7548 26.1285 19.2197 24.2689 19.2197C22.4094 19.2197 20.8712 20.7319 20.8712 22.5877C20.8712 24.2145 22.0192 25.5433 23.5114 25.91V28.499C23.5114 30.9505 25.1184 32.4396 28.3094 32.8978C29.8476 33.127 31.0184 33.4705 31.9139 34.0894V39.4277C29.7787 38.0761 27.0925 37.1823 23.741 36.7698C18.5756 35.991 16.2798 34.0437 16.2798 30.4005V28.9571C17.6342 28.499 18.5984 27.2388 18.5984 25.7268C18.5984 23.8708 17.0604 22.3357 15.2009 22.3357C13.3413 22.3357 11.8031 23.8708 11.8031 25.7268C11.8031 27.2159 12.7673 28.499 14.1218 28.9571V30.4005C14.1218 33.0584 15.1089 35.1432 17.0833 36.5866C18.5756 37.7093 20.6646 38.4425 23.4425 38.8549H23.4655C27.1846 39.3359 29.9394 40.3901 31.9367 42.0395V67.5173C33.2911 68.044 34.8293 68.0212 36.1839 67.4944V56.1072C37.148 55.2826 38.4795 54.7784 40.3161 54.5492H40.339C43.53 54.0682 45.16 52.5558 45.16 50.1043V49.5547C46.1473 49.2337 46.8821 48.2945 46.8821 47.2175C46.8821 46.1408 46.1473 45.1785 45.16 44.8806V43.6893C47.7772 43.254 49.7746 42.5206 51.221 41.4439C53.1952 40.0005 54.1825 37.9154 54.1825 35.2578V28.9343C55.4222 28.4533 56.3634 27.193 56.3634 25.7036C56.3634 24.8101 56.0188 23.9624 55.399 23.298C54.7563 22.6564 53.9068 22.2899 52.9885 22.2899ZM42.1525 22.8168C42.1525 21.6254 43.1169 20.6631 44.2877 20.6631C45.4813 20.6631 46.4229 21.6254 46.4229 22.8168C46.4229 24.0083 45.4585 24.9476 44.2877 24.9476C43.1398 24.9476 42.1525 23.9624 42.1525 22.8168ZM24.2231 24.7184C23.0523 24.7184 22.088 23.7562 22.088 22.5877C22.088 21.3964 23.0523 20.4569 24.2231 20.4569C25.3939 20.4569 26.3581 21.4192 26.3581 22.5877C26.3581 23.7562 25.3709 24.7184 24.2231 24.7184ZM15.1548 27.8115C13.984 27.8115 13.0198 26.872 13.0198 25.6807C13.0198 24.4894 13.984 23.55 15.1548 23.55C16.3257 23.55 17.2899 24.5123 17.2899 25.6807C17.2899 26.8492 16.3028 27.8115 15.1548 27.8115ZM33.9798 22.1525C32.3727 22.1525 31.0641 20.8465 31.0641 19.2426C31.0641 17.616 32.3727 16.31 33.9798 16.31C35.5869 16.31 36.8955 17.616 36.8955 19.2197C36.8955 20.8235 35.5869 22.1525 33.9798 22.1525ZM36.0918 39.3363C37.148 39.9319 38.4337 40.344 40.0176 40.5504C41.4869 40.7797 42.4742 41.1689 43.0023 41.8335C40.2472 42.3374 37.9285 43.1851 36.0918 44.3996V39.3363ZM43.5761 44.8806C42.5888 45.2013 41.8543 46.1408 41.8543 47.2175C41.8543 48.3402 42.5888 49.2566 43.5761 49.5547V50.1043C43.5532 51.7998 42.5199 52.6705 40.0405 53.0601C38.4566 53.2432 37.1708 53.6557 36.1379 54.2742V47.08C37.9285 45.4991 40.3619 44.4682 43.5761 43.9183V44.8806ZM52.9885 27.8344C51.7948 27.8344 50.8536 26.872 50.8536 25.7036C50.8536 24.5352 51.8177 23.5729 52.9885 23.5729C53.5626 23.5729 54.1135 23.8021 54.5267 24.1915C54.9401 24.604 55.1237 25.1309 55.1237 25.6807C55.1237 26.872 54.1593 27.8344 52.9885 27.8344Z" fill="white"/>
<path d="M298.547 60.2255L314.789 38.1806H323.969L330.294 60.2255H322.895L321.82 56.2033H309.815L307.021 60.2255H298.547ZM313.377 51.0145H320.469L318.504 43.615L313.377 51.0145ZM313.561 36.1235L314.267 32.4084L326.64 30.075L325.934 33.7593L313.561 36.1235Z" fill="white"/>
<path d="M266.892 60.2255L271.62 38.1806H282.274L290.072 53.8699L293.388 38.1806H300.788L296.06 60.2255H285.406L277.668 44.2598L274.291 60.2255H266.892Z" fill="white"/>
<path d="M232.703 60.2255L248.945 38.1806H258.125L264.45 60.2255H257.051L255.976 56.2034H243.971L241.177 60.2255H232.703ZM247.533 51.0145H254.625L252.66 43.6151L247.533 51.0145Z" fill="white"/>
<path d="M202.997 60.2255L207.725 38.1806H224.427C231.397 38.1806 234.007 41.2202 233.055 45.7336C232.472 48.4355 230.476 50.2777 227.406 51.1066C229.954 51.3216 231.274 52.7646 230.722 55.313L229.678 60.2255H222.278L223.076 56.5104C223.506 54.5454 223.107 53.962 221.142 53.962H211.716L210.396 60.2255H202.997ZM212.944 48.1898H221.787C223.691 48.1898 225.164 47.7907 225.471 46.1634C225.778 44.3826 224.612 43.9528 222.616 43.9528H213.835L212.944 48.1898Z" fill="white"/>
<path d="M168.808 60.2255L185.05 38.1806H194.23L200.555 60.2255H193.156L192.081 56.2034H180.076L177.282 60.2255H168.808ZM183.638 51.0145H190.73L188.765 43.6151L183.638 51.0145Z" fill="white"/>
<path d="M144.139 60.2255L148.867 38.1806H164.311C171.434 38.1806 174.474 41.2816 173.153 47.3609C172.202 51.9356 167.995 54.7603 162.284 54.7603H152.705L151.538 60.2255H144.139ZM153.964 48.7118H162.284C164.557 48.7118 165.478 48.1591 165.846 46.4705C166.245 44.8125 165.508 44.2598 163.298 44.2598H154.916L153.964 48.7118Z" fill="white"/>
<path d="M120.481 60.2255L114.678 38.1806H121.893L126.253 54.791L137.736 38.1806H146.425L130.736 60.2255H120.481Z" fill="white"/>
<path d="M84.9514 60.2255L89.6796 38.1806H112.216L111.049 43.6151H95.851L95.2062 46.7161H109.729L108.685 51.6593H94.1623L93.4868 54.791H108.685L107.549 60.2255H84.9514Z" fill="white"/>
<path d="M54.7579 60.2255L59.4862 38.1806H71.7061C80.3337 38.1806 85.1234 42.8475 83.7417 50.032C82.575 56.2648 76.5265 60.2255 68.4823 60.2255H54.7579ZM63.4776 54.1463H68.9121C72.8114 54.1463 75.7589 52.3655 76.3423 49.5408C77.0484 46.2862 74.7764 44.2598 70.6929 44.2598H65.5654L63.4776 54.1463Z" fill="white"/>
<path d="M281.074 87.3859L285.802 65.3411H308.338L307.172 70.7755H291.973L291.329 73.8765H305.851L304.807 78.8198H290.285L289.609 81.9515H304.807L303.671 87.3859H281.074Z" fill="white"/>
<path d="M264.991 88C254.981 88 249.516 82.719 251.297 74.6134C252.556 68.657 258.727 64.8191 266.864 64.8191C274.785 64.8191 280.281 68.5649 280.619 74.245H272.973C272.544 72.2186 269.903 70.8676 266.434 70.8676C262.319 70.8676 259.157 72.7712 258.512 75.7187C257.714 79.4952 260.447 81.9208 265.267 81.9208C268.736 81.9208 271.469 80.5698 272.237 78.5127H279.912C278.684 84.2849 272.851 88 264.991 88Z" fill="white"/>
<path d="M216.309 87.3859L221.038 65.3411H231.692L239.49 81.0304L242.806 65.3411H250.206L245.477 87.3859H234.823L227.086 71.4203L223.709 87.3859H216.309Z" fill="white"/>
<path d="M190.404 87.3859L195.132 65.3411H217.668L216.501 70.7755H201.303L200.658 73.8765H215.181L214.137 78.8198H199.615L198.939 81.9515H214.137L213.001 87.3859H190.404Z" fill="white"/>
<path d="M159.82 87.3859L164.549 65.3411H181.251C188.221 65.3411 190.831 68.3807 189.879 72.894C189.295 75.5959 187.3 77.4381 184.229 78.2671C186.778 78.482 188.098 79.9251 187.545 82.4734L186.501 87.3859H179.102L179.9 83.6709C180.33 81.7059 179.931 81.1225 177.966 81.1225H168.54L167.22 87.3859H159.82ZM169.768 75.3503H178.611C180.514 75.3503 181.988 74.9512 182.295 73.3239C182.602 71.5431 181.435 71.1133 179.44 71.1133H170.659L169.768 75.3503Z" fill="white"/>
<path d="M133.914 87.3859L138.643 65.3411H161.179L160.012 70.7755H144.814L144.169 73.8765H158.692L157.648 78.8198H143.125L142.45 81.9515H157.648L156.512 87.3859H133.914Z" fill="white"/>
<path d="M108.309 87.3859L113.037 65.3411H135.604L134.314 71.4203H119.085L118.318 75.1047H131.674L130.353 81.1839H117.028L115.708 87.3859H108.309Z" fill="white"/>
<path d="M74.9368 87.3859L79.6651 65.3411H90.3191L98.1177 81.0304L101.434 65.3411H108.833L104.105 87.3859H93.4508L85.7136 71.4203L82.3363 87.3859H74.9368Z" fill="white"/>
<path d="M57.0246 88C47.1075 88 41.5502 82.8419 43.2389 74.9204C44.5592 68.7798 51.3138 64.8191 60.1257 64.8191C70.0735 64.8191 75.6001 69.9772 73.9114 77.8679C72.6218 84.0086 65.8364 88 57.0246 88ZM50.5156 76.3328C49.7787 79.7101 52.6034 81.9208 57.3931 81.9208C62.1828 81.9208 65.9593 79.7408 66.6347 76.4249C67.3716 73.0782 64.5469 70.8676 59.7572 70.8676C54.9675 70.8676 51.2217 73.0475 50.5156 76.3328Z" fill="white"/>
<path d="M24.8223 88C14.8131 88 9.34794 82.719 11.1287 74.6134C12.3875 68.657 18.5589 64.8191 26.6952 64.8191C34.6166 64.8191 40.1125 68.5649 40.4502 74.245H32.8052C32.3753 72.2186 29.7348 70.8676 26.2654 70.8676C22.1512 70.8676 18.9887 72.7712 18.344 75.7187C17.5457 79.4952 20.2783 81.9208 25.0987 81.9208C28.5681 81.9208 31.3007 80.5698 32.0683 78.5127H39.7441C38.5159 84.2849 32.6823 88 24.8223 88Z" fill="white"/>
<path d="M350.099 87.3859L350.836 83.8858H335.73L336.836 78.6969L354.797 65.3411H362.196L359.341 78.6969H362.933L361.859 83.8858H358.205L357.468 87.3859H350.099ZM344.174 78.6969H351.942L353.477 71.5738L344.174 78.6969Z" fill="#15A04B"/>
<path d="M308.175 84.1928C310.17 75.1661 326.474 76.3942 327.426 72.0036C327.671 70.7141 326.719 69.7316 323.895 69.7316C320.794 69.7316 318.798 70.7755 318.737 73.1089H311.245C312.166 66.999 316.956 64.8191 324.171 64.8191C331.847 64.8191 335.777 67.6438 334.794 72.587C333.29 79.9251 319.443 79.2803 317.324 81.8593H332.553L331.386 87.3859H307.499L308.175 84.1928Z" fill="#15A04B"/>
</g>
<defs>
<clipPath id="clip0_27_210">
<rect width="362.93" height="88" fill="white"/>
</clipPath>
</defs>
</svg>
