<svg width="2000" height="520" viewBox="0 0 2000 520" fill="none" xmlns="http://www.w3.org/2000/svg">
<g clip-path="url(#clip0_581_3768)">
<path d="M782.559 348.828H718.597V168.395H783.088C801.237 168.395 816.86 172.007 829.958 179.231C843.056 186.397 853.129 196.705 860.177 210.155C867.284 223.605 870.837 239.699 870.837 258.435C870.837 277.23 867.284 293.382 860.177 306.891C853.129 320.4 842.997 330.767 829.782 337.991C816.625 345.216 800.884 348.828 782.559 348.828ZM756.745 316.142H780.973C792.25 316.142 801.736 314.145 809.43 310.151C817.183 306.098 822.998 299.843 826.874 291.385C830.81 282.869 832.777 271.885 832.777 258.435C832.777 245.102 830.81 234.207 826.874 225.749C822.998 217.291 817.212 211.065 809.518 207.071C801.824 203.078 792.338 201.081 781.061 201.081H756.745V316.142Z" fill="#121314"/>
<path d="M960.063 351.471C946.143 351.471 934.161 348.652 924.117 343.013C914.132 337.316 906.438 329.269 901.034 318.873C895.631 308.418 892.929 296.055 892.929 281.782C892.929 267.862 895.631 255.645 901.034 245.132C906.438 234.618 914.044 226.425 923.853 220.551C933.72 214.678 945.291 211.741 958.565 211.741C967.493 211.741 975.804 213.18 983.498 216.058C991.251 218.877 998.006 223.135 1003.76 228.833C1009.58 234.53 1014.1 241.696 1017.33 250.33C1020.56 258.905 1022.18 268.949 1022.18 280.461V290.769H907.906V267.51H986.846C986.846 262.106 985.671 257.319 983.322 253.149C980.973 248.979 977.713 245.719 973.543 243.37C969.431 240.961 964.644 239.757 959.182 239.757C953.485 239.757 948.433 241.079 944.028 243.722C939.682 246.306 936.275 249.801 933.808 254.206C931.342 258.553 930.079 263.398 930.02 268.743V290.857C930.02 297.552 931.254 303.338 933.72 308.213C936.246 313.088 939.799 316.847 944.381 319.49C948.962 322.133 954.395 323.455 960.68 323.455C964.85 323.455 968.668 322.867 972.133 321.692C975.598 320.518 978.564 318.756 981.031 316.406C983.498 314.057 985.378 311.179 986.67 307.772L1021.38 310.063C1019.62 318.403 1016.01 325.686 1010.55 331.912C1005.14 338.08 998.152 342.896 989.577 346.361C981.061 349.768 971.223 351.471 960.063 351.471Z" fill="#121314"/>
<path d="M1169.2 213.503L1121.88 348.828H1079.6L1032.28 213.503H1071.93L1100.04 310.327H1101.45L1129.46 213.503H1169.2Z" fill="#121314"/>
<path d="M1189.11 348.828V168.395H1260.29C1273.98 168.395 1285.64 171.008 1295.27 176.236C1304.9 181.404 1312.24 188.599 1317.3 197.821C1322.41 206.983 1324.96 217.556 1324.96 229.538C1324.96 241.519 1322.38 252.092 1317.21 261.254C1312.04 270.417 1304.55 277.553 1294.74 282.663C1284.99 287.773 1273.19 290.328 1259.32 290.328H1213.95V259.757H1253.16C1260.5 259.757 1266.55 258.494 1271.31 255.968C1276.12 253.384 1279.71 249.83 1282.05 245.308C1284.46 240.727 1285.67 235.47 1285.67 229.538C1285.67 223.547 1284.46 218.319 1282.05 213.855C1279.71 209.333 1276.12 205.838 1271.31 203.371C1266.49 200.846 1260.38 199.583 1252.98 199.583H1227.26V348.828H1189.11Z" fill="#121314"/>
<path d="M1383.99 351.383C1375.35 351.383 1367.66 349.885 1360.91 346.89C1354.15 343.836 1348.81 339.342 1344.87 333.41C1341 327.419 1339.06 319.96 1339.06 311.032C1339.06 303.514 1340.44 297.2 1343.2 292.09C1345.96 286.98 1349.72 282.869 1354.47 279.756C1359.23 276.643 1364.64 274.293 1370.69 272.708C1376.79 271.122 1383.2 270.006 1389.89 269.36C1397.76 268.537 1404.11 267.774 1408.92 267.069C1413.74 266.306 1417.23 265.19 1419.41 263.721C1421.58 262.253 1422.67 260.08 1422.67 257.202V256.673C1422.67 251.093 1420.9 246.776 1417.38 243.722C1413.91 240.668 1408.98 239.141 1402.58 239.141C1395.82 239.141 1390.45 240.638 1386.46 243.634C1382.46 246.571 1379.82 250.271 1378.53 254.735L1343.81 251.916C1345.58 243.693 1349.04 236.586 1354.21 230.595C1359.38 224.545 1366.05 219.905 1374.21 216.675C1382.43 213.385 1391.95 211.741 1402.75 211.741C1410.27 211.741 1417.47 212.622 1424.34 214.384C1431.27 216.146 1437.41 218.877 1442.75 222.577C1448.16 226.278 1452.42 231.035 1455.53 236.85C1458.64 242.606 1460.2 249.507 1460.2 257.554V348.828H1424.6V330.062H1423.55C1421.37 334.291 1418.47 338.021 1414.82 341.251C1411.18 344.423 1406.81 346.919 1401.7 348.74C1396.59 350.502 1390.68 351.383 1383.99 351.383ZM1394.74 325.481C1400.26 325.481 1405.13 324.394 1409.36 322.221C1413.59 319.989 1416.91 316.994 1419.32 313.235C1421.73 309.476 1422.93 305.217 1422.93 300.46V286.099C1421.76 286.863 1420.14 287.568 1418.08 288.214C1416.09 288.801 1413.83 289.359 1411.3 289.888C1408.78 290.357 1406.25 290.798 1403.72 291.209C1401.2 291.562 1398.91 291.885 1396.85 292.178C1392.45 292.824 1388.6 293.852 1385.31 295.262C1382.02 296.671 1379.47 298.58 1377.65 300.988C1375.82 303.338 1374.91 306.275 1374.91 309.799C1374.91 314.909 1376.76 318.814 1380.46 321.516C1384.22 324.159 1388.98 325.481 1394.74 325.481Z" fill="#121314"/>
<path d="M1489.32 348.828V213.503H1525.7V237.114H1527.11C1529.58 228.715 1533.72 222.372 1539.53 218.084C1545.35 213.738 1552.04 211.565 1559.62 211.565C1561.5 211.565 1563.53 211.682 1565.7 211.917C1567.87 212.152 1569.78 212.475 1571.43 212.886V246.189C1569.66 245.66 1567.23 245.19 1564.11 244.779C1561 244.368 1558.15 244.163 1555.57 244.163C1550.05 244.163 1545.11 245.367 1540.77 247.775C1536.48 250.124 1533.07 253.413 1530.55 257.642C1528.08 261.871 1526.85 266.746 1526.85 272.267V348.828H1489.32Z" fill="#121314"/>
<path d="M1625.54 351.383C1616.91 351.383 1609.22 349.885 1602.46 346.89C1595.71 343.836 1590.36 339.342 1586.43 333.41C1582.55 327.419 1580.61 319.96 1580.61 311.032C1580.61 303.514 1581.99 297.2 1584.75 292.09C1587.51 286.98 1591.27 282.869 1596.03 279.756C1600.79 276.643 1606.19 274.293 1612.24 272.708C1618.35 271.122 1624.75 270.006 1631.45 269.36C1639.32 268.537 1645.66 267.774 1650.48 267.069C1655.29 266.306 1658.79 265.19 1660.96 263.721C1663.13 262.253 1664.22 260.08 1664.22 257.202V256.673C1664.22 251.093 1662.46 246.776 1658.93 243.722C1655.47 240.668 1650.54 239.141 1644.13 239.141C1637.38 239.141 1632 240.638 1628.01 243.634C1624.02 246.571 1621.37 250.271 1620.08 254.735L1585.37 251.916C1587.13 243.693 1590.6 236.586 1595.76 230.595C1600.93 224.545 1607.6 219.905 1615.76 216.675C1623.99 213.385 1633.5 211.741 1644.31 211.741C1651.83 211.741 1659.02 212.622 1665.89 214.384C1672.82 216.146 1678.96 218.877 1684.31 222.577C1689.71 226.278 1693.97 231.035 1697.08 236.85C1700.2 242.606 1701.75 249.507 1701.75 257.554V348.828H1666.16V330.062H1665.1C1662.93 334.291 1660.02 338.021 1656.38 341.251C1652.74 344.423 1648.36 346.919 1643.25 348.74C1638.14 350.502 1632.24 351.383 1625.54 351.383ZM1636.29 325.481C1641.81 325.481 1646.69 324.394 1650.92 322.221C1655.15 319.989 1658.46 316.994 1660.87 313.235C1663.28 309.476 1664.48 305.217 1664.48 300.46V286.099C1663.31 286.863 1661.69 287.568 1659.64 288.214C1657.64 288.801 1655.38 289.359 1652.86 289.888C1650.33 290.357 1647.8 290.798 1645.28 291.209C1642.75 291.562 1640.46 291.885 1638.41 292.178C1634 292.824 1630.15 293.852 1626.86 295.262C1623.58 296.671 1621.02 298.58 1619.2 300.988C1617.38 303.338 1616.47 306.275 1616.47 309.799C1616.47 314.909 1618.32 318.814 1622.02 321.516C1625.78 324.159 1630.54 325.481 1636.29 325.481Z" fill="#121314"/>
<path d="M1768.4 270.593V348.828H1730.87V213.503H1766.64V237.379H1768.22C1771.22 229.508 1776.24 223.282 1783.29 218.701C1790.34 214.061 1798.88 211.741 1808.93 211.741C1818.33 211.741 1826.52 213.797 1833.51 217.908C1840.5 222.019 1845.93 227.893 1849.81 235.528C1853.68 243.105 1855.62 252.15 1855.62 262.664V348.828H1818.09V269.36C1818.15 261.078 1816.04 254.617 1811.75 249.977C1807.46 245.278 1801.56 242.929 1794.04 242.929C1788.99 242.929 1784.52 244.016 1780.65 246.189C1776.83 248.362 1773.83 251.534 1771.66 255.704C1769.55 259.815 1768.46 264.778 1768.4 270.593Z" fill="#121314"/>
<path d="M1923.79 351.383C1915.16 351.383 1907.46 349.885 1900.71 346.89C1893.95 343.836 1888.61 339.342 1884.67 333.41C1880.8 327.419 1878.86 319.96 1878.86 311.032C1878.86 303.514 1880.24 297.2 1883 292.09C1885.76 286.98 1889.52 282.869 1894.28 279.756C1899.03 276.643 1904.44 274.293 1910.49 272.708C1916.6 271.122 1923 270.006 1929.69 269.36C1937.56 268.537 1943.91 267.774 1948.72 267.069C1953.54 266.306 1957.04 265.19 1959.21 263.721C1961.38 262.253 1962.47 260.08 1962.47 257.202V256.673C1962.47 251.093 1960.71 246.776 1957.18 243.722C1953.72 240.668 1948.78 239.141 1942.38 239.141C1935.63 239.141 1930.25 240.638 1926.26 243.634C1922.26 246.571 1919.62 250.271 1918.33 254.735L1883.62 251.916C1885.38 243.693 1888.84 236.586 1894.01 230.595C1899.18 224.545 1905.85 219.905 1914.01 216.675C1922.24 213.385 1931.75 211.741 1942.56 211.741C1950.08 211.741 1957.27 212.622 1964.14 214.384C1971.07 216.146 1977.21 218.877 1982.56 222.577C1987.96 226.278 1992.22 231.035 1995.33 236.85C1998.44 242.606 2000 249.507 2000 257.554V348.828H1964.41V330.062H1963.35C1961.18 334.291 1958.27 338.021 1954.63 341.251C1950.99 344.423 1946.61 346.919 1941.5 348.74C1936.39 350.502 1930.49 351.383 1923.79 351.383ZM1934.54 325.481C1940.06 325.481 1944.94 324.394 1949.17 322.221C1953.39 319.989 1956.71 316.994 1959.12 313.235C1961.53 309.476 1962.73 305.217 1962.73 300.46V286.099C1961.56 286.863 1959.94 287.568 1957.89 288.214C1955.89 288.801 1953.63 289.359 1951.1 289.888C1948.58 290.357 1946.05 290.798 1943.53 291.209C1941 291.562 1938.71 291.885 1936.65 292.178C1932.25 292.824 1928.4 293.852 1925.11 295.262C1921.82 296.671 1919.27 298.58 1917.45 300.988C1915.63 303.338 1914.72 306.275 1914.72 309.799C1914.72 314.909 1916.57 318.814 1920.27 321.516C1924.03 324.159 1928.78 325.481 1934.54 325.481ZM1930.49 196.059L1949.17 155.972H1983.88L1957.01 196.059H1930.49Z" fill="#121314"/>
<g clip-path="url(#clip1_581_3768)">
<path d="M230.936 500.298L12.7413 289.542C-4.2471 273.133 -4.2471 246.126 12.7413 229.717L230.936 18.9612C247.925 2.552 275.885 2.552 292.873 18.9612L511.068 229.717C528.057 246.126 528.057 273.133 511.068 289.542L292.873 500.298C287.455 505.531 280.869 509.095 273.877 510.991C264.438 513.547 254.269 513.067 245.226 509.547C239.955 507.496 235.069 504.413 230.936 500.298Z" fill="#15A04B"/>
<path d="M115.866 224.671C106.841 224.671 99.4088 217.663 99.4088 208.774C99.4088 199.886 106.841 192.878 115.866 192.878C124.891 192.878 132.324 200.057 132.324 208.774C132.324 217.492 124.714 224.671 115.866 224.671Z" fill="#15A04B"/>
<path d="M185.767 180.096C176.742 180.096 169.309 172.917 169.309 164.2C169.309 155.312 176.742 148.304 185.767 148.304C194.792 148.304 202.224 155.483 202.224 164.2C202.224 172.917 194.615 180.096 185.767 180.096Z" fill="#15A04B"/>
<path d="M260.976 171.702C248.588 171.702 238.502 161.959 238.502 149.994C238.502 137.858 248.588 128.115 260.976 128.115C273.363 128.115 283.45 137.858 283.45 149.823C283.45 161.788 273.363 171.702 260.976 171.702Z" fill="#15A04B"/>
<path d="M323.974 186.896C323.974 178.008 331.407 170.829 340.432 170.829C349.634 170.829 356.89 178.008 356.89 186.896C356.89 195.785 349.457 202.793 340.432 202.793C331.584 202.793 323.974 195.443 323.974 186.896Z" fill="#15A04B"/>
<path d="M407.501 234.568C398.299 234.568 391.043 227.389 391.043 218.671C391.043 209.954 398.476 202.775 407.501 202.775C411.925 202.775 416.172 204.484 419.357 207.39C422.543 210.466 423.958 214.398 423.958 218.5C423.958 227.389 416.526 234.568 407.501 234.568Z" fill="#15A04B"/>
<path fill-rule="evenodd" clip-rule="evenodd" d="M407.501 193.203C393.167 193.203 381.31 204.655 381.31 218.5C381.31 229.611 388.92 239.524 399.714 242.772V289.778C399.714 316.443 382.372 331.143 343.44 337.125L330.522 339.005C309.287 342.766 291.413 349.09 277.256 358.149V299.899L277.433 296.462V283.984C284.866 277.66 295.307 273.728 309.64 272.019H309.817C334.415 268.43 346.98 257.148 346.98 238.859V211.339C358.305 208.604 366.976 198.691 366.976 186.725C366.976 172.709 355.12 161.257 340.786 161.257C326.452 161.257 314.595 172.709 314.595 186.896C314.595 199.032 323.621 209.288 335.3 211.681V239.03C335.3 251.679 327.16 258.174 308.048 261.08C295.66 262.447 285.574 265.524 277.61 270.31V177.001C287.166 171.531 293.537 161.617 293.537 150.336C293.537 133.243 279.203 119.227 261.33 119.227C243.633 119.227 229.122 133.072 229.122 150.336C229.122 161.788 235.493 171.702 245.049 177.001V237.187C237.794 233.768 229.122 231.375 218.859 230.179C194.969 226.76 191.96 216.846 191.96 208.471V189.156C203.463 186.592 212.311 176.507 212.311 164.371C212.311 150.526 200.455 139.073 186.121 139.073C171.787 139.073 159.93 150.355 159.93 164.2C159.93 176.336 168.778 186.25 180.281 188.985V208.3C180.281 226.589 192.668 237.7 217.266 241.118C229.122 242.827 238.148 245.391 245.049 250.006V311.332C228.592 301.247 207.887 294.581 182.05 291.504C142.234 285.693 124.537 271.164 124.537 243.986V233.217C134.978 229.799 142.411 220.398 142.411 209.116C142.411 195.271 130.554 183.819 116.22 183.819C101.886 183.819 90.0298 195.271 90.0298 209.116C90.0298 220.227 97.4622 229.799 107.903 233.217V243.986C107.903 263.814 115.512 279.368 130.731 290.137C142.234 298.512 158.337 303.982 179.75 307.059H179.927C208.595 310.648 229.83 318.511 245.226 330.818V509.629C245.226 509.629 252.022 512.751 261.595 512.751C271.168 512.751 277.964 509.68 277.964 509.68V425.019L277.61 411.345V378.148C291.413 366.354 310.171 358.662 334.946 354.56L347.157 352.851C367.33 349.603 382.726 344.133 393.875 336.1C409.094 325.331 416.703 309.776 416.703 289.949V242.772C426.259 239.183 433.514 229.782 433.514 218.671C433.514 212.005 430.86 205.681 426.082 200.724C421.127 195.938 414.579 193.203 407.501 193.203ZM340.432 170.829C331.407 170.829 323.974 178.008 323.974 186.896C323.974 195.443 331.584 202.793 340.432 202.793C349.457 202.793 356.89 195.785 356.89 186.896C356.89 178.008 349.634 170.829 340.432 170.829ZM169.309 164.2C169.309 172.917 176.742 180.096 185.767 180.096C194.615 180.096 202.224 172.917 202.224 164.2C202.224 155.483 194.792 148.304 185.767 148.304C176.742 148.304 169.309 155.312 169.309 164.2ZM99.4088 208.774C99.4088 217.663 106.841 224.671 115.866 224.671C124.714 224.671 132.324 217.492 132.324 208.774C132.324 200.057 124.891 192.878 115.866 192.878C106.841 192.878 99.4088 199.886 99.4088 208.774ZM238.502 149.994C238.502 161.959 248.588 171.702 260.976 171.702C273.363 171.702 283.45 161.788 283.45 149.823C283.45 137.858 273.363 128.115 260.976 128.115C248.588 128.115 238.502 137.858 238.502 149.994ZM391.043 218.671C391.043 227.389 398.299 234.568 407.501 234.568C416.526 234.568 423.958 227.389 423.958 218.5C423.958 214.398 422.543 210.466 419.357 207.39C416.172 204.484 411.925 202.775 407.501 202.775C398.476 202.775 391.043 209.954 391.043 218.671Z" fill="#FAF8F9"/>
</g>
</g>
<defs>
<clipPath id="clip0_581_3768">
<rect width="2000" height="519.048" fill="white"/>
</clipPath>
<clipPath id="clip1_581_3768">
<rect width="523.81" height="519.048" fill="white"/>
</clipPath>
</defs>
</svg>
