<svg width="1000" height="1000" viewBox="0 0 1000 1000" fill="none" xmlns="http://www.w3.org/2000/svg">
<path d="M440.878 959.66L24.3243 557.308C-8.10811 525.982 -8.10811 474.423 24.3243 443.096L440.878 40.7445C473.311 9.41785 526.689 9.41785 559.122 40.7445L975.676 443.096C1008.11 474.423 1008.11 525.982 975.676 557.308L559.122 959.66C548.778 969.651 536.205 976.455 522.856 980.073C504.837 984.954 485.423 984.037 468.159 977.318C458.096 973.403 448.767 967.516 440.878 959.66Z" fill="#15A04B"/>
<path d="M221.199 433.463C203.97 433.463 189.78 420.084 189.78 403.116C189.78 386.147 203.97 372.768 221.199 372.768C238.429 372.768 252.618 386.473 252.618 403.116C252.618 419.758 238.091 433.463 221.199 433.463Z" fill="#15A04B"/>
<path d="M354.645 348.367C337.416 348.367 323.226 334.661 323.226 318.019C323.226 301.05 337.416 287.671 354.645 287.671C371.875 287.671 386.064 301.377 386.064 318.019C386.064 334.661 371.537 348.367 354.645 348.367Z" fill="#15A04B"/>
<path d="M498.226 332.341C474.578 332.341 455.321 313.74 455.321 290.898C455.321 267.729 474.578 249.129 498.226 249.129C521.875 249.129 541.132 267.729 541.132 290.572C541.132 313.414 521.875 332.341 498.226 332.341Z" fill="#15A04B"/>
<path d="M618.497 361.349C618.497 344.38 632.686 330.675 649.916 330.675C667.483 330.675 681.334 344.38 681.334 361.349C681.334 378.317 667.145 391.696 649.916 391.696C633.024 391.696 618.497 377.664 618.497 361.349Z" fill="#15A04B"/>
<path d="M777.956 452.357C760.389 452.357 746.537 438.652 746.537 422.009C746.537 405.367 760.726 391.662 777.956 391.662C786.402 391.662 794.51 394.925 800.591 400.472C806.672 406.346 809.375 413.851 809.375 421.683C809.375 438.652 795.186 452.357 777.956 452.357Z" fill="#15A04B"/>
<path fill-rule="evenodd" clip-rule="evenodd" d="M777.956 373.388C750.591 373.388 727.956 395.251 727.956 421.683C727.956 442.894 742.483 461.82 763.091 468.02V557.758C763.091 608.664 729.983 636.728 655.659 648.149L630.997 651.738C590.456 658.917 556.335 670.991 529.307 688.286V577.08L529.645 570.519V546.698C543.835 534.624 563.767 527.119 591.132 523.856H591.47C638.429 517.003 662.416 495.466 662.416 460.55V408.012C684.037 402.791 700.591 383.865 700.591 361.022C700.591 334.264 677.956 312.401 650.591 312.401C623.226 312.401 600.591 334.264 600.591 361.349C600.591 384.517 617.821 404.096 640.118 408.665V460.876C640.118 485.024 624.578 497.424 588.091 502.971C564.443 505.582 545.186 511.456 529.983 520.592V342.457C548.226 332.014 560.389 313.088 560.389 291.551C560.389 258.919 533.024 232.161 498.902 232.161C465.118 232.161 437.416 258.593 437.416 291.551C437.416 313.414 449.578 332.341 467.821 342.457V457.357C453.97 450.831 437.416 446.263 417.821 443.978C372.213 437.452 366.47 418.525 366.47 402.536V365.662C388.429 360.767 405.321 341.514 405.321 318.345C405.321 291.913 382.686 270.05 355.321 270.05C327.956 270.05 305.321 291.587 305.321 318.019C305.321 341.188 322.213 360.114 344.172 365.335V402.209C344.172 437.126 367.821 458.336 414.78 464.863C437.416 468.126 454.645 473.021 467.821 481.831V598.907C436.402 579.654 396.875 566.928 347.551 561.054C271.537 549.959 237.753 522.222 237.753 470.338V449.779C257.686 443.253 271.875 425.305 271.875 403.768C271.875 377.336 249.24 355.473 221.875 355.473C194.51 355.473 171.875 377.336 171.875 403.768C171.875 424.979 186.064 443.253 205.997 449.779V470.338C205.997 508.191 220.524 537.886 249.578 558.444C271.537 574.433 302.28 584.876 343.159 590.749H343.497C398.226 597.602 438.767 612.613 468.159 636.108V977.474C468.159 977.474 481.133 983.435 499.409 983.435C517.685 983.435 530.659 977.572 530.659 977.572V815.946L529.983 789.841V726.465C556.335 703.949 592.145 689.265 639.443 681.433L662.753 678.17C701.267 671.97 730.659 661.528 751.943 646.191C780.997 625.633 795.524 595.938 795.524 558.085V468.02C813.767 461.168 827.618 443.22 827.618 422.009C827.618 409.283 822.551 397.209 813.429 387.746C803.97 378.609 791.47 373.388 777.956 373.388ZM649.916 330.675C632.686 330.675 618.497 344.38 618.497 361.349C618.497 377.664 633.024 391.696 649.916 391.696C667.145 391.696 681.334 378.317 681.334 361.349C681.334 344.38 667.483 330.675 649.916 330.675ZM323.226 318.019C323.226 334.661 337.416 348.367 354.645 348.367C371.537 348.367 386.064 334.661 386.064 318.019C386.064 301.377 371.875 287.671 354.645 287.671C337.416 287.671 323.226 301.05 323.226 318.019ZM189.78 403.116C189.78 420.084 203.97 433.463 221.199 433.463C238.091 433.463 252.618 419.758 252.618 403.116C252.618 386.473 238.429 372.768 221.199 372.768C203.97 372.768 189.78 386.147 189.78 403.116ZM455.321 290.898C455.321 313.74 474.578 332.341 498.226 332.341C521.875 332.341 541.132 313.414 541.132 290.572C541.132 267.729 521.875 249.129 498.226 249.129C474.578 249.129 455.321 267.729 455.321 290.898ZM746.537 422.009C746.537 438.652 760.389 452.357 777.956 452.357C795.186 452.357 809.375 438.652 809.375 421.683C809.375 413.851 806.672 406.346 800.591 400.472C794.51 394.925 786.402 391.662 777.956 391.662C760.726 391.662 746.537 405.367 746.537 422.009Z" fill="#FAF8F9"/>
</svg>
