<svg viewBox="0 0 376 376" fill="none" xmlns="http://www.w3.org/2000/svg" style="display: none">
  <symbol id="typescript">
    <path
      d="M165.77 351.243L9.14595 201.284C-3.04865 189.608 -3.04865 170.392 9.14595 158.716L165.77 8.75676C177.965 -2.91892 198.035 -2.91892 210.23 8.75676L366.854 158.716C379.049 170.392 379.049 189.608 366.854 201.284L210.23 351.243C206.341 354.967 201.613 357.503 196.594 358.852C189.819 360.671 182.519 360.329 176.028 357.825C172.244 356.365 168.737 354.172 165.77 351.243Z"
      fill="#39B44D" />
    <g filter="url(#filter0_d_22_14)">
      <path d="M219.787 199.744V185.045H155.565V199.744H178.493V265.192H196.746V199.744H219.787Z" fill="white" />
      <path
        d="M227.063 263.464C230.007 264.954 233.488 266.072 237.507 266.817C241.526 267.562 245.762 267.935 250.215 267.935C254.554 267.935 258.677 267.525 262.583 266.705C266.488 265.886 269.913 264.535 272.856 262.653C275.799 260.771 278.13 258.312 279.847 255.275C281.564 252.238 282.422 248.484 282.422 244.013C282.422 240.771 281.931 237.93 280.95 235.489C279.969 233.048 278.554 230.878 276.705 228.977C274.856 227.077 272.639 225.372 270.054 223.863C267.469 222.354 264.554 220.929 261.309 219.587C258.931 218.618 256.799 217.677 254.913 216.765C253.025 215.852 251.422 214.92 250.101 213.97C248.78 213.02 247.762 212.014 247.045 210.952C246.328 209.89 245.969 208.688 245.969 207.347C245.969 206.117 246.29 205.009 246.932 204.021C247.573 203.034 248.478 202.186 249.648 201.478C250.818 200.77 252.252 200.221 253.95 199.829C255.648 199.438 257.535 199.242 259.611 199.242C261.12 199.242 262.715 199.354 264.394 199.577C266.073 199.802 267.762 200.146 269.46 200.611C271.158 201.077 272.809 201.664 274.413 202.373C276.017 203.081 277.498 203.9 278.856 204.831V188.12C276.101 187.076 273.092 186.303 269.827 185.8C266.564 185.297 262.818 185.045 258.592 185.045C254.29 185.045 250.215 185.502 246.365 186.415C242.516 187.328 239.13 188.753 236.205 190.691C233.28 192.629 230.969 195.097 229.271 198.096C227.573 201.096 226.724 204.683 226.724 208.856C226.724 214.185 228.28 218.731 231.394 222.494C234.507 226.257 239.233 229.443 245.573 232.052C248.064 233.058 250.384 234.045 252.535 235.014C254.686 235.983 256.544 236.989 258.111 238.032C259.677 239.076 260.912 240.212 261.818 241.441C262.724 242.671 263.177 244.068 263.177 245.634C263.177 246.789 262.894 247.86 262.327 248.847C261.761 249.835 260.903 250.692 259.752 251.418C258.601 252.145 257.168 252.714 255.451 253.123C253.734 253.533 251.724 253.738 249.422 253.738C245.497 253.738 241.61 253.058 237.761 251.698C233.913 250.338 230.346 248.298 227.063 245.578V263.464Z"
        fill="white" />
    </g>
    <defs>
      <filter id="filter0_d_22_14" x="155.565" y="185.045" width="134.857" height="90.8896" filterUnits="userSpaceOnUse"
        color-interpolation-filters="sRGB">
        <feFlood flood-opacity="0" result="BackgroundImageFix" />
        <feColorMatrix in="SourceAlpha" type="matrix" values="0 0 0 0 0 0 0 0 0 0 0 0 0 0 0 0 0 0 127 0"
          result="hardAlpha" />
        <feOffset dx="4" dy="4" />
        <feGaussianBlur stdDeviation="2" />
        <feComposite in2="hardAlpha" operator="out" />
        <feColorMatrix type="matrix" values="0 0 0 0 0 0 0 0 0 0 0 0 0 0 0 0 0 0 0.2 0" />
        <feBlend mode="normal" in2="BackgroundImageFix" result="effect1_dropShadow_22_14" />
        <feBlend mode="normal" in="SourceGraphic" in2="effect1_dropShadow_22_14" result="shape" />
      </filter>
    </defs>
  </symbol>
  <symbol id="php">
    <path
      d="M165.77 351.243L9.14595 201.284C-3.04865 189.608 -3.04865 170.392 9.14595 158.716L165.77 8.75676C177.965 -2.91892 198.035 -2.91892 210.23 8.75676L366.854 158.716C379.049 170.392 379.049 189.608 366.854 201.284L210.23 351.243C206.341 354.967 201.613 357.503 196.594 358.852C189.819 360.671 182.519 360.329 176.028 357.825C172.244 356.365 168.737 354.172 165.77 351.243Z"
      fill="#39B44D" />
    <g clip-path="url(#clip0_22_11)">
      <g filter="url(#filter0_d_22_11)">
        <path
          d="M96.2608 148.149H128.61C138.105 148.229 144.985 150.96 149.25 156.339C153.516 161.717 154.924 169.064 153.475 178.378C152.913 182.634 151.664 186.808 149.733 190.903C147.882 194.998 145.308 198.69 142.008 201.983C137.984 206.157 133.679 208.807 129.093 209.932C124.506 211.056 119.757 211.618 114.849 211.618H100.365L95.778 234.5H79L96.2608 148.149ZM110.383 161.879L103.141 198.009C103.624 198.088 104.107 198.129 104.589 198.129C105.152 198.129 105.717 198.129 106.279 198.129C114.004 198.209 120.443 197.447 125.592 195.841C130.741 194.155 134.203 188.295 135.973 178.258C137.421 169.827 135.973 164.969 131.627 163.685C127.362 162.401 122.012 161.799 115.574 161.879C114.608 161.958 113.683 161.999 112.797 161.999C111.993 161.999 111.149 161.999 110.263 161.999L110.383 161.879Z"
          fill="white" />
      </g>
      <g filter="url(#filter1_d_22_11)">
        <path
          d="M172.7 125.5H189.239L184.565 148.471H199.427C207.577 148.632 213.648 150.316 217.644 153.522C221.719 156.728 222.918 162.823 221.24 171.802L213.21 211.851H196.431L204.101 173.606C204.899 169.597 204.66 166.751 203.382 165.067C202.104 163.384 199.348 162.542 195.112 162.542L181.809 162.422L171.981 211.851H155.441L172.7 125.5Z"
          fill="white" />
      </g>
      <g filter="url(#filter2_d_22_11)">
        <path
          d="M239.235 148.149H271.584C281.079 148.229 287.959 150.96 292.224 156.339C296.49 161.717 297.898 169.064 296.449 178.378C295.887 182.634 294.639 186.808 292.707 190.903C290.856 194.998 288.282 198.69 284.982 201.983C280.958 206.157 276.654 208.807 272.067 209.932C267.48 211.056 262.731 211.618 257.824 211.618H243.339L238.752 234.5H221.974L239.235 148.149ZM253.357 161.879L246.115 198.009C246.598 198.088 247.081 198.129 247.564 198.129C248.126 198.129 248.691 198.129 249.253 198.129C256.979 198.209 263.417 197.447 268.566 195.841C273.716 194.155 277.177 188.295 278.947 178.258C280.395 169.827 278.947 164.969 274.602 163.685C270.336 162.401 264.986 161.799 258.548 161.879C257.582 161.958 256.657 161.999 255.772 161.999C254.968 161.999 254.123 161.999 253.237 161.999L253.357 161.879Z"
          fill="white" />
      </g>
    </g>
    <defs>
      <filter id="filter0_d_22_11" x="79" y="148.149" width="83.0259" height="94.3506" filterUnits="userSpaceOnUse"
        color-interpolation-filters="sRGB">
        <feFlood flood-opacity="0" result="BackgroundImageFix" />
        <feColorMatrix in="SourceAlpha" type="matrix" values="0 0 0 0 0 0 0 0 0 0 0 0 0 0 0 0 0 0 127 0"
          result="hardAlpha" />
        <feOffset dx="4" dy="4" />
        <feGaussianBlur stdDeviation="2" />
        <feComposite in2="hardAlpha" operator="out" />
        <feColorMatrix type="matrix" values="0 0 0 0 0 0 0 0 0 0 0 0 0 0 0 0 0 0 0.2 0" />
        <feBlend mode="normal" in2="BackgroundImageFix" result="effect1_dropShadow_22_11" />
        <feBlend mode="normal" in="SourceGraphic" in2="effect1_dropShadow_22_11" result="shape" />
      </filter>
      <filter id="filter1_d_22_11" x="155.441" y="125.5" width="74.5322" height="94.3506" filterUnits="userSpaceOnUse"
        color-interpolation-filters="sRGB">
        <feFlood flood-opacity="0" result="BackgroundImageFix" />
        <feColorMatrix in="SourceAlpha" type="matrix" values="0 0 0 0 0 0 0 0 0 0 0 0 0 0 0 0 0 0 127 0"
          result="hardAlpha" />
        <feOffset dx="4" dy="4" />
        <feGaussianBlur stdDeviation="2" />
        <feComposite in2="hardAlpha" operator="out" />
        <feColorMatrix type="matrix" values="0 0 0 0 0 0 0 0 0 0 0 0 0 0 0 0 0 0 0.2 0" />
        <feBlend mode="normal" in2="BackgroundImageFix" result="effect1_dropShadow_22_11" />
        <feBlend mode="normal" in="SourceGraphic" in2="effect1_dropShadow_22_11" result="shape" />
      </filter>
      <filter id="filter2_d_22_11" x="221.974" y="148.149" width="83.0259" height="94.3506" filterUnits="userSpaceOnUse"
        color-interpolation-filters="sRGB">
        <feFlood flood-opacity="0" result="BackgroundImageFix" />
        <feColorMatrix in="SourceAlpha" type="matrix" values="0 0 0 0 0 0 0 0 0 0 0 0 0 0 0 0 0 0 127 0"
          result="hardAlpha" />
        <feOffset dx="4" dy="4" />
        <feGaussianBlur stdDeviation="2" />
        <feComposite in2="hardAlpha" operator="out" />
        <feColorMatrix type="matrix" values="0 0 0 0 0 0 0 0 0 0 0 0 0 0 0 0 0 0 0.2 0" />
        <feBlend mode="normal" in2="BackgroundImageFix" result="effect1_dropShadow_22_11" />
        <feBlend mode="normal" in="SourceGraphic" in2="effect1_dropShadow_22_11" result="shape" />
      </filter>
      <clipPath id="clip0_22_11">
        <rect width="218" height="218" fill="white" transform="translate(79 71)" />
      </clipPath>
    </defs>
  </symbol>
  <symbol id="nodejs">
    <path
      d="M165.77 351.243L9.14595 201.284C-3.04865 189.608 -3.04865 170.392 9.14595 158.716L165.77 8.75676C177.965 -2.91892 198.035 -2.91892 210.23 8.75676L366.854 158.716C379.049 170.392 379.049 189.608 366.854 201.284L210.23 351.243C206.341 354.967 201.613 357.503 196.594 358.852C189.819 360.671 182.519 360.329 176.028 357.825C172.244 356.365 168.737 354.172 165.77 351.243Z"
      fill="#39B44D" />
    <g filter="url(#filter0_d_22_15)">
      <path
        d="M188.006 277.917C185.448 277.917 183.065 277.232 180.852 276.032L158.202 262.502C154.794 260.618 156.5 259.932 157.521 259.59C162.118 258.048 162.969 257.706 167.736 254.966C168.25 254.623 168.931 254.795 169.438 255.137L186.81 265.585C187.491 265.927 188.339 265.927 188.853 265.585L256.801 226.02C257.478 225.677 257.826 224.992 257.826 224.136V145.178C257.826 144.322 257.478 143.637 256.801 143.294L188.853 103.901C188.172 103.558 187.317 103.558 186.81 103.901L118.862 143.294C118.181 143.637 117.841 144.493 117.841 145.178V224.136C117.841 224.822 118.181 225.677 118.862 226.02L137.422 236.811C147.47 241.948 153.772 235.954 153.772 229.959V152.029C153.772 151.002 154.624 149.974 155.819 149.974H164.505C165.527 149.974 166.548 150.83 166.548 152.029V229.959C166.548 243.49 159.224 251.369 146.448 251.369C142.537 251.369 139.472 251.369 130.783 247.088L112.904 236.811C108.478 234.241 105.75 229.446 105.75 224.307V145.349C105.75 140.211 108.478 135.415 112.904 132.846L180.852 93.2817C185.108 90.8839 190.896 90.8839 195.156 93.2817L263.1 132.846C267.526 135.415 270.25 140.211 270.25 145.349V224.307C270.25 229.446 267.526 234.241 263.1 236.811L195.156 276.375C193.113 277.232 190.555 277.917 188.006 277.917Z"
        fill="white" />
    </g>
    <g filter="url(#filter1_d_22_15)">
      <path
        d="M208.997 223.867C179.24 223.867 173.117 210.176 173.117 198.539C173.117 197.512 173.967 196.485 175.156 196.485H183.999C185.023 196.485 185.869 197.17 185.869 198.197C187.229 207.266 191.142 211.717 209.167 211.717C223.449 211.717 229.571 208.465 229.571 200.764C229.571 196.315 227.864 193.063 205.593 190.838C187.062 188.955 175.496 184.848 175.496 169.959C175.496 156.098 187.062 147.883 206.443 147.883C228.212 147.883 238.92 155.414 240.28 171.843C240.28 172.356 240.114 172.869 239.777 173.383C239.426 173.725 238.92 174.067 238.403 174.067H229.394C228.552 174.067 227.698 173.383 227.528 172.527C225.485 163.114 220.212 160.034 206.273 160.034C190.628 160.034 188.762 165.51 188.762 169.617C188.762 174.58 190.968 176.121 212.053 178.859C232.967 181.596 242.833 185.533 242.833 200.25C242.833 215.31 230.418 223.867 208.997 223.867Z"
        fill="white" />
    </g>
    <defs>
      <filter id="filter0_d_22_15" x="105.75" y="91.4833" width="172.5" height="194.433" filterUnits="userSpaceOnUse"
        color-interpolation-filters="sRGB">
        <feFlood flood-opacity="0" result="BackgroundImageFix" />
        <feColorMatrix in="SourceAlpha" type="matrix" values="0 0 0 0 0 0 0 0 0 0 0 0 0 0 0 0 0 0 127 0"
          result="hardAlpha" />
        <feOffset dx="4" dy="4" />
        <feGaussianBlur stdDeviation="2" />
        <feComposite in2="hardAlpha" operator="out" />
        <feColorMatrix type="matrix" values="0 0 0 0 0 0 0 0 0 0 0 0 0 0 0 0 0 0 0.2 0" />
        <feBlend mode="normal" in2="BackgroundImageFix" result="effect1_dropShadow_22_15" />
        <feBlend mode="normal" in="SourceGraphic" in2="effect1_dropShadow_22_15" result="shape" />
      </filter>
      <filter id="filter1_d_22_15" x="173.117" y="147.883" width="77.7168" height="83.9833" filterUnits="userSpaceOnUse"
        color-interpolation-filters="sRGB">
        <feFlood flood-opacity="0" result="BackgroundImageFix" />
        <feColorMatrix in="SourceAlpha" type="matrix" values="0 0 0 0 0 0 0 0 0 0 0 0 0 0 0 0 0 0 127 0"
          result="hardAlpha" />
        <feOffset dx="4" dy="4" />
        <feGaussianBlur stdDeviation="2" />
        <feComposite in2="hardAlpha" operator="out" />
        <feColorMatrix type="matrix" values="0 0 0 0 0 0 0 0 0 0 0 0 0 0 0 0 0 0 0.2 0" />
        <feBlend mode="normal" in2="BackgroundImageFix" result="effect1_dropShadow_22_15" />
        <feBlend mode="normal" in="SourceGraphic" in2="effect1_dropShadow_22_15" result="shape" />
      </filter>
    </defs>
  </symbol>
  <symbol id="rust">
    <path
      d="M165.77 349.919L9.14595 200.525C-3.04865 188.893 -3.04865 169.75 9.14595 158.118L165.77 8.72375C177.965 -2.90792 198.035 -2.90792 210.23 8.72375L366.854 158.118C379.049 169.75 379.049 188.893 366.854 200.525L210.23 349.919C206.341 353.629 201.613 356.155 196.594 357.499C189.819 359.311 182.519 358.97 176.028 356.476C172.244 355.022 168.737 352.836 165.77 349.919Z"
      fill="#39B44D" />
    <g filter="url(#filter0_d_81_972)">
      <path fill-rule="evenodd" clip-rule="evenodd"
        d="M253.117 154.283C254.452 151.288 257.952 149.92 260.947 151.255C263.942 152.59 265.293 156.106 263.974 159.101C262.64 162.112 259.14 163.463 256.145 162.128C253.134 160.794 251.783 157.294 253.117 154.283ZM183.597 98.3375C185.973 96.0749 189.733 96.1563 191.996 98.5328C194.258 100.909 194.177 104.669 191.801 106.948C189.424 109.211 185.68 109.129 183.401 106.753C181.139 104.36 181.22 100.6 183.597 98.3375ZM261.126 178.373C261.126 180.196 261.061 182.003 260.93 183.81H253.427C252.678 183.81 252.369 184.298 252.369 185.031V188.481C252.369 196.587 247.795 198.362 243.79 198.801C239.981 199.224 235.749 197.206 235.229 194.862C232.982 182.198 229.222 179.496 223.297 174.825C230.655 170.153 238.305 163.268 238.305 154.055C238.305 144.093 231.485 137.826 226.829 134.75C220.302 130.453 213.075 129.59 211.122 129.59H133.528C144.043 117.854 158.302 109.536 174.433 106.509L183.581 116.096C185.648 118.261 189.066 118.342 191.231 116.275L201.469 106.492C222.907 110.48 241.072 123.828 251.522 142.14L244.523 157.961C243.318 160.696 244.555 163.903 247.274 165.123L260.768 171.113C261.012 173.49 261.126 175.915 261.126 178.373ZM171.438 165.97V152.199H196.114C197.384 152.199 205.115 153.68 205.115 159.443C205.115 164.244 199.19 165.954 194.324 165.954L171.438 165.97ZM115.297 170.511L128.091 164.83C130.826 163.61 132.063 160.419 130.842 157.668L128.205 151.711H138.574V198.427H117.674C115.867 192.046 114.89 185.324 114.89 178.373C114.874 175.704 115.02 173.083 115.297 170.511ZM122.264 153.99C123.599 156.985 122.248 160.517 119.236 161.835C116.241 163.17 112.725 161.819 111.407 158.808C110.072 155.796 111.423 152.297 114.434 150.962C117.429 149.627 120.945 150.995 122.264 153.99ZM144.938 245.924C141.731 246.624 138.574 244.573 137.89 241.366C137.206 238.144 139.241 234.986 142.448 234.302C145.654 233.618 148.812 235.653 149.496 238.876C150.179 242.066 148.145 245.24 144.938 245.924ZM227.594 226.912C224.665 226.277 221.783 228.149 221.165 231.079L218.186 244.996C208.989 249.18 198.767 251.491 188.008 251.491C177.004 251.491 166.571 249.049 157.195 244.703L154.216 230.786C153.581 227.856 150.717 226.001 147.787 226.619L135.497 229.256C133.218 226.912 131.102 224.405 129.149 221.769H188.919C189.603 221.769 190.043 221.638 190.043 221.036V199.892C190.043 199.273 189.587 199.159 188.919 199.159H171.438V185.763H190.336C192.061 185.763 199.565 186.251 201.958 195.839C202.706 198.785 204.35 208.372 205.49 211.449C206.613 214.899 211.187 221.769 216.07 221.769H245.841C246.183 221.769 246.541 221.736 246.916 221.655C244.848 224.454 242.586 227.124 240.144 229.598L227.594 226.912ZM230.443 246.217C227.236 245.517 225.202 242.359 225.885 239.153C226.569 235.946 229.727 233.895 232.933 234.595C236.14 235.279 238.191 238.453 237.491 241.659C236.807 244.85 233.65 246.901 230.443 246.217ZM286.649 176.55L278.249 171.358C278.184 170.544 278.103 169.73 278.005 168.916L285.216 162.193C285.949 161.51 286.274 160.501 286.079 159.524C285.884 158.547 285.2 157.733 284.256 157.375L275.027 153.925C274.799 153.127 274.555 152.329 274.31 151.548L280.056 143.556C280.642 142.742 280.756 141.684 280.382 140.756C280.007 139.828 279.161 139.177 278.184 139.015L268.451 137.436C268.076 136.703 267.686 135.971 267.279 135.254L271.364 126.286C271.787 125.374 271.69 124.316 271.136 123.486C270.583 122.656 269.639 122.167 268.63 122.2L258.749 122.542C258.245 121.907 257.724 121.272 257.187 120.654L259.449 111.034C259.677 110.057 259.384 109.032 258.684 108.332C257.984 107.632 256.959 107.339 255.982 107.567L246.362 109.829C245.744 109.308 245.109 108.788 244.474 108.267L244.816 98.3863C244.848 97.3934 244.36 96.433 243.53 95.8796C242.7 95.3262 241.642 95.2448 240.73 95.6517L231.761 99.7373C231.045 99.3467 230.313 98.9397 229.58 98.5654L228.001 88.8315C227.839 87.8386 227.188 87.0084 226.26 86.6341C225.332 86.2434 224.274 86.3736 223.46 86.9596L215.468 92.7218C214.687 92.4776 213.889 92.2335 213.091 92.0056L209.657 82.7438C209.315 81.7997 208.501 81.1161 207.508 80.9207C206.532 80.7254 205.522 81.0509 204.839 81.7834L198.1 89.0106C197.286 88.9129 196.472 88.8315 195.658 88.7664L190.466 80.3673C189.945 79.5209 189.017 79 188.008 79C186.999 79 186.071 79.5209 185.55 80.3673L180.358 88.7664C179.544 88.8315 178.73 88.9129 177.916 89.0106L171.177 81.7834C170.494 81.0509 169.484 80.7254 168.508 80.9207C167.531 81.1161 166.717 81.7997 166.359 82.7438L162.908 91.973C162.111 92.2009 161.313 92.4451 160.532 92.6892L152.54 86.9271C151.726 86.3411 150.668 86.2109 149.74 86.6015C148.812 86.9759 148.161 87.8223 147.998 88.799L146.419 98.5328C145.687 98.9072 144.954 99.2978 144.238 99.7048L135.269 95.6192C134.358 95.1959 133.3 95.2936 132.47 95.847C131.64 96.4005 131.151 97.3446 131.184 98.3538L131.526 108.234C130.891 108.739 130.256 109.26 129.637 109.797L120.018 107.534C119.041 107.306 118.015 107.599 117.315 108.299C116.599 109.015 116.323 110.025 116.55 111.001L118.813 120.621C118.292 121.24 117.771 121.875 117.25 122.509L107.37 122.167C106.377 122.135 105.417 122.623 104.863 123.453C104.31 124.284 104.229 125.342 104.635 126.253L108.721 135.222C108.33 135.938 107.923 136.671 107.549 137.403L97.8152 138.982C96.8223 139.145 95.9922 139.796 95.6178 140.724C95.2434 141.651 95.3574 142.709 95.9433 143.523L101.706 151.516C101.461 152.297 101.217 153.094 100.989 153.892L91.7438 157.359C90.7997 157.701 90.1161 158.515 89.9207 159.508C89.7254 160.484 90.0509 161.494 90.7834 162.177L97.9943 168.9C97.9129 169.714 97.8315 170.527 97.7501 171.341L89.351 176.534C88.5209 177.087 88 178.015 88 179.008C88 180.017 88.5209 180.945 89.3673 181.466L97.7664 186.658C97.8315 187.472 97.9129 188.286 98.0106 189.1L90.7997 195.839C90.0672 196.522 89.7417 197.532 89.937 198.508C90.1323 199.485 90.816 200.299 91.7601 200.657L100.989 204.108C101.217 204.905 101.461 205.703 101.706 206.484L95.9433 214.476C95.3574 215.29 95.2271 216.348 95.6178 217.276C96.0084 218.204 96.8386 218.871 97.8315 219.018L107.549 220.613C107.923 221.345 108.314 222.078 108.721 222.794L104.635 231.763C104.212 232.674 104.31 233.732 104.863 234.562C105.417 235.393 106.377 235.881 107.37 235.848L117.234 235.507C117.755 236.141 118.26 236.776 118.797 237.395L116.534 247.015C116.306 247.991 116.599 249 117.299 249.717C117.999 250.433 119.025 250.71 120.001 250.482L129.621 248.219C130.24 248.756 130.875 249.261 131.509 249.782L131.167 259.662C131.135 260.655 131.623 261.615 132.453 262.169C133.284 262.722 134.342 262.804 135.253 262.397L144.222 258.311C144.938 258.718 145.671 259.109 146.403 259.483L147.982 269.201C148.145 270.194 148.796 271.024 149.724 271.414C150.651 271.805 151.709 271.675 152.523 271.089L160.516 265.327C161.297 265.571 162.094 265.815 162.892 266.059L166.343 275.288C166.685 276.232 167.499 276.916 168.491 277.111C169.468 277.307 170.477 276.981 171.161 276.249L177.9 269.038C178.714 269.136 179.527 269.217 180.341 269.282L185.534 277.681C186.055 278.528 186.982 279.048 187.992 279.048C189.001 279.048 189.929 278.528 190.45 277.681L195.642 269.282C196.456 269.217 197.27 269.136 198.084 269.038L204.822 276.249C205.506 276.981 206.515 277.307 207.492 277.111C208.469 276.916 209.282 276.232 209.641 275.288L213.091 266.059C213.889 265.831 214.687 265.587 215.468 265.327L223.46 271.089C224.274 271.675 225.332 271.789 226.26 271.414C227.188 271.04 227.839 270.194 228.001 269.201L229.58 259.483C230.313 259.109 231.045 258.702 231.761 258.311L240.73 262.397C241.642 262.82 242.7 262.722 243.53 262.169C244.36 261.615 244.848 260.671 244.816 259.662L244.474 249.782C245.109 249.277 245.744 248.756 246.362 248.219L255.982 250.482C256.959 250.71 257.984 250.433 258.684 249.717C259.4 249 259.677 247.991 259.449 247.015L257.187 237.395C257.708 236.776 258.228 236.141 258.749 235.507L268.63 235.848C269.623 235.881 270.583 235.393 271.136 234.562C271.69 233.732 271.787 232.674 271.364 231.763L267.279 222.794C267.686 222.061 268.076 221.345 268.451 220.613L278.184 219.034C279.177 218.871 280.007 218.22 280.382 217.292C280.772 216.364 280.642 215.306 280.056 214.493L274.294 206.5C274.538 205.703 274.782 204.921 275.01 204.124L284.24 200.673C285.184 200.315 285.867 199.517 286.063 198.524C286.258 197.548 285.932 196.539 285.2 195.855L277.989 189.116C278.07 188.302 278.152 187.488 278.233 186.675L286.632 181.482C287.479 180.961 288 180.033 288 179.024C288.016 178.015 287.495 177.087 286.649 176.55Z"
        fill="#F9F9F9" />
    </g>
    <defs>
      <filter id="filter0_d_81_972" x="88" y="79" width="208" height="208.048" filterUnits="userSpaceOnUse"
        color-interpolation-filters="sRGB">
        <feFlood flood-opacity="0" result="BackgroundImageFix" />
        <feColorMatrix in="SourceAlpha" type="matrix" values="0 0 0 0 0 0 0 0 0 0 0 0 0 0 0 0 0 0 127 0"
          result="hardAlpha" />
        <feOffset dx="4" dy="4" />
        <feGaussianBlur stdDeviation="2" />
        <feComposite in2="hardAlpha" operator="out" />
        <feColorMatrix type="matrix" values="0 0 0 0 0 0 0 0 0 0 0 0 0 0 0 0 0 0 0.2 0" />
        <feBlend mode="normal" in2="BackgroundImageFix" result="effect1_dropShadow_81_972" />
        <feBlend mode="normal" in="SourceGraphic" in2="effect1_dropShadow_81_972" result="shape" />
      </filter>
    </defs>
  </symbol>

  <symbol id="java">
    <path d="M165.77 349.919L9.14595 200.525C-3.04865 188.893 -3.04865 169.75 9.14595 158.118L165.77 8.72375C177.965 -2.90792 198.035 -2.90792 210.23 8.72375L366.854 158.118C379.049 169.75 379.049 188.893 366.854 200.525L210.23 349.919C206.341 353.629 201.613 356.155 196.594 357.499C189.819 359.311 182.519 358.97 176.028 356.476C172.244 355.022 168.737 352.836 165.77 349.919Z" fill="#39B44D"/>
    <g clip-path="url(#clip0_1161_11593)">
      <g filter="url(#filter0_d_1161_11593)">
        <path fill-rule="evenodd" clip-rule="evenodd" d="M159.6 223.321C159.6 223.321 151.349 228.122 165.479 229.744C182.602 231.7 191.348 231.418 210.211 227.85C210.211 227.85 215.177 230.959 222.109 233.65C179.811 251.774 126.382 232.601 159.6 223.321ZM154.43 199.669C154.43 199.669 145.173 206.521 159.315 207.983C177.607 209.872 192.045 210.026 217.044 205.216C217.044 205.216 220.496 208.72 225.928 210.634C174.795 225.59 117.845 211.811 154.43 199.669Z" fill="white"/>
        <path fill-rule="evenodd" clip-rule="evenodd" d="M197.999 159.543C208.426 171.546 195.266 182.34 195.266 182.34C195.266 182.34 221.73 168.682 209.575 151.572C198.227 135.623 189.522 127.699 236.641 100.375C236.641 100.375 162.677 118.84 197.999 159.543Z" fill="white" />
        <path fill-rule="evenodd" clip-rule="evenodd" d="M253.939 240.817C253.939 240.817 260.047 245.853 247.211 249.747C222.803 257.14 145.604 259.37 124.16 250.041C116.457 246.686 130.909 242.035 135.456 241.053C140.198 240.028 142.905 240.214 142.905 240.214C134.332 234.178 87.4966 252.07 119.118 257.203C205.345 271.184 276.303 250.909 253.939 240.817ZM163.571 175.161C163.571 175.161 124.307 184.489 149.668 187.88C160.381 189.312 181.719 188.982 201.61 187.314C217.862 185.95 234.175 183.032 234.175 183.032C234.175 183.032 228.449 185.489 224.3 188.317C184.421 198.807 107.396 193.922 129.572 183.199C148.323 174.128 163.571 175.161 163.571 175.161ZM234.012 214.53C274.546 193.472 255.805 173.23 242.72 175.958C239.521 176.627 238.086 177.204 238.086 177.204C238.086 177.204 239.279 175.336 241.548 174.533C267.429 165.438 287.33 201.366 233.204 215.595C233.202 215.595 233.825 215.032 234.012 214.53Z" fill="white"/>
        <path fill-rule="evenodd" clip-rule="evenodd" d="M209.575 56.2419C209.575 56.2419 232.018 78.7002 188.281 113.224C153.206 140.928 180.284 156.719 188.271 174.768C167.793 156.296 152.772 140.031 162.848 124.898C177.641 102.684 218.631 91.9106 209.575 56.2419Z" fill="white" />
        <path fill-rule="evenodd" clip-rule="evenodd" d="M167.557 271.612C206.459 274.1 266.21 270.23 267.627 251.819C267.627 251.819 264.907 258.798 235.473 264.334C202.265 270.585 161.301 269.858 137.013 265.848C137.013 265.848 141.99 269.967 167.557 271.612Z" fill="white"/>
      </g>
    </g>
    <defs>
      <filter id="filter0_d_1161_11593" x="108.288" y="56.2419" width="167.34" height="224.048" filterUnits="userSpaceOnUse" color-interpolation-filters="sRGB">
        <feFlood flood-opacity="0" result="BackgroundImageFix"/>
        <feColorMatrix in="SourceAlpha" type="matrix" values="0 0 0 0 0 0 0 0 0 0 0 0 0 0 0 0 0 0 127 0" result="hardAlpha"/>
        <feOffset dx="4" dy="4"/>
        <feGaussianBlur stdDeviation="2"/>
        <feComposite in2="hardAlpha" operator="out"/>
        <feColorMatrix type="matrix" values="0 0 0 0 0 0 0 0 0 0 0 0 0 0 0 0 0 0 0.2 0"/>
        <feBlend mode="normal" in2="BackgroundImageFix" result="effect1_dropShadow_1161_11593"/>
        <feBlend mode="normal" in="SourceGraphic" in2="effect1_dropShadow_1161_11593" result="shape"/>
      </filter>
      <clipPath id="clip0_1161_11593">
        <rect width="168" height="225" fill="white" transform="translate(108 56)"/>
      </clipPath>
    </defs>
  </symbol>

  <symbol id="front-in-maringa">
    <path
      d="M165.77 351.243L9.14595 201.284C-3.04865 189.608 -3.04865 170.392 9.14595 158.716L165.77 8.75676C177.965 -2.91892 198.035 -2.91892 210.23 8.75676L366.854 158.716C379.049 170.392 379.049 189.608 366.854 201.284L210.23 351.243C206.341 354.967 201.613 357.503 196.594 358.852C189.819 360.671 182.519 360.329 176.028 357.825C172.244 356.365 168.737 354.172 165.77 351.243Z"
      fill="#39B44D" />
    <g clip-path="url(#clip0_30_41)">
      <g filter="url(#filter0_d_30_41)">
        <path
          d="M122.256 249.729L132.237 200.42L139.779 209.568L142.441 204.213L151.313 214.031L190.131 77.4832L228.505 214.031L238.487 204.213L241.148 209.568L248.912 200.42L259.337 249.729H251.352C207.478 270.532 181.292 272.09 130.685 249.729H122.256Z"
          fill="white" />
      </g>
    </g>
    <defs>
      <filter id="filter0_d_30_41" x="122.256" y="77.4832" width="153.081" height="204.438" filterUnits="userSpaceOnUse"
        color-interpolation-filters="sRGB">
        <feFlood flood-opacity="0" result="BackgroundImageFix" />
        <feColorMatrix in="SourceAlpha" type="matrix" values="0 0 0 0 0 0 0 0 0 0 0 0 0 0 0 0 0 0 127 0"
          result="hardAlpha" />
        <feOffset dx="8" dy="8" />
        <feGaussianBlur stdDeviation="4" />
        <feComposite in2="hardAlpha" operator="out" />
        <feColorMatrix type="matrix" values="0 0 0 0 0 0 0 0 0 0 0 0 0 0 0 0 0 0 0.2 0" />
        <feBlend mode="normal" in2="BackgroundImageFix" result="effect1_dropShadow_30_41" />
        <feBlend mode="normal" in="SourceGraphic" in2="effect1_dropShadow_30_41" result="shape" />
      </filter>
      <clipPath id="clip0_30_41">
        <rect width="154" height="205" fill="white" transform="translate(122 77)" />
      </clipPath>
    </defs>
  </symbol>
</svg>