<svg viewBox="0 0 376 376" fill="none" xmlns="http://www.w3.org/2000/svg" style="display: none">
  <symbol id="typescript">
      <path
        d="M165.77 351.243L9.14595 201.284C-3.04865 189.608 -3.04865 170.392 9.14595 158.716L165.77 8.75676C177.965 -2.91892 198.035 -2.91892 210.23 8.75676L366.854 158.716C379.049 170.392 379.049 189.608 366.854 201.284L210.23 351.243C206.341 354.967 201.613 357.503 196.594 358.852C189.819 360.671 182.519 360.329 176.028 357.825C172.244 356.365 168.737 354.172 165.77 351.243Z"
        fill="#39B44D" />
      <g filter="url(#filter0_d_22_14)">
        <path d="M219.787 199.744V185.045H155.565V199.744H178.493V265.192H196.746V199.744H219.787Z" fill="white" />
        <path
          d="M227.063 263.464C230.007 264.954 233.488 266.072 237.507 266.817C241.526 267.562 245.762 267.935 250.215 267.935C254.554 267.935 258.677 267.525 262.583 266.705C266.488 265.886 269.913 264.535 272.856 262.653C275.799 260.771 278.13 258.312 279.847 255.275C281.564 252.238 282.422 248.484 282.422 244.013C282.422 240.771 281.931 237.93 280.95 235.489C279.969 233.048 278.554 230.878 276.705 228.977C274.856 227.077 272.639 225.372 270.054 223.863C267.469 222.354 264.554 220.929 261.309 219.587C258.931 218.618 256.799 217.677 254.913 216.765C253.025 215.852 251.422 214.92 250.101 213.97C248.78 213.02 247.762 212.014 247.045 210.952C246.328 209.89 245.969 208.688 245.969 207.347C245.969 206.117 246.29 205.009 246.932 204.021C247.573 203.034 248.478 202.186 249.648 201.478C250.818 200.77 252.252 200.221 253.95 199.829C255.648 199.438 257.535 199.242 259.611 199.242C261.12 199.242 262.715 199.354 264.394 199.577C266.073 199.802 267.762 200.146 269.46 200.611C271.158 201.077 272.809 201.664 274.413 202.373C276.017 203.081 277.498 203.9 278.856 204.831V188.12C276.101 187.076 273.092 186.303 269.827 185.8C266.564 185.297 262.818 185.045 258.592 185.045C254.29 185.045 250.215 185.502 246.365 186.415C242.516 187.328 239.13 188.753 236.205 190.691C233.28 192.629 230.969 195.097 229.271 198.096C227.573 201.096 226.724 204.683 226.724 208.856C226.724 214.185 228.28 218.731 231.394 222.494C234.507 226.257 239.233 229.443 245.573 232.052C248.064 233.058 250.384 234.045 252.535 235.014C254.686 235.983 256.544 236.989 258.111 238.032C259.677 239.076 260.912 240.212 261.818 241.441C262.724 242.671 263.177 244.068 263.177 245.634C263.177 246.789 262.894 247.86 262.327 248.847C261.761 249.835 260.903 250.692 259.752 251.418C258.601 252.145 257.168 252.714 255.451 253.123C253.734 253.533 251.724 253.738 249.422 253.738C245.497 253.738 241.61 253.058 237.761 251.698C233.913 250.338 230.346 248.298 227.063 245.578V263.464Z"
          fill="white" />
      </g>
      <defs>
        <filter id="filter0_d_22_14" x="155.565" y="185.045" width="134.857" height="90.8896"
          filterUnits="userSpaceOnUse" color-interpolation-filters="sRGB">
          <feFlood flood-opacity="0" result="BackgroundImageFix" />
          <feColorMatrix in="SourceAlpha" type="matrix" values="0 0 0 0 0 0 0 0 0 0 0 0 0 0 0 0 0 0 127 0"
            result="hardAlpha" />
          <feOffset dx="4" dy="4" />
          <feGaussianBlur stdDeviation="2" />
          <feComposite in2="hardAlpha" operator="out" />
          <feColorMatrix type="matrix" values="0 0 0 0 0 0 0 0 0 0 0 0 0 0 0 0 0 0 0.2 0" />
          <feBlend mode="normal" in2="BackgroundImageFix" result="effect1_dropShadow_22_14" />
          <feBlend mode="normal" in="SourceGraphic" in2="effect1_dropShadow_22_14" result="shape" />
        </filter>
      </defs>
  </symbol>
  <symbol id="php">
      <path
        d="M165.77 351.243L9.14595 201.284C-3.04865 189.608 -3.04865 170.392 9.14595 158.716L165.77 8.75676C177.965 -2.91892 198.035 -2.91892 210.23 8.75676L366.854 158.716C379.049 170.392 379.049 189.608 366.854 201.284L210.23 351.243C206.341 354.967 201.613 357.503 196.594 358.852C189.819 360.671 182.519 360.329 176.028 357.825C172.244 356.365 168.737 354.172 165.77 351.243Z"
        fill="#39B44D" />
      <g clip-path="url(#clip0_22_11)">
        <g filter="url(#filter0_d_22_11)">
          <path
            d="M96.2608 148.149H128.61C138.105 148.229 144.985 150.96 149.25 156.339C153.516 161.717 154.924 169.064 153.475 178.378C152.913 182.634 151.664 186.808 149.733 190.903C147.882 194.998 145.308 198.69 142.008 201.983C137.984 206.157 133.679 208.807 129.093 209.932C124.506 211.056 119.757 211.618 114.849 211.618H100.365L95.778 234.5H79L96.2608 148.149ZM110.383 161.879L103.141 198.009C103.624 198.088 104.107 198.129 104.589 198.129C105.152 198.129 105.717 198.129 106.279 198.129C114.004 198.209 120.443 197.447 125.592 195.841C130.741 194.155 134.203 188.295 135.973 178.258C137.421 169.827 135.973 164.969 131.627 163.685C127.362 162.401 122.012 161.799 115.574 161.879C114.608 161.958 113.683 161.999 112.797 161.999C111.993 161.999 111.149 161.999 110.263 161.999L110.383 161.879Z"
            fill="white" />
        </g>
        <g filter="url(#filter1_d_22_11)">
          <path
            d="M172.7 125.5H189.239L184.565 148.471H199.427C207.577 148.632 213.648 150.316 217.644 153.522C221.719 156.728 222.918 162.823 221.24 171.802L213.21 211.851H196.431L204.101 173.606C204.899 169.597 204.66 166.751 203.382 165.067C202.104 163.384 199.348 162.542 195.112 162.542L181.809 162.422L171.981 211.851H155.441L172.7 125.5Z"
            fill="white" />
        </g>
        <g filter="url(#filter2_d_22_11)">
          <path
            d="M239.235 148.149H271.584C281.079 148.229 287.959 150.96 292.224 156.339C296.49 161.717 297.898 169.064 296.449 178.378C295.887 182.634 294.639 186.808 292.707 190.903C290.856 194.998 288.282 198.69 284.982 201.983C280.958 206.157 276.654 208.807 272.067 209.932C267.48 211.056 262.731 211.618 257.824 211.618H243.339L238.752 234.5H221.974L239.235 148.149ZM253.357 161.879L246.115 198.009C246.598 198.088 247.081 198.129 247.564 198.129C248.126 198.129 248.691 198.129 249.253 198.129C256.979 198.209 263.417 197.447 268.566 195.841C273.716 194.155 277.177 188.295 278.947 178.258C280.395 169.827 278.947 164.969 274.602 163.685C270.336 162.401 264.986 161.799 258.548 161.879C257.582 161.958 256.657 161.999 255.772 161.999C254.968 161.999 254.123 161.999 253.237 161.999L253.357 161.879Z"
            fill="white" />
        </g>
      </g>
      <defs>
        <filter id="filter0_d_22_11" x="79" y="148.149" width="83.0259" height="94.3506" filterUnits="userSpaceOnUse"
          color-interpolation-filters="sRGB">
          <feFlood flood-opacity="0" result="BackgroundImageFix" />
          <feColorMatrix in="SourceAlpha" type="matrix" values="0 0 0 0 0 0 0 0 0 0 0 0 0 0 0 0 0 0 127 0"
            result="hardAlpha" />
          <feOffset dx="4" dy="4" />
          <feGaussianBlur stdDeviation="2" />
          <feComposite in2="hardAlpha" operator="out" />
          <feColorMatrix type="matrix" values="0 0 0 0 0 0 0 0 0 0 0 0 0 0 0 0 0 0 0.2 0" />
          <feBlend mode="normal" in2="BackgroundImageFix" result="effect1_dropShadow_22_11" />
          <feBlend mode="normal" in="SourceGraphic" in2="effect1_dropShadow_22_11" result="shape" />
        </filter>
        <filter id="filter1_d_22_11" x="155.441" y="125.5" width="74.5322" height="94.3506" filterUnits="userSpaceOnUse"
          color-interpolation-filters="sRGB">
          <feFlood flood-opacity="0" result="BackgroundImageFix" />
          <feColorMatrix in="SourceAlpha" type="matrix" values="0 0 0 0 0 0 0 0 0 0 0 0 0 0 0 0 0 0 127 0"
            result="hardAlpha" />
          <feOffset dx="4" dy="4" />
          <feGaussianBlur stdDeviation="2" />
          <feComposite in2="hardAlpha" operator="out" />
          <feColorMatrix type="matrix" values="0 0 0 0 0 0 0 0 0 0 0 0 0 0 0 0 0 0 0.2 0" />
          <feBlend mode="normal" in2="BackgroundImageFix" result="effect1_dropShadow_22_11" />
          <feBlend mode="normal" in="SourceGraphic" in2="effect1_dropShadow_22_11" result="shape" />
        </filter>
        <filter id="filter2_d_22_11" x="221.974" y="148.149" width="83.0259" height="94.3506"
          filterUnits="userSpaceOnUse" color-interpolation-filters="sRGB">
          <feFlood flood-opacity="0" result="BackgroundImageFix" />
          <feColorMatrix in="SourceAlpha" type="matrix" values="0 0 0 0 0 0 0 0 0 0 0 0 0 0 0 0 0 0 127 0"
            result="hardAlpha" />
          <feOffset dx="4" dy="4" />
          <feGaussianBlur stdDeviation="2" />
          <feComposite in2="hardAlpha" operator="out" />
          <feColorMatrix type="matrix" values="0 0 0 0 0 0 0 0 0 0 0 0 0 0 0 0 0 0 0.2 0" />
          <feBlend mode="normal" in2="BackgroundImageFix" result="effect1_dropShadow_22_11" />
          <feBlend mode="normal" in="SourceGraphic" in2="effect1_dropShadow_22_11" result="shape" />
        </filter>
        <clipPath id="clip0_22_11">
          <rect width="218" height="218" fill="white" transform="translate(79 71)" />
        </clipPath>
      </defs>
  </symbol>
  <symbol id="nodejs">
    <path
      d="M165.77 351.243L9.14595 201.284C-3.04865 189.608 -3.04865 170.392 9.14595 158.716L165.77 8.75676C177.965 -2.91892 198.035 -2.91892 210.23 8.75676L366.854 158.716C379.049 170.392 379.049 189.608 366.854 201.284L210.23 351.243C206.341 354.967 201.613 357.503 196.594 358.852C189.819 360.671 182.519 360.329 176.028 357.825C172.244 356.365 168.737 354.172 165.77 351.243Z"
      fill="#39B44D" />
    <g filter="url(#filter0_d_22_15)">
      <path
        d="M188.006 277.917C185.448 277.917 183.065 277.232 180.852 276.032L158.202 262.502C154.794 260.618 156.5 259.932 157.521 259.59C162.118 258.048 162.969 257.706 167.736 254.966C168.25 254.623 168.931 254.795 169.438 255.137L186.81 265.585C187.491 265.927 188.339 265.927 188.853 265.585L256.801 226.02C257.478 225.677 257.826 224.992 257.826 224.136V145.178C257.826 144.322 257.478 143.637 256.801 143.294L188.853 103.901C188.172 103.558 187.317 103.558 186.81 103.901L118.862 143.294C118.181 143.637 117.841 144.493 117.841 145.178V224.136C117.841 224.822 118.181 225.677 118.862 226.02L137.422 236.811C147.47 241.948 153.772 235.954 153.772 229.959V152.029C153.772 151.002 154.624 149.974 155.819 149.974H164.505C165.527 149.974 166.548 150.83 166.548 152.029V229.959C166.548 243.49 159.224 251.369 146.448 251.369C142.537 251.369 139.472 251.369 130.783 247.088L112.904 236.811C108.478 234.241 105.75 229.446 105.75 224.307V145.349C105.75 140.211 108.478 135.415 112.904 132.846L180.852 93.2817C185.108 90.8839 190.896 90.8839 195.156 93.2817L263.1 132.846C267.526 135.415 270.25 140.211 270.25 145.349V224.307C270.25 229.446 267.526 234.241 263.1 236.811L195.156 276.375C193.113 277.232 190.555 277.917 188.006 277.917Z"
        fill="white" />
    </g>
    <g filter="url(#filter1_d_22_15)">
      <path
        d="M208.997 223.867C179.24 223.867 173.117 210.176 173.117 198.539C173.117 197.512 173.967 196.485 175.156 196.485H183.999C185.023 196.485 185.869 197.17 185.869 198.197C187.229 207.266 191.142 211.717 209.167 211.717C223.449 211.717 229.571 208.465 229.571 200.764C229.571 196.315 227.864 193.063 205.593 190.838C187.062 188.955 175.496 184.848 175.496 169.959C175.496 156.098 187.062 147.883 206.443 147.883C228.212 147.883 238.92 155.414 240.28 171.843C240.28 172.356 240.114 172.869 239.777 173.383C239.426 173.725 238.92 174.067 238.403 174.067H229.394C228.552 174.067 227.698 173.383 227.528 172.527C225.485 163.114 220.212 160.034 206.273 160.034C190.628 160.034 188.762 165.51 188.762 169.617C188.762 174.58 190.968 176.121 212.053 178.859C232.967 181.596 242.833 185.533 242.833 200.25C242.833 215.31 230.418 223.867 208.997 223.867Z"
        fill="white" />
    </g>
    <defs>
      <filter id="filter0_d_22_15" x="105.75" y="91.4833" width="172.5" height="194.433" filterUnits="userSpaceOnUse"
        color-interpolation-filters="sRGB">
        <feFlood flood-opacity="0" result="BackgroundImageFix" />
        <feColorMatrix in="SourceAlpha" type="matrix" values="0 0 0 0 0 0 0 0 0 0 0 0 0 0 0 0 0 0 127 0"
          result="hardAlpha" />
        <feOffset dx="4" dy="4" />
        <feGaussianBlur stdDeviation="2" />
        <feComposite in2="hardAlpha" operator="out" />
        <feColorMatrix type="matrix" values="0 0 0 0 0 0 0 0 0 0 0 0 0 0 0 0 0 0 0.2 0" />
        <feBlend mode="normal" in2="BackgroundImageFix" result="effect1_dropShadow_22_15" />
        <feBlend mode="normal" in="SourceGraphic" in2="effect1_dropShadow_22_15" result="shape" />
      </filter>
      <filter id="filter1_d_22_15" x="173.117" y="147.883" width="77.7168" height="83.9833" filterUnits="userSpaceOnUse"
        color-interpolation-filters="sRGB">
        <feFlood flood-opacity="0" result="BackgroundImageFix" />
        <feColorMatrix in="SourceAlpha" type="matrix" values="0 0 0 0 0 0 0 0 0 0 0 0 0 0 0 0 0 0 127 0"
          result="hardAlpha" />
        <feOffset dx="4" dy="4" />
        <feGaussianBlur stdDeviation="2" />
        <feComposite in2="hardAlpha" operator="out" />
        <feColorMatrix type="matrix" values="0 0 0 0 0 0 0 0 0 0 0 0 0 0 0 0 0 0 0.2 0" />
        <feBlend mode="normal" in2="BackgroundImageFix" result="effect1_dropShadow_22_15" />
        <feBlend mode="normal" in="SourceGraphic" in2="effect1_dropShadow_22_15" result="shape" />
      </filter>
    </defs>
  </symbol>
  <symbol id="front-in-maringa">
    <path
      d="M165.77 351.243L9.14595 201.284C-3.04865 189.608 -3.04865 170.392 9.14595 158.716L165.77 8.75676C177.965 -2.91892 198.035 -2.91892 210.23 8.75676L366.854 158.716C379.049 170.392 379.049 189.608 366.854 201.284L210.23 351.243C206.341 354.967 201.613 357.503 196.594 358.852C189.819 360.671 182.519 360.329 176.028 357.825C172.244 356.365 168.737 354.172 165.77 351.243Z"
      fill="#39B44D" />
    <g clip-path="url(#clip0_30_41)">
      <g filter="url(#filter0_d_30_41)">
        <path
          d="M122.256 249.729L132.237 200.42L139.779 209.568L142.441 204.213L151.313 214.031L190.131 77.4832L228.505 214.031L238.487 204.213L241.148 209.568L248.912 200.42L259.337 249.729H251.352C207.478 270.532 181.292 272.09 130.685 249.729H122.256Z"
          fill="white" />
      </g>
    </g>
    <defs>
      <filter id="filter0_d_30_41" x="122.256" y="77.4832" width="153.081" height="204.438" filterUnits="userSpaceOnUse"
        color-interpolation-filters="sRGB">
        <feFlood flood-opacity="0" result="BackgroundImageFix" />
        <feColorMatrix in="SourceAlpha" type="matrix" values="0 0 0 0 0 0 0 0 0 0 0 0 0 0 0 0 0 0 127 0"
          result="hardAlpha" />
        <feOffset dx="8" dy="8" />
        <feGaussianBlur stdDeviation="4" />
        <feComposite in2="hardAlpha" operator="out" />
        <feColorMatrix type="matrix" values="0 0 0 0 0 0 0 0 0 0 0 0 0 0 0 0 0 0 0.2 0" />
        <feBlend mode="normal" in2="BackgroundImageFix" result="effect1_dropShadow_30_41" />
        <feBlend mode="normal" in="SourceGraphic" in2="effect1_dropShadow_30_41" result="shape" />
      </filter>
      <clipPath id="clip0_30_41">
        <rect width="154" height="205" fill="white" transform="translate(122 77)" />
      </clipPath>
    </defs>
  </symbol>
</svg>