<svg viewBox="0 0 900 189" fill="none" xmlns="http://www.w3.org/2000/svg">
  <path d="M410.499 48.8979V0.379761H379.772V188.821H410.499V79.6252H441.105L458.726 48.8979H410.499Z" fill="white"/>
  <path d="M830.075 48.8979C815.513 48.8979 801.994 53.3395 790.804 60.9364V0.379761H760.077V188.821H790.804V120.158C790.804 98.5567 807.697 80.0135 829.299 79.6252C851.313 79.2126 869.273 96.9306 869.273 118.847V188.797H900.001V120.716C900.001 82.2465 868.545 48.9221 830.075 48.8979Z" fill="white"/>
  <path d="M286.74 48.8978C248.1 48.8978 216.766 80.2319 216.766 118.872C216.766 157.511 248.1 188.846 286.74 188.846C325.38 188.846 356.714 157.511 356.714 118.872C356.714 80.2319 325.404 48.8978 286.74 48.8978ZM291.861 157.778C266.182 161.006 244.605 139.429 247.833 113.75C250.042 96.2752 264.168 82.1494 281.643 79.9407C307.298 76.7126 328.899 98.2897 325.671 123.969C323.462 141.444 309.336 155.57 291.861 157.778Z" fill="white"/>
  <path d="M138.249 103.484C131.259 72.2224 103.347 48.8735 69.9738 48.8735C31.3584 48.8735 0 80.2076 0 118.847C0 157.487 31.3341 188.821 69.9738 188.821H104.051L121.671 158.094H69.9738C48.2997 158.094 30.7516 140.522 30.7516 118.872C30.7516 108.047 35.1447 98.2169 42.2319 91.1297C49.3433 84.0182 59.1489 79.6251 69.9738 79.6251C86.187 79.6251 100.094 89.4792 106.114 103.508C106.381 104.139 106.575 104.794 106.818 105.425H69.9738C66.2603 105.425 62.8867 106.93 60.4595 109.382C58.0567 111.833 56.5276 115.182 56.5276 118.872C56.5276 126.299 62.5226 132.318 69.9738 132.318H138.637C139.487 127.949 139.948 123.459 139.948 118.872C139.948 113.556 139.365 108.411 138.249 103.484Z" fill="white"/>
  <path d="M596.974 103.484C589.984 72.2224 562.072 48.8735 528.699 48.8735C490.084 48.8735 458.726 80.1834 458.726 118.847C458.726 157.487 490.06 188.821 528.699 188.821H562.776L580.397 158.094H528.675C507.001 158.094 489.453 140.522 489.453 118.872C489.453 108.047 493.846 98.2169 500.933 91.1297C508.045 84.0182 517.85 79.6251 528.675 79.6251C544.888 79.6251 558.796 89.4792 564.815 103.508C565.082 104.139 565.276 104.794 565.519 105.425H528.675C524.962 105.425 521.588 106.93 519.161 109.382C516.758 111.833 515.229 115.182 515.229 118.872C515.229 126.299 521.248 132.318 528.675 132.318H597.338C598.188 127.949 598.673 123.459 598.673 118.872C598.673 113.556 598.091 108.411 596.974 103.484Z" fill="white"/>
  <path d="M652.459 118.872C652.459 97.1975 670.055 79.6252 691.705 79.6252H719.374L736.995 48.8978H691.705C653.041 48.8978 621.731 80.2077 621.731 118.872C621.731 157.487 653.041 188.821 691.705 188.821H719.374L736.995 158.094H691.705C670.031 158.094 652.459 140.546 652.459 118.872Z" fill="white"/>
  <path d="M193.733 0.379761H163.006V188.821H193.733V0.379761Z" fill="white"/>
</svg>
