<svg width="900" height="355" viewBox="0 0 900 355" fill="none" xmlns="http://www.w3.org/2000/svg">
<path fill-rule="evenodd" clip-rule="evenodd" d="M708.886 199.2H668.724V187.224H709.635C742.071 187.224 764.026 170.256 764.026 144.308V143.808C764.026 116.112 742.571 101.642 711.134 101.642H621.729V264.324H608.755V89.6638H712.129C750.553 89.6638 777 109.374 777 143.06V143.559C777 180.238 745.315 199.2 708.886 199.2ZM538.696 219.545H553.207L581.177 264.908H566.957L538.696 219.545ZM466.229 103.224L365.833 264.908H352.362L460.24 89H472.716L533.279 187.227H518.562L466.229 103.224ZM308.994 90.3376H321.967V264.997H308.994V90.3376ZM135.974 265H123V90.3376H270.491V102.316H135.974V265ZM234.773 185.902H171.445V173.926H234.773V185.902Z" fill="#ED145B"/>
</svg>
