<svg viewBox="0 0 900 355" fill="none" xmlns="http://www.w3.org/2000/svg">
  <path d="M137.214 119.299C129.076 119.299 121.739 120.764 115.399 123.647C109.487 126.336 103.665 130.814 98.0697 136.952C90.045 125.242 78.4169 119.307 63.4768 119.307C54.2617 119.307 46.8443 121.323 41.4189 125.291C37.4105 128.222 34.0743 131.194 31.4588 134.166L30.8434 122.028H0.566406V252.545H32.1309V181.974C32.1309 172.873 34.463 165.083 39.0624 158.815C43.6295 152.596 49.5327 149.568 57.1201 149.568C63.08 149.568 67.647 151.624 71.0642 155.868C74.5057 160.135 76.2548 166.168 76.2548 173.804V252.545H107.819V181.974C107.819 172.873 110.151 165.083 114.751 158.815C119.318 152.596 125.221 149.568 132.809 149.568C138.768 149.568 143.335 151.624 146.753 155.868C150.194 160.135 151.943 166.168 151.943 173.804V252.545H183.508V173.529C183.508 157.123 179.499 143.859 171.604 134.117C163.636 124.287 152.057 119.307 137.206 119.307L137.214 119.299Z" fill="white"/>
  <path d="M358.878 134.109C350.91 124.279 339.33 119.299 324.479 119.299C316.341 119.299 309.005 120.764 302.664 123.647C296.753 126.336 290.931 130.806 285.335 136.952C277.311 125.242 265.683 119.307 250.742 119.307C241.535 119.307 234.11 121.323 228.684 125.291C224.676 128.222 221.34 131.202 218.724 134.166L218.109 122.028H187.832V252.545H219.397V181.974C219.397 172.873 221.729 165.083 226.328 158.815C230.895 152.596 236.798 149.568 244.386 149.568C250.346 149.568 254.913 151.624 258.33 155.868C261.771 160.135 263.52 166.168 263.52 173.804V252.545H295.085V181.974C295.085 172.873 297.417 165.083 302.016 158.815C306.583 152.596 312.487 149.568 320.074 149.568C326.034 149.568 330.601 151.624 334.018 155.868C337.46 160.135 339.209 166.168 339.209 173.804V252.545H370.773V173.529C370.773 157.123 366.765 143.859 358.87 134.117L358.878 134.109Z" fill="white"/>
  <path d="M654.044 212.648L671.138 233.354C665.77 239.71 659.381 244.796 651.971 248.61C644.562 252.424 636.059 254.327 626.456 254.327C613.435 254.327 602.325 251.468 593.126 245.743C583.927 240.026 576.931 232.034 572.129 221.774C567.327 211.515 564.922 199.668 564.922 186.226C564.922 173.877 567.521 162.524 572.736 152.175C577.943 141.826 585.15 133.559 594.349 127.388C603.539 121.218 614.244 118.125 626.456 118.125C635.735 118.125 644.197 119.987 651.85 123.712C659.502 127.437 666.012 132.474 671.381 138.83L653.072 159.536C649.979 155.358 646.198 152.094 641.72 149.73C637.242 147.373 632.156 146.191 626.456 146.191C619.127 146.191 613.062 148.102 608.268 151.908C603.466 155.722 599.879 160.67 597.523 166.751C595.158 172.84 593.984 179.327 593.984 186.226C593.984 192.582 595.166 198.85 597.523 205.02C599.879 211.199 603.466 216.284 608.268 220.276C613.07 224.276 619.135 226.268 626.456 226.268C632.148 226.268 637.404 225.046 642.205 222.592C647.007 220.138 650.951 216.827 654.044 212.648Z" fill="white"/>
  <path d="M451.045 223.329C450.559 222.309 450.097 221.28 449.66 220.236C447.409 222.025 445.06 223.588 442.607 224.916C439.918 226.374 436.299 227.094 431.74 227.094C426.857 227.094 423.318 225.143 421.116 221.24C418.921 217.337 417.82 211.749 417.82 204.486V148.637H448.583V122.481H417.82V81.0781H389.009V122.481H352.982C357.185 124.846 360.87 127.955 364.011 131.826C367.898 136.62 370.846 142.231 372.854 148.637H389.009V206.664C389.009 221.013 391.851 232.544 397.552 241.257C403.244 249.978 413.091 254.335 427.092 254.335C433.926 254.335 440.113 253.152 445.651 250.796C451.085 248.48 456.591 244.844 462.187 239.897C457.79 235.168 454.065 229.653 451.045 223.329Z" fill="white"/>
  <path d="M539.292 217.831C536.361 220.195 532.458 222.325 527.575 224.236C522.692 226.147 516.505 227.094 509.015 227.094C503.97 227.094 499.007 225.783 494.124 223.143C489.241 220.511 485.208 216.875 482.034 212.243C478.86 207.611 477.273 202.21 477.273 196.032H561.261C560.978 192.858 560.824 189.586 560.824 186.226C560.824 182.274 561.083 178.42 561.593 174.662C561.131 171.318 560.54 167.998 559.795 164.71C557.844 155.989 554.67 148.143 550.273 141.146C545.876 134.158 540.102 128.571 532.936 124.392C525.769 120.214 516.902 118.125 506.319 118.125C494.925 118.125 484.868 121.08 476.163 126.975C467.45 132.879 460.616 140.871 455.652 150.944C450.688 161.026 448.202 172.33 448.202 184.857C448.202 198.477 450.72 210.559 455.773 221.086C460.818 231.621 467.863 239.84 476.892 245.743C485.929 251.646 496.545 254.594 508.756 254.594C517.704 254.594 525.397 253.549 531.826 251.46C538.256 249.371 543.543 246.925 547.698 244.107C551.852 241.298 555.026 238.658 557.22 236.204C559.415 233.751 560.759 232.253 561.253 231.71L545.625 212.098C544.321 213.555 542.207 215.458 539.276 217.814L539.292 217.831ZM480.447 159.941C482.722 155.673 486.018 152.135 490.334 149.317C494.642 146.507 499.978 145.098 506.327 145.098C512.343 145.098 517.315 146.507 521.218 149.317C525.121 152.135 528.093 155.673 530.134 159.941C532.166 164.208 533.187 168.524 533.187 172.881H477.03C477.03 168.524 478.163 164.208 480.447 159.941Z" fill="white"/>
  <path d="M768.909 134.466C761.337 124.66 750.478 119.752 736.316 119.752C727.684 119.752 720.525 121.477 714.833 124.927C709.132 128.376 704.824 131.923 701.893 135.551V81.0701H673.567V250.237H702.379V181.043C702.379 171.601 704.978 163.609 710.193 157.074C715.4 150.539 721.991 147.268 729.967 147.268C736.316 147.268 741.482 149.543 745.474 154.078C749.458 158.621 751.458 164.888 751.458 172.873V250.237H780.27V172.597C780.27 156.977 776.488 144.264 768.917 134.458L768.909 134.466Z" fill="white"/>
  <path d="M3.70827 295.713V305.965H2.06445V282.433H7.668C10.5831 282.433 12.7452 282.976 14.138 284.053C15.5308 285.13 16.2272 286.757 16.2272 288.92C16.2272 290.499 15.8142 291.827 14.9801 292.912C14.1461 293.997 12.8829 294.774 11.1905 295.244L17.5795 305.965H15.6198L9.55474 295.713H3.70827ZM3.70827 294.296H8.20244C10.1864 294.296 11.7249 293.851 12.8262 292.968C13.9194 292.086 14.47 290.774 14.47 289.049C14.47 287.324 13.9356 285.956 12.8586 285.138C11.7816 284.32 10.0325 283.915 7.61131 283.915H3.71636V294.296H3.70827Z" fill="white"/>
  <path d="M27.5316 306.289C24.989 306.289 23.005 305.503 21.5799 303.941C20.1547 302.378 19.4502 300.183 19.4502 297.357C19.4502 294.531 20.1385 292.329 21.507 290.652C22.8755 288.976 24.7298 288.134 27.0619 288.134C29.1187 288.134 30.7464 288.855 31.9367 290.288C33.1271 291.729 33.7263 293.681 33.7263 296.151V297.438H21.1183C21.1426 299.843 21.7013 301.673 22.8026 302.945C23.9039 304.208 25.4748 304.848 27.5235 304.848C28.5195 304.848 29.4022 304.775 30.1552 304.637C30.9083 304.499 31.8719 304.2 33.0299 303.738V305.188C32.042 305.617 31.127 305.908 30.2929 306.062C29.4588 306.216 28.5357 306.297 27.5235 306.297L27.5316 306.289ZM27.0619 289.551C25.3776 289.551 24.0253 290.11 23.005 291.219C21.9847 292.329 21.3855 293.932 21.2155 296.021H32.0339C32.0339 293.997 31.5966 292.41 30.714 291.268C29.8313 290.126 28.6167 289.551 27.0619 289.551Z" fill="white"/>
  <path d="M42.3823 304.872C43.3945 304.872 44.2691 304.783 45.0222 304.613V305.9C44.2529 306.159 43.3621 306.289 42.3499 306.289C40.8033 306.289 39.6615 305.876 38.9327 305.05C38.1958 304.224 37.8315 302.928 37.8315 301.155V289.851H35.2402V288.92L37.8315 288.199L38.6331 284.239H39.451V288.474H44.5849V289.859H39.451V300.936C39.451 302.281 39.6858 303.269 40.1636 303.916C40.6332 304.564 41.3782 304.88 42.3823 304.88V304.872Z" fill="white"/>
  <path d="M60.2138 305.973V294.628C60.2138 292.871 59.8413 291.592 59.1045 290.79C58.3595 289.988 57.2177 289.592 55.663 289.592C53.5738 289.592 52.0352 290.118 51.0635 291.179C50.0918 292.24 49.606 293.948 49.606 296.321V305.981H48.0107V280.935H49.606V288.903L49.525 291.138H49.6383C50.2943 290.086 51.1202 289.324 52.1162 288.855C53.1122 288.385 54.3512 288.142 55.833 288.142C59.8009 288.142 61.7848 290.272 61.7848 294.531V305.973H60.2057H60.2138Z" fill="white"/>
  <path d="M66.4404 283.608C66.4404 282.579 66.7805 282.061 67.4526 282.061C67.7846 282.061 68.0438 282.199 68.23 282.466C68.4163 282.733 68.5134 283.114 68.5134 283.608C68.5134 284.102 68.4163 284.474 68.23 284.749C68.0438 285.025 67.7846 285.17 67.4526 285.17C66.7805 285.17 66.4404 284.652 66.4404 283.608ZM68.2624 305.973H66.6672V288.474H68.2624V305.973Z" fill="white"/>
  <path d="M85.5342 305.973V294.628C85.5342 292.871 85.1617 291.592 84.4248 290.79C83.6798 289.988 82.538 289.592 80.9833 289.592C78.8941 289.592 77.3556 290.118 76.3838 291.179C75.4121 292.24 74.9263 293.948 74.9263 296.321V305.981H73.3311V288.482H74.6834L74.9911 290.879H75.0882C76.23 289.057 78.2463 288.142 81.1615 288.142C85.1293 288.142 87.1132 290.272 87.1132 294.531V305.973H85.5342Z" fill="white"/>
  <path d="M93.5429 298.288L102.475 288.466H104.402L97.5107 295.932L104.993 305.957H103.074L96.4256 297.122L93.5591 299.73V305.957H91.9639V280.911H93.5591V293.462L93.4457 298.272H93.5267L93.5429 298.288Z" fill="white"/>
  <path d="M106.823 304.71C106.823 303.657 107.252 303.131 108.111 303.131C108.969 303.131 109.431 303.657 109.431 304.71C109.431 305.763 108.993 306.289 108.111 306.289C107.228 306.289 106.823 305.763 106.823 304.71Z" fill="white"/>
  <path d="M124.006 295.713V305.965H122.362V282.433H127.966C130.881 282.433 133.043 282.976 134.436 284.053C135.829 285.13 136.525 286.757 136.525 288.92C136.525 290.499 136.112 291.827 135.278 292.912C134.444 293.997 133.181 294.774 131.488 295.244L137.877 305.965H135.918L129.853 295.713H124.006ZM124.006 294.296H128.5C130.484 294.296 132.023 293.851 133.124 292.968C134.217 292.086 134.768 290.774 134.768 289.049C134.768 287.324 134.233 285.956 133.156 285.138C132.079 284.32 130.33 283.915 127.909 283.915H124.014V294.296H124.006Z" fill="white"/>
  <path d="M147.829 306.289C145.287 306.289 143.303 305.503 141.878 303.941C140.453 302.378 139.748 300.183 139.748 297.357C139.748 294.531 140.436 292.329 141.805 290.652C143.173 288.976 145.028 288.134 147.36 288.134C149.417 288.134 151.044 288.855 152.235 290.288C153.425 291.729 154.024 293.681 154.024 296.151V297.438H141.416C141.44 299.843 141.999 301.673 143.1 302.945C144.202 304.208 145.773 304.848 147.821 304.848C148.817 304.848 149.7 304.775 150.453 304.637C151.206 304.499 152.17 304.2 153.328 303.738V305.188C152.34 305.617 151.425 305.908 150.591 306.062C149.757 306.216 148.834 306.297 147.821 306.297L147.829 306.289ZM147.368 289.551C145.684 289.551 144.331 290.11 143.311 291.219C142.291 292.329 141.691 293.932 141.521 296.021H152.34C152.34 293.997 151.903 292.41 151.02 291.268C150.137 290.126 148.923 289.551 147.368 289.551Z" fill="white"/>
  <path d="M164.47 288.134C165.734 288.134 166.835 288.369 167.758 288.822C168.681 289.284 169.507 290.069 170.236 291.187H170.333C170.268 289.835 170.236 288.507 170.236 287.211V280.919H171.815V305.965H170.77L170.366 303.293H170.236C168.908 305.285 166.997 306.289 164.503 306.289C162.009 306.289 160.243 305.536 158.964 304.038C157.685 302.54 157.045 300.345 157.045 297.471C157.045 294.442 157.677 292.134 158.948 290.531C160.219 288.928 162.057 288.134 164.47 288.134ZM164.47 289.584C162.559 289.584 161.126 290.256 160.163 291.592C159.199 292.936 158.721 294.879 158.721 297.438C158.721 302.394 160.648 304.872 164.503 304.872C166.479 304.872 167.928 304.297 168.851 303.147C169.774 301.997 170.236 300.102 170.236 297.462V297.187C170.236 294.483 169.782 292.539 168.876 291.349C167.969 290.167 166.503 289.567 164.47 289.567V289.584Z" fill="white"/>
  <path d="M183.961 306.289C181.419 306.289 179.435 305.503 178.01 303.941C176.584 302.378 175.88 300.183 175.88 297.357C175.88 294.531 176.568 292.329 177.937 290.652C179.305 288.976 181.16 288.134 183.492 288.134C185.548 288.134 187.176 288.855 188.366 290.288C189.557 291.729 190.156 293.681 190.156 296.151V297.438H177.548C177.572 299.843 178.131 301.673 179.232 302.945C180.334 304.208 181.905 304.848 183.953 304.848C184.949 304.848 185.832 304.775 186.585 304.637C187.338 304.499 188.302 304.2 189.46 303.738V305.188C188.472 305.617 187.557 305.908 186.723 306.062C185.889 306.216 184.965 306.297 183.953 306.297L183.961 306.289ZM183.5 289.551C181.815 289.551 180.463 290.11 179.443 291.219C178.423 292.329 177.823 293.932 177.653 296.021H188.472C188.472 293.997 188.034 292.41 187.152 291.268C186.269 290.126 185.054 289.551 183.5 289.551Z" fill="white"/>
  <path d="M205.047 301.414C205.047 302.985 204.448 304.184 203.257 305.026C202.067 305.868 200.375 306.289 198.188 306.289C195.848 306.289 193.994 305.933 192.617 305.212V303.487C194.374 304.37 196.237 304.807 198.188 304.807C199.913 304.807 201.225 304.524 202.124 303.949C203.023 303.374 203.468 302.613 203.468 301.657C203.468 300.774 203.112 300.038 202.399 299.438C201.687 298.839 200.512 298.248 198.885 297.665C197.136 297.033 195.905 296.483 195.2 296.029C194.488 295.576 193.961 295.057 193.597 294.483C193.241 293.908 193.054 293.211 193.054 292.385C193.054 291.073 193.605 290.037 194.706 289.276C195.808 288.515 197.346 288.134 199.322 288.134C201.298 288.134 202.998 288.49 204.699 289.195L204.1 290.644C202.383 289.94 200.788 289.584 199.322 289.584C197.856 289.584 196.763 289.818 195.929 290.296C195.095 290.766 194.674 291.422 194.674 292.256C194.674 293.171 194.998 293.9 195.646 294.442C196.293 294.993 197.565 295.6 199.452 296.28C201.031 296.847 202.18 297.357 202.893 297.819C203.614 298.272 204.148 298.79 204.513 299.374C204.869 299.957 205.055 300.637 205.055 301.414H205.047Z" fill="white"/>
  <path d="M208.537 283.608C208.537 282.579 208.877 282.061 209.549 282.061C209.881 282.061 210.14 282.199 210.327 282.466C210.513 282.733 210.61 283.114 210.61 283.608C210.61 284.102 210.513 284.474 210.327 284.749C210.14 285.025 209.881 285.17 209.549 285.17C208.877 285.17 208.537 284.652 208.537 283.608ZM210.359 305.973H208.764V288.474H210.359V305.973Z" fill="white"/>
  <path d="M229.073 288.474V289.584L225.453 289.81C226.417 291.009 226.903 292.329 226.903 293.77C226.903 295.454 226.344 296.823 225.218 297.867C224.093 298.912 222.595 299.438 220.7 299.438C219.906 299.438 219.348 299.406 219.024 299.341C218.392 299.673 217.906 300.062 217.574 300.515C217.242 300.969 217.072 301.447 217.072 301.949C217.072 302.507 217.283 302.912 217.712 303.171C218.141 303.43 218.846 303.56 219.842 303.56H222.903C224.805 303.56 226.255 303.941 227.267 304.71C228.279 305.479 228.781 306.613 228.781 308.111C228.781 309.957 228.036 311.382 226.538 312.386C225.04 313.391 222.911 313.893 220.141 313.893C217.939 313.893 216.238 313.472 215.032 312.621C213.825 311.771 213.218 310.597 213.218 309.083C213.218 307.884 213.59 306.88 214.335 306.087C215.08 305.293 216.092 304.75 217.372 304.459C216.846 304.232 216.424 303.916 216.109 303.503C215.793 303.09 215.631 302.613 215.631 302.078C215.631 300.912 216.376 299.876 217.866 298.985C216.845 298.564 216.052 297.908 215.485 297.009C214.918 296.11 214.635 295.082 214.635 293.924C214.635 292.175 215.194 290.774 216.303 289.713C217.412 288.66 218.91 288.126 220.805 288.126C221.955 288.126 222.846 288.239 223.477 288.466H229.081L229.073 288.474ZM214.91 308.929C214.91 311.334 216.7 312.532 220.271 312.532C224.862 312.532 227.162 311.067 227.162 308.135C227.162 307.083 226.806 306.321 226.085 305.852C225.364 305.382 224.198 305.139 222.595 305.139H219.728C216.522 305.139 214.918 306.402 214.918 308.921L214.91 308.929ZM216.246 293.932C216.246 295.284 216.659 296.329 217.477 297.082C218.295 297.827 219.396 298.199 220.773 298.199C222.23 298.199 223.348 297.827 224.125 297.09C224.903 296.345 225.291 295.276 225.291 293.867C225.291 292.377 224.895 291.26 224.093 290.507C223.291 289.762 222.174 289.389 220.74 289.389C219.307 289.389 218.246 289.786 217.445 290.588C216.643 291.389 216.246 292.499 216.246 293.924V293.932Z" fill="white"/>
  <path d="M244.078 305.973V294.628C244.078 292.871 243.706 291.592 242.969 290.79C242.224 289.988 241.082 289.592 239.527 289.592C237.438 289.592 235.9 290.118 234.928 291.179C233.956 292.24 233.47 293.948 233.47 296.321V305.981H231.875V288.482H233.227L233.535 290.879H233.632C234.774 289.057 236.79 288.142 239.705 288.142C243.673 288.142 245.657 290.272 245.657 294.531V305.973H244.078Z" fill="white"/>
  <path d="M250.208 304.71C250.208 303.657 250.637 303.131 251.496 303.131C252.354 303.131 252.815 303.657 252.815 304.71C252.815 305.763 252.378 306.289 251.496 306.289C250.613 306.289 250.208 305.763 250.208 304.71Z" fill="white"/>
  <path d="M267.391 295.713V305.965H265.747V282.433H271.351C274.266 282.433 276.428 282.976 277.821 284.053C279.213 285.13 279.91 286.757 279.91 288.92C279.91 290.499 279.497 291.827 278.663 292.912C277.829 293.997 276.565 294.774 274.873 295.244L281.262 305.965H279.302L273.237 295.713H267.391ZM267.391 294.296H271.885C273.869 294.296 275.408 293.851 276.509 292.968C277.602 292.086 278.153 290.774 278.153 289.049C278.153 287.324 277.618 285.956 276.541 285.138C275.464 284.32 273.715 283.915 271.294 283.915H267.399V294.296H267.391Z" fill="white"/>
  <path d="M291.214 306.289C288.672 306.289 286.688 305.503 285.262 303.941C283.837 302.378 283.133 300.183 283.133 297.357C283.133 294.531 283.821 292.329 285.19 290.652C286.558 288.976 288.412 288.134 290.745 288.134C292.801 288.134 294.429 288.855 295.619 290.288C296.81 291.729 297.409 293.681 297.409 296.151V297.438H284.801C284.825 299.843 285.384 301.673 286.485 302.945C287.586 304.208 289.157 304.848 291.206 304.848C292.202 304.848 293.085 304.775 293.838 304.637C294.591 304.499 295.555 304.2 296.712 303.738V305.188C295.725 305.617 294.81 305.908 293.975 306.062C293.141 306.216 292.218 306.297 291.206 306.297L291.214 306.289ZM290.745 289.551C289.06 289.551 287.708 290.11 286.688 291.219C285.667 292.329 285.068 293.932 284.898 296.021H295.716C295.716 293.997 295.279 292.41 294.397 291.268C293.514 290.126 292.299 289.551 290.745 289.551Z" fill="white"/>
  <path d="M308.835 288.134C311.28 288.134 313.126 288.903 314.365 290.442C315.604 291.98 316.228 294.232 316.228 297.195C316.228 300.159 315.58 302.345 314.268 303.924C312.956 305.503 311.134 306.289 308.77 306.289C307.523 306.289 306.405 306.03 305.401 305.52C304.397 305.01 303.612 304.273 303.037 303.333H302.891L302.437 305.973H301.441V280.927H303.037V287.219C303.037 288.167 303.012 289.033 302.972 289.827L302.923 291.195H303.037C303.701 290.142 304.502 289.373 305.442 288.879C306.381 288.385 307.507 288.142 308.826 288.142L308.835 288.134ZM308.802 289.584C306.745 289.584 305.263 290.175 304.373 291.357C303.482 292.539 303.037 294.483 303.037 297.203V297.479C303.037 300.119 303.498 302.013 304.429 303.163C305.361 304.313 306.802 304.888 308.77 304.888C310.737 304.888 312.114 304.216 313.086 302.888C314.049 301.552 314.535 299.649 314.535 297.179C314.535 292.126 312.624 289.6 308.802 289.6V289.584Z" fill="white"/>
  <path d="M321.661 288.474V299.811C321.661 301.568 322.034 302.847 322.771 303.649C323.508 304.451 324.657 304.847 326.212 304.847C328.293 304.847 329.824 304.321 330.804 303.268C331.783 302.216 332.277 300.507 332.277 298.135V288.474H333.856V305.973H332.504L332.213 303.56H332.115C330.982 305.382 328.957 306.297 326.05 306.297C322.066 306.297 320.074 304.167 320.074 299.908V288.482H321.653L321.661 288.474Z" fill="white"/>
  <path d="M338.707 283.608C338.707 282.579 339.047 282.061 339.719 282.061C340.051 282.061 340.31 282.199 340.497 282.466C340.683 282.733 340.78 283.114 340.78 283.608C340.78 284.102 340.683 284.474 340.497 284.749C340.31 285.025 340.051 285.17 339.719 285.17C339.047 285.17 338.707 284.652 338.707 283.608ZM340.529 305.973H338.934V288.474H340.529V305.973Z" fill="white"/>
  <path d="M347.193 305.973H345.598V280.927H347.193V305.973Z" fill="white"/>
  <path d="M358.667 288.134C359.93 288.134 361.031 288.369 361.954 288.822C362.877 289.284 363.703 290.069 364.432 291.187H364.529C364.465 289.835 364.432 288.507 364.432 287.211V280.919H366.011V305.965H364.967L364.562 303.293H364.432C363.104 305.285 361.193 306.289 358.699 306.289C356.205 306.289 354.44 305.536 353.16 304.038C351.881 302.54 351.241 300.345 351.241 297.471C351.241 294.442 351.873 292.134 353.144 290.531C354.415 288.928 356.254 288.134 358.667 288.134ZM358.667 289.584C356.756 289.584 355.322 290.256 354.359 291.592C353.395 292.936 352.917 294.879 352.917 297.438C352.917 302.394 354.845 304.872 358.699 304.872C360.675 304.872 362.124 304.297 363.048 303.147C363.971 301.997 364.432 300.102 364.432 297.462V297.187C364.432 294.483 363.979 292.539 363.072 291.349C362.165 290.167 360.699 289.567 358.667 289.567V289.584Z" fill="white"/>
  <path d="M370.765 304.71C370.765 303.657 371.194 303.131 372.052 303.131C372.911 303.131 373.372 303.657 373.372 304.71C373.372 305.763 372.935 306.289 372.052 306.289C371.17 306.289 370.765 305.763 370.765 304.71Z" fill="white"/>
  <path d="M389.932 296.572V305.973H386.086V282.441H392.734C395.771 282.441 398.022 283.008 399.479 284.15C400.937 285.284 401.666 287.008 401.666 289.3C401.666 292.231 400.143 294.321 397.091 295.56L403.739 305.973H399.358L393.722 296.572H389.924H389.932ZM389.932 293.381H392.605C394.394 293.381 395.698 293.049 396.5 292.385C397.301 291.721 397.706 290.733 397.706 289.422C397.706 288.11 397.269 287.138 396.402 286.555C395.536 285.972 394.224 285.689 392.475 285.689H389.932V293.381Z" fill="white"/>
  <path d="M413.739 306.289C410.969 306.289 408.807 305.479 407.244 303.868C405.682 302.248 404.904 300.029 404.904 297.195C404.904 294.361 405.625 292.005 407.074 290.337C408.524 288.677 410.516 287.843 413.05 287.843C415.399 287.843 417.261 288.555 418.622 289.98C419.982 291.405 420.662 293.373 420.662 295.875V297.916H408.799C408.856 299.641 409.317 300.969 410.2 301.9C411.083 302.831 412.322 303.293 413.917 303.293C414.97 303.293 415.949 303.196 416.856 302.993C417.763 302.791 418.735 302.467 419.78 302.005V305.082C418.856 305.52 417.925 305.835 416.978 306.014C416.03 306.192 414.953 306.289 413.739 306.289ZM413.042 290.709C411.844 290.709 410.88 291.09 410.152 291.851C409.431 292.612 408.994 293.721 408.856 295.187H416.937C416.913 293.713 416.565 292.604 415.877 291.851C415.188 291.098 414.249 290.717 413.042 290.717V290.709Z" fill="white"/>
  <path d="M430.792 303.236C431.715 303.236 432.638 303.09 433.562 302.799V305.649C433.14 305.835 432.606 305.981 431.942 306.111C431.278 306.232 430.598 306.297 429.885 306.297C426.298 306.297 424.508 304.41 424.508 300.629V291.033H422.079V289.357L424.687 287.972L425.974 284.207H428.306V288.166H433.375V291.033H428.306V300.564C428.306 301.479 428.533 302.151 428.994 302.58C429.448 303.017 430.047 303.236 430.792 303.236Z" fill="white"/>
  <path d="M447.466 305.973L446.712 303.495H446.583C445.725 304.58 444.858 305.317 443.992 305.706C443.125 306.095 442.008 306.297 440.647 306.297C438.898 306.297 437.53 305.827 436.55 304.88C435.57 303.932 435.076 302.596 435.076 300.872C435.076 299.033 435.756 297.649 437.117 296.717C438.477 295.786 440.558 295.276 443.344 295.187L446.421 295.09V294.142C446.421 293.001 446.154 292.15 445.627 291.592C445.093 291.025 444.275 290.75 443.158 290.75C442.243 290.75 441.368 290.887 440.534 291.154C439.7 291.422 438.89 291.737 438.121 292.102L436.898 289.397C437.862 288.895 438.923 288.507 440.072 288.247C441.222 287.988 442.307 287.851 443.328 287.851C445.595 287.851 447.304 288.345 448.453 289.332C449.603 290.32 450.186 291.867 450.186 293.989V305.981H447.482L447.466 305.973ZM441.838 303.39C443.214 303.39 444.316 303.009 445.141 302.24C445.976 301.471 446.389 300.394 446.389 299.009V297.462L444.105 297.56C442.324 297.624 441.028 297.924 440.218 298.45C439.408 298.985 439.004 299.795 439.004 300.888C439.004 301.681 439.238 302.297 439.708 302.734C440.178 303.171 440.89 303.382 441.83 303.382L441.838 303.39Z" fill="white"/>
  <path d="M454.438 283.454C454.438 282.782 454.624 282.255 454.996 281.891C455.369 281.526 455.895 281.34 456.583 281.34C457.272 281.34 457.766 281.526 458.138 281.891C458.511 282.255 458.697 282.773 458.697 283.454C458.697 284.134 458.511 284.604 458.138 284.976C457.766 285.349 457.247 285.535 456.583 285.535C455.919 285.535 455.369 285.349 454.996 284.976C454.624 284.604 454.438 284.101 454.438 283.454ZM458.446 305.973H454.664V288.166H458.446V305.973Z" fill="white"/>
  <path d="M466.843 305.973H463.062V280.927H466.843V305.973Z" fill="white"/>
  <path d="M470.9 303.957C470.9 303.171 471.103 302.572 471.516 302.151C471.921 301.73 472.512 301.519 473.289 301.519C474.067 301.519 474.666 301.738 475.079 302.167C475.484 302.605 475.694 303.196 475.694 303.949C475.694 304.702 475.484 305.317 475.071 305.763C474.658 306.208 474.067 306.427 473.289 306.427C472.512 306.427 471.929 306.208 471.516 305.771C471.111 305.333 470.9 304.726 470.9 303.949V303.957Z" fill="white"/>
  <path d="M730.996 354.332C735.996 354.332 740.05 350.279 740.05 345.279C740.05 340.279 735.996 336.226 730.996 336.226C725.997 336.226 721.943 340.279 721.943 345.279C721.943 350.279 725.997 354.332 730.996 354.332Z" fill="white"/>
  <path d="M612.184 304.4C617.05 303.252 620.064 298.376 618.916 293.51C617.767 288.644 612.891 285.63 608.025 286.778C603.159 287.927 600.145 292.803 601.293 297.669C602.442 302.535 607.318 305.549 612.184 304.4Z" fill="white"/>
  <path d="M895.241 171.065C897.869 166.812 896.553 161.233 892.3 158.604C888.047 155.975 882.468 157.292 879.839 161.545C877.21 165.798 878.527 171.377 882.78 174.006C887.033 176.634 892.612 175.318 895.241 171.065Z" fill="white"/>
  <path d="M832.273 60.9717C837.273 60.9717 841.326 56.9185 841.326 51.9186C841.326 46.9187 837.273 42.8655 832.273 42.8655C827.273 42.8655 823.22 46.9187 823.22 51.9186C823.22 56.9185 827.273 60.9717 832.273 60.9717Z" fill="white"/>
  <path d="M712.38 18.8965C717.38 18.8965 721.433 14.8433 721.433 9.84341C721.433 4.8435 717.38 0.790283 712.38 0.790283C707.38 0.790283 703.327 4.8435 703.327 9.84341C703.327 14.8433 707.38 18.8965 712.38 18.8965Z" fill="white"/>
  <path d="M598.649 74.7538C603.649 74.7538 607.702 70.7006 607.702 65.7007C607.702 60.7008 603.649 56.6476 598.649 56.6476C593.649 56.6476 589.596 60.7008 589.596 65.7007C589.596 70.7006 593.649 74.7538 598.649 74.7538Z" fill="white"/>
  <path d="M645.373 88.034C651.231 88.034 655.98 83.2847 655.98 77.4261C655.98 71.5675 651.231 66.8182 645.373 66.8182C639.514 66.8182 634.765 71.5675 634.765 77.4261C634.765 83.2847 639.514 88.034 645.373 88.034Z" fill="white"/>
  <path d="M739.045 61.7896C744.904 61.7896 749.653 57.0403 749.653 51.1817C749.653 45.3232 744.904 40.5739 739.045 40.5739C733.187 40.5739 728.438 45.3232 728.438 51.1817C728.438 57.0403 733.187 61.7896 739.045 61.7896Z" fill="white"/>
  <path d="M823.317 109.8C829.175 109.8 833.925 105.051 833.925 99.1925C833.925 93.3339 829.175 88.5846 823.317 88.5846C817.458 88.5846 812.709 93.3339 812.709 99.1925C812.709 105.051 817.458 109.8 823.317 109.8Z" fill="white"/>
  <path d="M852.665 202.653C858.078 200.411 860.648 194.206 858.406 188.793C856.164 183.381 849.959 180.81 844.546 183.052C839.134 185.294 836.564 191.5 838.806 196.912C841.048 202.325 847.253 204.895 852.665 202.653Z" fill="white"/>
  <path d="M709.671 314.732C715.278 313.033 718.447 307.111 716.749 301.504C715.051 295.897 709.129 292.729 703.522 294.427C697.915 296.125 694.746 302.047 696.444 307.654C698.142 313.261 704.064 316.43 709.671 314.732Z" fill="white"/>
  <path d="M728.024 274.004C731.79 274.004 734.842 270.951 734.842 267.186C734.842 263.42 731.79 260.367 728.024 260.367C724.259 260.367 721.206 263.42 721.206 267.186C721.206 270.951 724.259 274.004 728.024 274.004Z" fill="white"/>
  <path d="M798.436 239.239C799.877 235.76 798.225 231.772 794.746 230.331C791.267 228.89 787.279 230.542 785.838 234.021C784.397 237.5 786.049 241.488 789.528 242.929C793.007 244.37 796.995 242.718 798.436 239.239Z" fill="white"/>
  <path d="M810.952 179.861C814.717 179.861 817.77 176.808 817.77 173.043C817.77 169.277 814.717 166.224 810.952 166.224C807.186 166.224 804.134 169.277 804.134 173.043C804.134 176.808 807.186 179.861 810.952 179.861Z" fill="white"/>
  <path d="M789.356 112.724C789.356 108.958 786.303 105.905 782.538 105.905C778.773 105.905 775.72 108.958 775.72 112.724C775.72 116.489 778.773 119.542 782.538 119.542C786.303 119.542 789.356 116.489 789.356 112.724Z" fill="white"/>
  <path d="M719.206 95.8886C722.972 95.8886 726.024 92.836 726.024 89.0704C726.024 85.3048 722.972 82.2522 719.206 82.2522C715.44 82.2522 712.388 85.3048 712.388 89.0704C712.388 92.836 715.44 95.8886 719.206 95.8886Z" fill="white"/>
  <path d="M804.093 286.964C809.506 284.722 812.076 278.517 809.834 273.104C807.592 267.692 801.387 265.121 795.974 267.363C790.562 269.605 787.991 275.811 790.233 281.223C792.475 286.636 798.681 289.206 804.093 286.964Z" fill="white"/>
  <path d="M846.387 295.276C851.387 295.276 855.44 291.223 855.44 286.223C855.44 281.223 851.387 277.17 846.387 277.17C841.387 277.17 837.334 281.223 837.334 286.223C837.334 291.223 841.387 295.276 846.387 295.276Z" fill="white"/>
</svg>
