<svg viewBox="0 0 1036 1001" fill="none" xmlns="http://www.w3.org/2000/svg">
  <path fill-rule="evenodd" clip-rule="evenodd" d="M485.448 988.462C490.199 990.306 495.11 991.721 500.109 992.708C511.268 994.912 522.866 994.98 534.117 992.913C536.568 992.463 539.004 991.911 541.414 991.258C544.119 990.525 546.794 989.664 549.425 988.675C560.086 984.671 570.047 978.569 578.541 970.371L1005.09 558.643C1038.3 526.587 1038.3 473.827 1005.09 441.77L578.541 30.0425C545.33 -2.01417 490.67 -2.01417 457.459 30.0425L30.9081 441.77C-2.3027 473.827 -2.3027 526.587 30.9081 558.643L457.459 970.371C465.551 978.424 475.123 984.455 485.448 988.462ZM453.261 974.658C487.852 1009.05 547.22 1008.94 582.708 974.688L1009.26 562.961C1044.91 528.545 1044.91 471.869 1009.26 437.453L582.708 25.7255C547.172 -8.57517 488.828 -8.57517 453.293 25.7255L26.7411 437.453C-8.91371 471.869 -8.91372 528.545 26.7411 562.961L453.227 974.624C453.238 974.635 453.25 974.646 453.261 974.658ZM478.459 948.945L478.622 949.107C478.877 949.361 479.134 949.612 479.395 949.859V642.2C450.69 620.127 411.139 605.636 357.366 598.864H356.966L356.542 598.803C314.23 592.727 281.669 581.841 258.069 564.68C226.612 542.421 210.941 510.139 210.941 469.646V452.782C190.405 444.286 176 424.485 176 401.526C176 370.966 202.066 346.105 233.2 346.105C264.334 346.105 290.4 370.966 290.4 401.526C290.4 424.818 275.976 444.332 255.459 452.786V469.646C255.459 494.696 263.52 513.248 280.303 527.085C297.419 541.195 324.211 550.909 362.681 556.528C409.174 562.069 447.587 573.519 479.049 590.797V484.706C466.992 477.459 451.172 473.051 429.895 469.985C405.226 466.556 385.849 459.177 372.565 447.365C359.073 435.369 352.432 419.303 352.432 399.93V366.741C329.798 359.401 312.649 338.896 312.649 313.778C312.649 283.166 338.769 258.691 369.849 258.691C400.982 258.691 427.049 283.552 427.049 314.112C427.049 339.152 409.975 360.006 387.265 367.13V400.264C387.265 407.713 388.593 414.838 394.401 420.976C400.371 427.284 411.941 433.469 434.622 436.722C451.359 438.678 466.121 442.235 479.049 447.266V342.213C460.303 330.502 447.914 310.122 447.914 286.693C447.914 249.434 479.191 219.919 516.876 219.919C554.95 219.919 585.838 249.81 585.838 286.693C585.838 309.859 573.402 330.197 554.703 342.164V511.042C569.472 503.954 587.03 499.35 607.424 497.09C625.7 494.302 637.705 489.92 645.089 483.968C652.095 478.321 655.481 470.821 655.481 459.964V411.211C632.4 404.34 615.005 383.167 615.005 358.117C615.005 326.941 641.019 302.029 672.205 302.029C703.366 302.029 729.405 326.915 729.405 357.783C729.405 382.522 712.633 403.023 690.314 410.391V459.63C690.314 479.027 683.571 495.161 670.018 507.265C656.664 519.192 637.214 526.749 612.531 530.348L612.1 530.411H611.677C585.928 533.521 567.497 540.328 554.357 550.631V572.317L554.011 579.031V682.054C580.886 666.792 613.468 656.024 651.095 649.366L651.186 649.35L676.484 645.67C676.491 645.669 676.497 645.668 676.504 645.667C714.114 639.89 740.326 630.023 757.075 615.915C773.51 602.073 781.405 583.661 781.405 559.104V471.549C760.15 463.269 745.427 442.815 745.427 419.858C745.427 389.298 771.494 364.437 802.627 364.437C818.049 364.437 832.335 370.404 843.118 380.813L843.195 380.887L843.27 380.964C853.626 391.701 859.481 405.526 859.481 420.192C859.481 443.025 845.531 462.456 826.616 471.259V559.438C826.616 599.935 810.941 632.221 779.476 654.48C756.636 670.921 725.527 681.824 685.613 688.245L685.552 688.255L661.695 691.593C615.254 699.286 580.388 713.426 554.703 734.543V796.517L555.395 823.231V950.889C556.183 950.213 556.953 949.512 557.706 948.786L984.257 537.059C1005.25 516.797 1005.25 483.616 984.257 463.355L557.706 51.6274C536.119 30.7908 499.881 30.7908 478.294 51.6275L51.7429 463.355C30.7523 483.616 30.7524 516.797 51.7429 537.059L478.459 948.945ZM555.395 958.517C555.397 958.515 555.4 958.513 555.403 958.511C557.666 956.878 559.829 955.076 561.873 953.103L988.424 541.376C1011.86 518.755 1011.86 481.658 988.424 459.038L561.873 47.3105C537.961 24.2298 498.039 24.2298 474.127 47.3105L47.576 459.038C24.1413 481.658 24.1413 518.755 47.576 541.376L474.259 953.231L474.389 953.36C475.974 954.937 477.646 956.406 479.395 957.766C479.437 957.799 479.48 957.832 479.523 957.865C479.563 957.897 479.604 957.928 479.644 957.959C481.483 959.372 483.404 960.667 485.395 961.841V639.279C455.297 615.237 413.784 599.876 357.741 592.864H357.395C315.535 586.853 284.054 576.168 261.568 559.805C231.816 538.768 216.941 508.381 216.941 469.646V448.609C196.53 441.93 182 423.231 182 401.526C182 374.478 205.178 352.105 233.2 352.105C261.222 352.105 284.4 374.478 284.4 401.526C284.4 423.565 269.87 441.93 249.459 448.609V469.646C249.459 522.74 284.054 551.123 361.892 562.477C409.309 568.12 447.884 579.943 479.049 597.67C479.135 597.719 479.221 597.768 479.307 597.818C481.25 598.926 483.164 600.057 485.049 601.212V481.408C471.557 472.392 453.914 467.383 430.735 464.044C382.649 457.365 358.432 435.66 358.432 399.93V362.197C335.946 356.854 318.649 337.487 318.649 313.778C318.649 286.73 341.827 264.691 369.849 264.691C397.87 264.691 421.049 287.064 421.049 314.112C421.049 337.821 403.751 357.522 381.265 362.531V400.264C381.265 416.626 387.146 435.994 433.849 442.673C451.159 444.689 466.151 448.445 479.049 453.727C479.052 453.728 479.056 453.729 479.059 453.731C479.122 453.756 479.184 453.782 479.246 453.808C479.288 453.825 479.329 453.842 479.37 453.859C481.31 454.659 483.203 455.494 485.049 456.363V338.785C466.368 328.433 453.914 309.066 453.914 286.693C453.914 252.967 482.281 225.919 516.876 225.919C551.816 225.919 579.838 253.301 579.838 286.693C579.838 308.732 567.384 328.1 548.703 338.785V521.072C550.638 519.909 552.638 518.799 554.703 517.739C554.714 517.734 554.725 517.728 554.736 517.722C569.27 510.272 587.016 505.378 608.205 503.04C645.568 497.363 661.481 484.674 661.481 459.964V406.536C638.649 401.861 621.005 381.826 621.005 358.117C621.005 330.402 644.184 308.029 672.205 308.029C700.227 308.029 723.405 330.402 723.405 357.783C723.405 381.158 706.454 400.526 684.314 405.868V459.63C684.314 495.36 659.751 517.399 611.665 524.411H611.319C583.297 527.75 562.887 535.431 548.357 547.786V572.162L548.011 578.876V692.673C549.974 691.418 551.974 690.189 554.011 688.987C555.562 688.071 557.135 687.171 558.728 686.286C584.524 671.965 615.816 661.702 652.141 655.274L677.395 651.601C753.503 639.913 787.405 611.196 787.405 559.104V467.275C766.303 460.93 751.427 441.563 751.427 419.858C751.427 392.81 774.606 370.437 802.627 370.437C816.465 370.437 829.265 375.78 838.951 385.13C848.292 394.813 853.481 407.169 853.481 420.192C853.481 441.897 839.297 460.262 820.616 467.275V559.438C820.616 598.173 805.741 628.56 775.989 649.597C754.195 665.292 724.097 675.977 684.66 682.322L660.789 685.661C612.357 693.675 575.687 708.702 548.703 731.742V796.594L549.395 823.308V962.329C551.458 961.181 553.462 959.911 555.395 958.517ZM671.514 332.728C657.025 332.728 645.341 344.224 645.341 358.117C645.341 371.301 657.328 383.172 671.514 383.172C686.088 383.172 697.687 371.928 697.687 358.117C697.687 344.183 686.306 332.728 671.514 332.728ZM342.984 313.778C342.984 327.296 354.625 338.833 369.157 338.833C383.385 338.833 395.33 327.255 395.33 313.778C395.33 300.26 383.688 288.723 369.157 288.723C354.583 288.723 342.984 299.967 342.984 313.778ZM206.335 400.858C206.335 414.669 217.934 425.913 232.508 425.913C246.736 425.913 258.681 414.335 258.681 400.858C258.681 387.34 247.039 375.803 232.508 375.803C217.934 375.803 206.335 387.047 206.335 400.858ZM478.249 286.025C478.249 305.888 495.08 322.434 516.184 322.434C537.226 322.434 554.119 305.614 554.119 285.691C554.119 265.829 537.288 249.283 516.184 249.283C495.111 249.283 478.249 265.798 478.249 286.025ZM776.454 420.192C776.454 433.751 787.793 445.247 802.627 445.247C817.116 445.247 828.8 433.751 828.8 419.858C828.8 413.314 826.586 407.277 821.699 402.529C816.557 397.869 809.713 395.137 802.627 395.137C788.096 395.137 776.454 406.674 776.454 420.192ZM825.805 398.153C832.033 404.163 834.8 411.844 834.8 419.858C834.8 437.222 820.27 451.247 802.627 451.247C784.638 451.247 770.454 437.222 770.454 420.192C770.454 403.162 784.984 389.137 802.627 389.137C811.276 389.137 819.578 392.476 825.805 398.153ZM232.508 431.913C214.865 431.913 200.335 418.222 200.335 400.858C200.335 383.494 214.865 369.803 232.508 369.803C250.151 369.803 264.681 383.828 264.681 400.858C264.681 417.888 249.805 431.913 232.508 431.913ZM336.984 313.778C336.984 330.808 351.514 344.833 369.157 344.833C386.454 344.833 401.33 330.808 401.33 313.778C401.33 296.748 386.8 282.723 369.157 282.723C351.514 282.723 336.984 296.414 336.984 313.778ZM516.184 328.434C491.968 328.434 472.249 309.4 472.249 286.025C472.249 262.317 491.968 243.283 516.184 243.283C540.4 243.283 560.119 262.317 560.119 285.691C560.119 309.066 540.4 328.434 516.184 328.434ZM671.514 326.728C653.87 326.728 639.341 340.753 639.341 358.117C639.341 374.813 654.216 389.172 671.514 389.172C689.157 389.172 703.687 375.481 703.687 358.117C703.687 340.753 689.503 326.728 671.514 326.728Z" fill="#15A04B"/>
  <path fill-rule="evenodd" clip-rule="evenodd" d="M534.117 992.913C522.866 994.98 511.268 994.912 500.109 992.708C511.361 994.842 523.094 994.91 534.117 992.913Z" fill="#15A04B"/>
  <path fill-rule="evenodd" clip-rule="evenodd" d="M30.9081 558.643L457.459 970.371C465.551 978.424 475.123 984.455 485.448 988.462C490.199 990.306 495.11 991.721 500.109 992.708C511.361 994.842 523.094 994.91 534.117 992.913C536.568 992.463 539.004 991.911 541.414 991.258C544.119 990.525 546.794 989.664 549.425 988.675C560.086 984.671 570.047 978.569 578.541 970.371L1005.09 558.643C1038.3 526.587 1038.3 473.827 1005.09 441.77L578.541 30.0425C545.33 -2.01417 490.67 -2.01417 457.459 30.0425L30.9081 441.77C-2.3027 473.827 -2.3027 526.587 30.9081 558.643ZM474.259 953.231L474.389 953.36C475.974 954.937 477.646 956.406 479.395 957.766L479.523 957.865L479.644 957.959C481.483 959.372 483.404 960.667 485.395 961.841V639.279C455.297 615.237 413.784 599.876 357.741 592.864H357.395C315.535 586.853 284.054 576.168 261.568 559.805C231.816 538.768 216.941 508.381 216.941 469.646V448.609C196.53 441.93 182 423.231 182 401.526C182 374.478 205.178 352.105 233.2 352.105C261.222 352.105 284.4 374.478 284.4 401.526C284.4 423.565 269.87 441.93 249.459 448.609V469.646C249.459 522.74 284.054 551.123 361.892 562.477C409.309 568.12 447.884 579.943 479.049 597.67L479.307 597.818C481.25 598.926 483.164 600.057 485.049 601.212V481.408C471.557 472.392 453.914 467.383 430.735 464.044C382.649 457.365 358.432 435.66 358.432 399.93V362.197C335.946 356.854 318.649 337.487 318.649 313.778C318.649 286.73 341.827 264.691 369.849 264.691C397.87 264.691 421.049 287.064 421.049 314.112C421.049 337.821 403.751 357.522 381.265 362.531V400.264C381.265 416.626 387.146 435.994 433.849 442.673C451.159 444.689 466.151 448.445 479.049 453.727L479.059 453.731L479.246 453.808L479.37 453.859C481.31 454.659 483.203 455.494 485.049 456.363V338.785C466.368 328.433 453.914 309.066 453.914 286.693C453.914 252.967 482.281 225.919 516.876 225.919C551.816 225.919 579.838 253.301 579.838 286.693C579.838 308.732 567.384 328.1 548.703 338.785V521.072C550.638 519.909 552.638 518.799 554.703 517.739L554.736 517.722C569.27 510.272 587.016 505.378 608.205 503.04C645.568 497.363 661.481 484.674 661.481 459.964V406.536C638.649 401.861 621.005 381.826 621.005 358.117C621.005 330.402 644.184 308.029 672.205 308.029C700.227 308.029 723.405 330.402 723.405 357.783C723.405 381.158 706.454 400.526 684.314 405.868V459.63C684.314 495.36 659.751 517.399 611.665 524.411H611.319C583.297 527.75 562.887 535.431 548.357 547.786V572.162L548.011 578.876V692.673C549.974 691.418 551.974 690.189 554.011 688.987C555.562 688.071 557.135 687.171 558.728 686.286C584.524 671.965 615.816 661.702 652.141 655.274L677.395 651.601C753.503 639.913 787.405 611.196 787.405 559.104V467.275C766.303 460.93 751.427 441.563 751.427 419.858C751.427 392.81 774.606 370.437 802.627 370.437C816.465 370.437 829.265 375.78 838.951 385.13C848.292 394.813 853.481 407.169 853.481 420.192C853.481 441.897 839.297 460.262 820.616 467.275V559.438C820.616 598.173 805.741 628.56 775.989 649.597C754.195 665.292 724.097 675.977 684.66 682.322L660.789 685.661C612.357 693.675 575.687 708.702 548.703 731.742V796.594L549.395 823.308V962.329C551.458 961.181 553.462 959.911 555.395 958.517C555.397 958.515 555.4 958.513 555.403 958.511L555.395 958.517C553.462 959.911 551.458 961.181 549.395 962.329V823.308L548.703 796.594V731.742C575.687 708.702 612.357 693.675 660.789 685.661L684.66 682.322C724.097 675.977 754.195 665.292 775.989 649.597C805.741 628.56 820.616 598.173 820.616 559.438V467.275C839.297 460.262 853.481 441.897 853.481 420.192C853.481 407.169 848.292 394.813 838.951 385.13C829.265 375.78 816.465 370.437 802.627 370.437C774.606 370.437 751.427 392.81 751.427 419.858C751.427 441.563 766.303 460.93 787.405 467.275V559.104C787.405 611.196 753.503 639.913 677.395 651.601L652.141 655.274C615.816 661.702 584.524 671.965 558.728 686.286C557.135 687.171 555.562 688.071 554.011 688.987C551.974 690.189 549.974 691.418 548.011 692.673V578.876L548.357 572.162V547.786C562.887 535.431 583.297 527.75 611.319 524.411H611.665C659.751 517.399 684.314 495.36 684.314 459.63V405.868C706.454 400.526 723.405 381.158 723.405 357.783C723.405 330.402 700.227 308.029 672.205 308.029C644.184 308.029 621.005 330.402 621.005 358.117C621.005 381.826 638.649 401.861 661.481 406.536V459.964C661.481 484.674 645.568 497.363 608.205 503.04C587.016 505.378 569.27 510.272 554.736 517.722L554.703 517.739C552.638 518.799 550.638 519.909 548.703 521.072V338.785C567.384 328.1 579.838 308.732 579.838 286.693C579.838 253.301 551.816 225.919 516.876 225.919C482.281 225.919 453.914 252.967 453.914 286.693C453.914 309.066 466.368 328.433 485.049 338.785V456.363C483.203 455.494 481.31 454.659 479.37 453.859L479.246 453.808L479.059 453.731L479.049 453.727C466.151 448.445 451.159 444.689 433.849 442.673C387.146 435.994 381.265 416.626 381.265 400.264V362.531C403.751 357.522 421.049 337.821 421.049 314.112C421.049 287.064 397.87 264.691 369.849 264.691C341.827 264.691 318.649 286.73 318.649 313.778C318.649 337.487 335.946 356.854 358.432 362.197V399.93C358.432 435.66 382.649 457.365 430.735 464.044C453.914 467.383 471.557 472.392 485.049 481.408V601.212C483.164 600.057 481.25 598.926 479.307 597.818L479.049 597.67C447.884 579.943 409.309 568.12 361.892 562.477C284.054 551.123 249.459 522.74 249.459 469.646V448.609C269.87 441.93 284.4 423.565 284.4 401.526C284.4 374.478 261.222 352.105 233.2 352.105C205.178 352.105 182 374.478 182 401.526C182 423.231 196.53 441.93 216.941 448.609V469.646C216.941 508.381 231.816 538.768 261.568 559.805C284.054 576.168 315.535 586.853 357.395 592.864H357.741C413.784 599.876 455.297 615.237 485.395 639.279V961.841C483.404 960.667 481.483 959.372 479.644 957.959L479.523 957.865L479.395 957.766C477.646 956.406 475.974 954.937 474.389 953.36L474.259 953.231L47.576 541.376C24.1413 518.755 24.1413 481.658 47.576 459.038L474.127 47.3105C498.039 24.2298 537.961 24.2298 561.873 47.3105L988.424 459.038C1011.86 481.658 1011.86 518.755 988.424 541.376L561.873 953.103C559.829 955.076 557.666 956.878 555.403 958.511C555.4 958.513 555.397 958.515 555.395 958.517L555.403 958.511C557.666 956.878 559.829 955.076 561.873 953.103L988.424 541.376C1011.86 518.755 1011.86 481.658 988.424 459.038L561.873 47.3105C537.961 24.2298 498.039 24.2298 474.127 47.3105L47.576 459.038C24.1413 481.658 24.1413 518.755 47.576 541.376L474.259 953.231ZM671.514 326.728C653.87 326.728 639.341 340.753 639.341 358.117C639.341 374.813 654.216 389.172 671.514 389.172C689.157 389.172 703.687 375.481 703.687 358.117C703.687 340.753 689.503 326.728 671.514 326.728ZM336.984 313.778C336.984 330.808 351.514 344.833 369.157 344.833C386.454 344.833 401.33 330.808 401.33 313.778C401.33 296.748 386.8 282.723 369.157 282.723C351.514 282.723 336.984 296.414 336.984 313.778ZM200.335 400.858C200.335 418.222 214.865 431.913 232.508 431.913C249.805 431.913 264.681 417.888 264.681 400.858C264.681 383.828 250.151 369.803 232.508 369.803C214.865 369.803 200.335 383.494 200.335 400.858ZM472.249 286.025C472.249 309.4 491.968 328.434 516.184 328.434C540.4 328.434 560.119 309.066 560.119 285.691C560.119 262.317 540.4 243.283 516.184 243.283C491.968 243.283 472.249 262.317 472.249 286.025ZM770.454 420.192C770.454 437.222 784.638 451.247 802.627 451.247C820.27 451.247 834.8 437.222 834.8 419.858C834.8 411.844 832.033 404.163 825.805 398.153C819.578 392.476 811.276 389.137 802.627 389.137C784.984 389.137 770.454 403.162 770.454 420.192ZM478.622 949.107C478.877 949.361 479.134 949.612 479.395 949.859V642.2C450.69 620.127 411.139 605.636 357.366 598.864H356.966L356.542 598.803C314.23 592.727 281.669 581.841 258.069 564.68C226.612 542.421 210.941 510.139 210.941 469.646V452.782C190.405 444.286 176 424.485 176 401.526C176 370.966 202.066 346.105 233.2 346.105C264.334 346.105 290.4 370.966 290.4 401.526C290.4 424.818 275.976 444.332 255.459 452.786V469.646C255.459 494.696 263.52 513.248 280.303 527.085C297.419 541.195 324.211 550.909 362.681 556.528C409.174 562.069 447.587 573.519 479.049 590.797V484.706C466.992 477.459 451.172 473.051 429.895 469.985C405.226 466.556 385.849 459.177 372.565 447.365C359.073 435.369 352.432 419.303 352.432 399.93V366.741C329.798 359.401 312.649 338.896 312.649 313.778C312.649 283.166 338.769 258.691 369.849 258.691C400.982 258.691 427.049 283.552 427.049 314.112C427.049 339.152 409.975 360.006 387.265 367.13V400.264C387.265 407.713 388.593 414.838 394.401 420.976C400.371 427.284 411.941 433.469 434.622 436.722C451.359 438.678 466.121 442.235 479.049 447.266V342.213C460.303 330.502 447.914 310.122 447.914 286.693C447.914 249.434 479.191 219.919 516.876 219.919C554.95 219.919 585.838 249.81 585.838 286.693C585.838 309.859 573.402 330.197 554.703 342.164V511.042C569.472 503.954 587.03 499.35 607.424 497.09C625.7 494.302 637.705 489.92 645.089 483.968C652.095 478.321 655.481 470.821 655.481 459.964V411.211C632.4 404.34 615.005 383.167 615.005 358.117C615.005 326.941 641.019 302.029 672.205 302.029C703.366 302.029 729.405 326.915 729.405 357.783C729.405 382.522 712.633 403.023 690.314 410.391V459.63C690.314 479.027 683.571 495.161 670.018 507.265C656.664 519.192 637.214 526.749 612.531 530.348L612.1 530.411H611.677C585.928 533.521 567.497 540.328 554.357 550.631V572.317L554.011 579.031V682.054C580.886 666.792 613.468 656.024 651.095 649.366L651.186 649.35L676.484 645.67L676.504 645.667C714.114 639.89 740.326 630.023 757.075 615.915C773.51 602.073 781.405 583.661 781.405 559.104V471.549C760.15 463.269 745.427 442.815 745.427 419.858C745.427 389.298 771.494 364.437 802.627 364.437C818.049 364.437 832.335 370.404 843.118 380.813L843.195 380.887L843.27 380.964C853.626 391.701 859.481 405.526 859.481 420.192C859.481 443.025 845.531 462.456 826.616 471.259V559.438C826.616 599.935 810.941 632.221 779.476 654.48C756.636 670.921 725.527 681.824 685.613 688.245L685.552 688.255L661.695 691.593C615.254 699.286 580.388 713.426 554.703 734.543V796.517L555.395 823.231V950.889C556.183 950.213 556.953 949.512 557.706 948.786L984.257 537.059C1005.25 516.797 1005.25 483.616 984.257 463.355L557.706 51.6274C536.119 30.7908 499.881 30.7908 478.294 51.6275L51.7429 463.355C30.7523 483.616 30.7524 516.797 51.7429 537.059L478.459 948.945L478.622 949.107Z" fill="#15A04B"/>
</svg>
