<?xml version="1.0" encoding="utf-8"?>
<!-- Generator: Adobe Illustrator 28.1.0, SVG Export Plug-In . SVG Version: 6.00 Build 0)  -->
<svg version="1.1" id="Camada_1" xmlns="http://www.w3.org/2000/svg" xmlns:xlink="http://www.w3.org/1999/xlink" x="0px" y="0px"
	 viewBox="0 0 128 128" style="enable-background:new 0 0 128 128;" xml:space="preserve">
<style type="text/css">
	.st0{fill:#4DAF50;}
	.st1{fill:#FFFFFF;}
</style>
<g>
	<path class="st0" d="M56.6,123.8L4.1,71.4C0,67.3,0,60.6,4.1,56.5L56.6,4.1C60.6,0,67.4,0,71.4,4.1l52.5,52.4
		c4.1,4.1,4.1,10.8,0,14.9l-52.5,52.4c-1,1-2.2,1.8-3.4,2.3c0,0-7.9,0-7.9,0C58.8,125.7,57.6,124.9,56.6,123.8z"/>
	<path class="st1" d="M99.2,42.3c-3.4,0-6.3,2.8-6.3,6.3c0,2.8,1.8,5.2,4.4,6v11.7c0,6.6-4.2,10.3-13.5,11.8c-1.3-2.5-4-4-8.2-4.7h0
		c-3.3-0.4-5.8-1.4-7.7-2.9v-3.1c1.8-1.6,4.3-2.6,7.7-3h0c5.9-0.9,8.9-3.7,8.9-8.3v-6.8c2.7-0.7,4.8-3.1,4.8-6.1
		c0-3.5-2.9-6.3-6.3-6.3c-3.4,0-6.3,2.8-6.3,6.4c0,3,2.2,5.6,5,6.2v6.8c0,3.1-2,4.8-6.6,5.5c-3,0.3-5.4,1.1-7.3,2.3V43.4
		c2.3-1.4,3.8-3.8,3.8-6.6c0-4.3-3.4-7.7-7.7-7.7c-4.3,0-7.7,3.4-7.7,7.7c0,2.8,1.5,5.3,3.8,6.6V61c-1.7-0.9-3.8-1.4-6.3-1.7
		c-5.7-0.9-6.5-3.3-6.5-5.4v-4.8c2.8-0.6,4.9-3.1,4.9-6.2c0-3.4-2.9-6.3-6.3-6.3c-3.4,0-6.3,2.8-6.3,6.3c0,3,2.1,5.5,4.9,6.2v4.8
		c0,4.6,3,7.3,8.9,8.2c2.9,0.4,5,1.1,6.7,2.2v9.9c-4-2.5-8.9-4.2-15.2-4.9c-9.6-1.4-13.8-5.1-13.8-11.8v-2.7c2.5-0.9,4.3-3.2,4.3-6
		c0-3.4-2.9-6.3-6.3-6.3c-3.4,0-6.3,2.8-6.3,6.3c0,2.8,1.8,5.1,4.3,6v2.7c0,4.9,1.8,8.8,5.5,11.5c2.8,2.1,6.6,3.4,11.8,4.2h0
		c6.9,0.9,12,2.8,15.7,5.9v47.3c2.5,1,5.4,0.9,7.9,0v-21.1c1.8-1.5,4.3-2.5,7.7-2.9h0c5.9-0.9,8.9-3.7,8.9-8.3v-1
		c1.8-0.6,3.2-2.3,3.2-4.3c0-2-1.4-3.8-3.2-4.3v-2.2c4.9-0.8,8.6-2.2,11.2-4.2c3.7-2.7,5.5-6.6,5.5-11.5V54.7c2.3-0.9,4-3.2,4-6
		c0-1.7-0.6-3.2-1.8-4.5C102.4,43,100.9,42.3,99.2,42.3z M79.1,43.3c0-2.2,1.8-4,4-4c2.2,0,4,1.8,4,4c0,2.2-1.8,4-4,4
		C80.9,47.3,79.1,45.4,79.1,43.3z M45.8,46.8c-2.2,0-4-1.8-4-4c0-2.2,1.8-4,4-4c2.2,0,4,1.8,4,4C49.8,45,48,46.8,45.8,46.8z
		 M29,52.6c-2.2,0-4-1.7-4-4c0-2.2,1.8-4,4-4s4,1.8,4,4S31.1,52.6,29,52.6z M63.9,42.1c-3,0-5.4-2.4-5.4-5.4c0-3,2.4-5.4,5.4-5.4
		c3,0,5.4,2.4,5.4,5.4C69.3,39.6,66.9,42.1,63.9,42.1z M67.8,74c2,1.1,4.3,1.9,7.3,2.3c2.7,0.4,4.6,1.1,5.5,2.4
		c-5.1,0.9-9.4,2.5-12.8,4.8V74z M81.7,84.3c-1.8,0.6-3.2,2.3-3.2,4.3c0,2.1,1.4,3.8,3.2,4.3v1c0,3.1-2,4.8-6.6,5.5
		c-2.9,0.3-5.3,1.1-7.2,2.3V88.3c3.3-2.9,7.8-4.8,13.8-5.9V84.3z M99.2,52.6c-2.2,0-4-1.8-4-4s1.8-4,4-4c1.1,0,2.1,0.4,2.9,1.1
		c0.8,0.8,1.1,1.7,1.1,2.8C103.1,50.8,101.3,52.6,99.2,52.6z"/>
</g>
</svg>
