<?xml version="1.0" encoding="utf-8"?>
<!-- Generator: Adobe Illustrator 28.1.0, SVG Export Plug-In . SVG Version: 6.00 Build 0)  -->
<svg version="1.1" id="Camada_1" xmlns="http://www.w3.org/2000/svg" xmlns:xlink="http://www.w3.org/1999/xlink" x="0px" y="0px"
	 viewBox="0 0 200 200" style="enable-background:new 0 0 200 200;" xml:space="preserve">
<style type="text/css">
	.st0{fill:#4CAF50;}
	.st1{fill:#FFFFFF;}
</style>
<g>
	<path class="st0" d="M88.4,193.6l-82.1-82c-6.4-6.4-6.4-16.9,0-23.3l82.1-82c6.4-6.4,16.9-6.4,23.3,0l82.1,82
		c6.4,6.4,6.4,16.9,0,23.3l-82.1,82c-1.6,1.6-3.5,2.8-5.4,3.6c-0.1,0-12.3,0.1-12.3,0.1C91.9,196.4,90,195.2,88.4,193.6z"/>
	<path class="st1" d="M155,66.1c-5.4,0-9.9,4.5-9.9,9.8c0,4.3,2.9,8.2,6.9,9.4v18.3c0,10.4-6.5,16.1-21.2,18.4
		c-2-3.9-6.2-6.3-12.8-7.3H118c-5.2-0.7-9.1-2.2-12-4.5v-4.9c2.8-2.5,6.7-4,12.1-4.7h0.1c9.3-1.4,14-5.8,14-12.9V77.2
		c4.3-1.1,7.5-4.9,7.5-9.6c0-5.5-4.5-9.9-9.8-9.9c-5.4,0-9.9,4.5-9.9,10c0,4.7,3.4,8.7,7.8,9.6v10.6c0,4.9-3.1,7.4-10.2,8.6
		c-4.7,0.5-8.5,1.7-11.4,3.6V67.8c3.6-2.1,6-6,6-10.4c0-6.7-5.4-12.1-12.1-12.1c-6.7,0-12.1,5.4-12.1,12.1c0,4.5,2.4,8.3,6,10.4
		v27.6c-2.7-1.3-6-2.3-9.8-2.7c-9-1.3-10.1-5.2-10.1-8.4v-7.5c4.3-1,7.7-4.9,7.7-9.6c0-5.4-4.5-9.8-9.8-9.8c-5.4,0-9.9,4.4-9.9,9.8
		c0,4.7,3.3,8.6,7.7,9.6v7.5c0,7.1,4.7,11.4,13.9,12.8c4.5,0.7,7.9,1.7,10.4,3.5v15.5c-6.2-3.9-14-6.5-23.7-7.7
		c-15-2.3-21.6-7.9-21.6-18.5v-4.2c3.9-1.3,6.7-5,6.7-9.4c0-5.4-4.5-9.8-9.8-9.8c-5.4,0-9.9,4.5-9.9,9.8c0,4.3,2.8,8,6.7,9.4v4.2
		c0,7.7,2.9,13.8,8.6,18c4.3,3.3,10.4,5.4,18.4,6.6h0.1c10.8,1.4,18.8,4.5,24.6,9.2v73.9c3.9,1.5,8.4,1.5,12.3-0.1v-33.1
		c2.8-2.4,6.7-3.9,12-4.5h0.1c9.3-1.4,14-5.8,14-12.9v-1.6c2.9-0.9,5-3.7,5-6.8s-2.1-5.9-5-6.8v-3.5c7.6-1.3,13.4-3.4,17.6-6.5
		c5.7-4.2,8.6-10.2,8.6-18V85.4c3.6-1.4,6.3-5.1,6.3-9.4c0-2.6-1-5.1-2.8-7C160.1,67.2,157.6,66.1,155,66.1z M123.6,67.6
		c0-3.5,2.8-6.3,6.2-6.3c3.5,0,6.2,2.8,6.2,6.3c0,3.5-2.8,6.2-6.2,6.2C126.4,73.8,123.6,71,123.6,67.6z M71.6,73.2
		c-3.4,0-6.2-2.8-6.2-6.2c0-3.5,2.8-6.2,6.2-6.2c3.4,0,6.2,2.8,6.2,6.2C77.8,70.4,74.9,73.2,71.6,73.2z M45.3,82.1
		c-3.4,0-6.2-2.7-6.2-6.2c0-3.5,2.8-6.2,6.2-6.2s6.2,2.8,6.2,6.2S48.6,82.1,45.3,82.1z M99.9,65.7c-4.7,0-8.5-3.8-8.5-8.4
		c0-4.7,3.8-8.5,8.5-8.5c4.7,0,8.5,3.8,8.5,8.4C108.3,61.9,104.5,65.7,99.9,65.7z M106,115.6c3.1,1.7,6.8,2.9,11.4,3.5
		c4.3,0.7,7.1,1.8,8.7,3.7c-8,1.5-14.7,3.9-20,7.4V115.6z M127.7,131.7c-2.9,0.9-5,3.7-5,6.8c0,3.3,2.1,5.9,5,6.8v1.6
		c-0.1,4.9-3.1,7.4-10.2,8.6c-4.6,0.5-8.3,1.7-11.3,3.5v-20.9c5.2-4.6,12.2-7.6,21.6-9.2V131.7z M155,82.2c-3.5,0-6.2-2.8-6.2-6.2
		s2.8-6.2,6.2-6.2c1.7,0,3.3,0.7,4.5,1.8c1.2,1.2,1.7,2.7,1.7,4.3C161.2,79.4,158.4,82.2,155,82.2z"/>
</g>
</svg>
