<svg xmlns="http://www.w3.org/2000/svg" width="623" height="111" fill="none" viewBox="0 0 623 111">
  <g clip-path="url(#a)">
    <path fill="#15A04B" fill-rule="evenodd" d="M2.7 62.177 48.937 108.5a9.178 9.178 0 0 0 3.15 2.067V68.789c-3.262-2.705-7.762-4.433-13.837-5.222h-.038c-4.537-.676-7.95-1.878-10.387-3.72-3.225-2.366-4.838-5.785-4.838-10.142v-2.368A5.6 5.6 0 0 1 19.2 42.04c0-3.043 2.512-5.56 5.55-5.56s5.55 2.517 5.55 5.56a5.564 5.564 0 0 1-3.788 5.297v2.367c0 5.974 3.75 9.167 12.188 10.444 5.475.677 9.863 2.142 13.35 4.358v-8.753c-1.462-1.014-3.375-1.578-5.888-1.954-5.212-.751-7.837-3.193-7.837-7.213v-4.245c-2.437-.602-4.313-2.78-4.313-5.448 0-3.043 2.513-5.523 5.55-5.523 3.038 0 5.55 2.518 5.55 5.56a5.605 5.605 0 0 1-4.312 5.45v4.244c0 1.841.637 4.02 5.7 4.772 2.175.263 4.013.789 5.55 1.54V37.344a6.728 6.728 0 0 1-3.375-5.861 6.832 6.832 0 0 1 6.825-6.838c3.788 0 6.825 3.081 6.825 6.838 0 2.48-1.35 4.659-3.375 5.86v18.26c1.687-1.052 3.825-1.728 6.45-2.03 4.05-.638 5.775-2.066 5.775-4.846v-6.01c-2.475-.527-4.388-2.78-4.388-5.448 0-3.118 2.513-5.636 5.55-5.636 3.038 0 5.55 2.518 5.55 5.598 0 2.63-1.837 4.809-4.237 5.41v6.05c0 4.019-2.662 6.498-7.875 7.287h-.038c-3.037.376-5.25 1.24-6.824 2.63v2.743c1.612 1.315 3.825 2.178 6.75 2.554h.037c3.712.564 6.075 1.954 7.2 4.133 8.25-1.315 11.925-4.546 11.925-10.407V47.3c-2.288-.714-3.9-2.893-3.9-5.335 0-3.043 2.513-5.56 5.55-5.56 1.5 0 2.887.6 3.937 1.653 1.013 1.09 1.576 2.48 1.576 3.945 0 2.442-1.538 4.508-3.563 5.297v10.369c0 4.358-1.612 7.777-4.837 10.143-2.363 1.767-5.625 2.969-9.9 3.683v1.953c1.612.489 2.812 2.066 2.812 3.832s-1.2 3.306-2.812 3.832v.902c0 4.02-2.663 6.5-7.875 7.288h-.038c-3 .376-5.175 1.203-6.75 2.555v18.672a9.362 9.362 0 0 0 3.037-2.029L108.3 62.177c3.6-3.606 3.6-9.542 0-13.149L62.062 2.705c-3.6-3.607-9.524-3.607-13.125 0L2.7 49.028c-3.6 3.607-3.6 9.543 0 13.15Zm69.563-28.44c-1.913 0-3.488 1.578-3.488 3.532 0 1.878 1.612 3.494 3.488 3.494a3.484 3.484 0 0 0 3.487-3.494c0-1.954-1.538-3.532-3.487-3.532ZM36 36.893c0 1.916 1.575 3.494 3.488 3.494 1.874 0 3.487-1.578 3.487-3.494 0-1.916-1.575-3.494-3.487-3.494A3.484 3.484 0 0 0 36 36.893Zm-14.813 5.072a3.484 3.484 0 0 0 3.488 3.494c1.875 0 3.487-1.578 3.487-3.494 0-1.916-1.575-3.494-3.487-3.494a3.484 3.484 0 0 0-3.488 3.494Zm29.475-10.557c0 2.63 2.138 4.771 4.763 4.771S60.187 34 60.187 31.37a4.773 4.773 0 0 0-4.762-4.77c-2.625 0-4.763 2.14-4.763 4.808Zm14.625 34.94c-2.587-.339-4.687-1.015-6.412-1.992v8.303c3-1.99 6.788-3.381 11.288-4.208-.863-1.09-2.475-1.728-4.876-2.104Zm3 10.932c0-1.766 1.2-3.306 2.813-3.832V71.87c-5.25.902-9.225 2.593-12.15 5.184v11.797c1.687-1.014 3.788-1.69 6.375-1.99 4.05-.64 5.738-2.067 5.775-4.847v-.902a3.979 3.979 0 0 1-2.812-3.832Zm14.7-35.277a3.484 3.484 0 0 0 3.488 3.493c1.913 0 3.487-1.577 3.487-3.531 0-.902-.3-1.766-.975-2.442a3.673 3.673 0 0 0-2.512-1.015c-1.913 0-3.487 1.578-3.487 3.495Z" clip-rule="evenodd"/>
    <path fill="#fff" d="M86.622 36.438c-3.04 0-5.554 2.51-5.554 5.543 0 2.435 1.614 4.607 3.903 5.319v10.3c0 5.843-3.678 9.064-11.934 10.374-1.126-2.172-3.49-3.558-7.206-4.12h-.037c-2.928-.374-5.141-1.236-6.755-2.547v-2.734c1.576-1.385 3.79-2.247 6.83-2.621h.037c5.217-.787 7.881-3.259 7.881-7.266v-6.03c2.402-.6 4.24-2.772 4.24-5.394 0-3.071-2.513-5.58-5.553-5.58s-5.554 2.509-5.554 5.617c0 2.66 1.913 4.907 4.39 5.432v5.992c0 2.772-1.726 4.195-5.779 4.831-2.627.3-4.766.974-6.455 2.023V37.374c2.026-1.198 3.378-3.37 3.378-5.843a6.824 6.824 0 0 0-6.83-6.816c-3.754 0-6.831 3.034-6.831 6.816a6.704 6.704 0 0 0 3.378 5.843v15.544c-1.539-.75-3.378-1.274-5.555-1.536-5.066-.749-5.704-2.921-5.704-4.756v-4.233c2.44-.561 4.316-2.772 4.316-5.43 0-3.035-2.515-5.544-5.555-5.544-3.04 0-5.554 2.472-5.554 5.506 0 2.66 1.877 4.831 4.316 5.43v4.233c0 4.008 2.627 6.442 7.843 7.191 2.515.375 4.429.936 5.893 1.948v8.727c-3.49-2.21-7.882-3.671-13.36-4.345-8.445-1.273-12.198-4.457-12.198-10.412v-2.36a5.55 5.55 0 0 0 3.79-5.28c0-3.035-2.514-5.544-5.553-5.544-3.04 0-5.555 2.51-5.555 5.543a5.585 5.585 0 0 0 3.79 5.281v2.36c0 4.345 1.614 7.753 4.842 10.112 2.44 1.836 5.854 3.034 10.395 3.708h.038c6.08.787 10.583 2.51 13.848 5.206v41.65c2.214.861 4.729.823 6.943-.038V91.72c1.576-1.348 3.753-2.172 6.755-2.547h.038c5.216-.786 7.88-3.258 7.88-7.266v-.898c1.615-.525 2.816-2.06 2.816-3.821 0-1.76-1.201-3.333-2.815-3.82V71.42c4.278-.711 7.543-1.91 9.908-3.67 3.227-2.36 4.841-5.769 4.841-10.113V47.3c2.027-.787 3.565-2.847 3.565-5.281 0-1.461-.563-2.847-1.576-3.933a5.541 5.541 0 0 0-3.94-1.648Zm-17.714.861c0-1.947 1.577-3.52 3.49-3.52 1.952 0 3.491 1.573 3.491 3.52a3.48 3.48 0 0 1-3.49 3.484c-1.877 0-3.49-1.61-3.49-3.484Zm-29.31 3.109c-1.913 0-3.49-1.573-3.49-3.483a3.48 3.48 0 0 1 3.49-3.483c1.915 0 3.49 1.573 3.49 3.483 0 1.91-1.613 3.483-3.49 3.483Zm-14.824 5.056a3.48 3.48 0 0 1-3.49-3.483 3.48 3.48 0 0 1 3.49-3.483c1.914 0 3.49 1.573 3.49 3.483 0 1.91-1.613 3.483-3.49 3.483Zm30.774-9.25c-2.627 0-4.766-2.136-4.766-4.757 0-2.66 2.139-4.794 4.766-4.794 2.627 0 4.767 2.134 4.767 4.756 0 2.622-2.14 4.794-4.767 4.794Zm3.453 28.09c1.726.974 3.828 1.648 6.417 1.985 2.402.375 4.016 1.011 4.88 2.097-4.504.824-8.295 2.21-11.297 4.195v-8.277Zm12.234 9.064c-1.614.524-2.814 2.06-2.814 3.82 0 1.835 1.2 3.333 2.814 3.82v.9c-.037 2.77-1.726 4.194-5.78 4.83-2.589.3-4.69.975-6.38 1.986v-11.76c2.928-2.585 6.906-4.27 12.16-5.17v1.574Zm15.387-27.866a3.48 3.48 0 0 1-3.49-3.483c0-1.91 1.576-3.484 3.49-3.484.939 0 1.84.375 2.515 1.012.676.674.976 1.535.976 2.434 0 1.947-1.577 3.52-3.49 3.52ZM564.651 77l29.624-40.208h16.744L622.555 77h-13.496l-1.96-7.336h-21.896L580.107 77h-15.456Zm27.048-16.8h12.936l-3.584-13.496-9.352 13.496Zm.336-27.16 1.288-6.776 22.568-4.256-1.288 6.72-22.568 4.312ZM506.914 77l8.624-40.208h19.432l14.224 28.616 6.048-28.616h13.496L560.114 77h-19.432L526.57 47.88 520.41 77h-13.496Zm-62.357 0 29.624-40.208h16.744L502.461 77h-13.496l-1.96-7.336h-21.896L460.013 77h-15.456Zm27.048-16.8h12.936l-3.584-13.496-9.352 13.496ZM390.375 77l8.624-40.208h30.464c12.712 0 17.472 5.544 15.736 13.776-1.064 4.928-4.704 8.288-10.304 9.8 4.648.392 7.056 3.024 6.048 7.672L439.039 77h-13.496l1.456-6.776c.784-3.584.056-4.648-3.528-4.648h-17.192L403.871 77h-13.496Zm18.144-21.952h16.128c3.472 0 6.16-.728 6.72-3.696.56-3.248-1.568-4.032-5.208-4.032h-16.016l-1.624 7.728ZM328.018 77l29.624-40.208h16.744L385.922 77h-13.496l-1.96-7.336H348.57L343.474 77h-15.456Zm27.048-16.8h12.936l-3.584-13.496-9.352 13.496ZM283.023 77l8.624-40.208h28.168c12.992 0 18.536 5.656 16.128 16.744-1.736 8.344-9.408 13.496-19.824 13.496h-17.472L296.519 77h-13.496Zm17.92-21h15.176c4.144 0 5.824-1.008 6.496-4.088.728-3.024-.616-4.032-4.648-4.032h-15.288L300.943 56Zm-61.07 21-10.584-40.208h13.16l7.952 30.296 20.944-30.296h15.848L258.577 77h-18.704Zm-64.803 0 8.624-40.208h41.104l-2.128 9.912h-27.72l-1.176 5.656h26.488l-1.904 9.016H191.87l-1.232 5.712h27.72L216.286 77H175.07ZM120 77l8.624-40.208h22.288c15.736 0 24.472 8.512 21.952 21.616C170.736 69.776 159.704 77 145.032 77H120Zm15.904-11.088h9.912c7.112 0 12.488-3.248 13.552-8.4 1.288-5.936-2.856-9.632-10.304-9.632h-9.352l-3.808 18.032Z"/>
    <path fill="#15A04B" d="m450.644 105.4 6.16-28.72h29.36l-1.52 7.08h-19.8l-.84 4.04h18.92l-1.36 6.44h-18.92l-.88 4.08h19.8l-1.48 7.08h-29.44Zm-20.954.8c-13.04 0-20.16-6.88-17.84-17.44C413.49 81 421.53 76 432.13 76c10.32 0 17.48 4.88 17.92 12.28h-9.96c-.56-2.64-4-4.4-8.52-4.4-5.36 0-9.48 2.48-10.32 6.32-1.04 4.92 2.52 8.08 8.8 8.08 4.52 0 8.08-1.76 9.08-4.44h10c-1.6 7.52-9.2 12.36-19.44 12.36Zm-63.421-.8 6.16-28.72h13.88l10.16 20.44 4.32-20.44h9.64l-6.16 28.72h-13.88l-10.08-20.8-4.4 20.8h-9.64Zm-33.75 0 6.16-28.72h29.36l-1.52 7.08h-19.8l-.84 4.04h18.92l-1.36 6.44h-18.92l-.88 4.08h19.8l-1.48 7.08h-29.44Zm-39.844 0 6.16-28.72h21.76c9.08 0 12.48 3.96 11.24 9.84-.76 3.52-3.36 5.92-7.36 7 3.32.28 5.04 2.16 4.32 5.48l-1.36 6.4h-9.64l1.04-4.84c.56-2.56.04-3.32-2.52-3.32h-12.28l-1.72 8.16h-9.64Zm12.96-15.68h11.52c2.48 0 4.4-.52 4.8-2.64.4-2.32-1.12-2.88-3.72-2.88h-11.44l-1.16 5.52Zm-46.71 15.68 6.16-28.72h29.36l-1.52 7.08h-19.8l-.84 4.04h18.92l-1.36 6.44h-18.92l-.88 4.08h19.8l-1.48 7.08h-29.44Zm-33.36 0 6.16-28.72h29.4l-1.68 7.92h-19.84l-1 4.8h17.4l-1.72 7.92h-17.36l-1.72 8.08h-9.64Zm-43.476 0 6.16-28.72h13.88l10.16 20.44 4.32-20.44h9.64l-6.16 28.72h-13.88l-10.08-20.8-4.4 20.8h-9.64Zm-23.336.8c-12.92 0-20.16-6.72-17.96-17.04 1.72-8 10.52-13.16 22-13.16 12.96 0 20.16 6.72 17.96 17-1.68 8-10.52 13.2-22 13.2Zm-8.48-15.2c-.96 4.4 2.72 7.28 8.96 7.28s11.16-2.84 12.04-7.16c.96-4.36-2.72-7.24-8.96-7.24s-11.12 2.84-12.04 7.12ZM116.8 106.2c-13.04 0-20.16-6.88-17.84-17.44C100.6 81 108.64 76 119.24 76c10.32 0 17.48 4.88 17.92 12.28h-9.96c-.56-2.64-4-4.4-8.52-4.4-5.36 0-9.48 2.48-10.32 6.32-1.04 4.92 2.52 8.08 8.8 8.08 4.52 0 8.08-1.76 9.08-4.44h10c-1.6 7.52-9.2 12.36-19.44 12.36Z"/>
    <path fill="#fff" d="m540.999 105.88 1.4-6.64h-22.96l.4-2 27.12-19.48h2.48l-4.12 19.48h6.28l-.44 2h-6.24l-1.4 6.64h-2.52Zm-18.12-8.64h19.96l3.6-16.92-23.56 16.92Zm-36.559 7.08c3.08-12.48 26.88-8.76 28.92-18.36.96-4.48-2.6-7.04-9.2-7.04-7.48 0-11.76 2.36-12.04 8.36h-2.48C492 80.36 496.84 77 506.08 77c8.24 0 12.76 3.52 11.6 9.04-2.36 11.2-25.24 7.6-28.56 17.8h25.24l-.44 2.04h-28l.4-1.56Z"/>
  </g>
  <defs>
    <clipPath id="a">
      <path fill="#fff" d="M0 0h623v111H0z"/>
    </clipPath>
  </defs>
</svg>
