<svg width="15" height="16" viewBox="0 0 30 32" fill="none" xmlns="http://www.w3.org/2000/svg">
  <path fill-rule="evenodd" clip-rule="evenodd" d="M29.4142 18.6863L16.6863 31.4142C15.9052 32.1953 14.6389 32.1953 13.8579 31.4142L1.12994 18.6863C0.348891 17.9052 0.348891 16.6389 1.12994 15.8579C1.91099 15.0768 3.17732 15.0768 3.95837 15.8579L13.2721 25.1716L13.2721 2C13.2721 0.89543 14.1675 -6.9206e-07 15.2721 -6.43778e-07C16.3766 -5.95496e-07 17.2721 0.89543 17.2721 2L17.2721 25.1716L26.5858 15.8579C27.3668 15.0768 28.6332 15.0768 29.4142 15.8579C30.1953 16.6389 30.1953 17.9052 29.4142 18.6863Z" fill="#333333"/>
</svg>
