<svg width="24" height="21" viewBox="0 0 48 42" fill="none" xmlns="http://www.w3.org/2000/svg">
  <path d="M6.74219 37.2422C5.5599 37.2422 4.54167 36.9896 3.6875 36.4844C2.83854 35.974 2.18229 35.2578 1.71875 34.3359C1.26042 33.4089 1.03125 32.3229 1.03125 31.0781C1.03125 29.849 1.26042 28.7656 1.71875 27.8281C2.18229 26.8906 2.82813 26.1589 3.65625 25.6328C4.48958 25.1068 5.46354 24.8438 6.57813 24.8438C7.25521 24.8438 7.91146 24.9557 8.54688 25.1797C9.18229 25.4036 9.7526 25.7552 10.2578 26.2344C10.763 26.7135 11.1615 27.3359 11.4531 28.1016C11.7448 28.862 11.8906 29.7865 11.8906 30.875V31.7031H2.35156V29.9531H9.60156C9.60156 29.3385 9.47656 28.7943 9.22656 28.3203C8.97656 27.8411 8.625 27.4635 8.17188 27.1875C7.72396 26.9115 7.19792 26.7734 6.59375 26.7734C5.9375 26.7734 5.36458 26.9349 4.875 27.2578C4.39063 27.5755 4.01563 27.9922 3.75 28.5078C3.48958 29.0182 3.35938 29.5729 3.35938 30.1719V31.5391C3.35938 32.3411 3.5 33.0234 3.78125 33.5859C4.06771 34.1484 4.46615 34.5781 4.97656 34.875C5.48698 35.1667 6.08333 35.3125 6.76562 35.3125C7.20833 35.3125 7.61198 35.25 7.97656 35.125C8.34115 34.9948 8.65625 34.8021 8.92188 34.5469C9.1875 34.2917 9.39063 33.9766 9.53125 33.6016L11.7422 34C11.5651 34.651 11.2474 35.2214 10.7891 35.7109C10.3359 36.1953 9.76563 36.5729 9.07813 36.8437C8.39583 37.1094 7.61719 37.2422 6.74219 37.2422ZM23.6946 27.9297L21.5774 28.3047C21.4889 28.0339 21.3483 27.776 21.1555 27.5312C20.968 27.2865 20.7128 27.0859 20.3899 26.9297C20.067 26.7734 19.6634 26.6953 19.179 26.6953C18.5175 26.6953 17.9654 26.8437 17.5227 27.1406C17.08 27.4323 16.8587 27.8099 16.8587 28.2734C16.8587 28.6745 17.0071 28.9974 17.304 29.2422C17.6009 29.487 18.08 29.6875 18.7415 29.8437L20.6477 30.2812C21.7519 30.5365 22.5748 30.9297 23.1165 31.4609C23.6582 31.9922 23.929 32.6823 23.929 33.5313C23.929 34.25 23.7207 34.8906 23.304 35.4531C22.8925 36.0104 22.317 36.4479 21.5774 36.7656C20.843 37.0833 19.9915 37.2422 19.0227 37.2422C17.679 37.2422 16.5826 36.9557 15.7337 36.3828C14.8847 35.8047 14.3639 34.9844 14.1712 33.9219L16.429 33.5781C16.5696 34.1667 16.8587 34.612 17.2962 34.9141C17.7337 35.2109 18.304 35.3594 19.0071 35.3594C19.7727 35.3594 20.3847 35.2005 20.843 34.8828C21.3014 34.5599 21.5305 34.1667 21.5305 33.7031C21.5305 33.3281 21.3899 33.013 21.1087 32.7578C20.8326 32.5026 20.4082 32.3099 19.8352 32.1797L17.804 31.7344C16.6842 31.4792 15.8561 31.0729 15.3196 30.5156C14.7884 29.9583 14.5227 29.2526 14.5227 28.3984C14.5227 27.6901 14.7207 27.0703 15.1165 26.5391C15.5123 26.0078 16.0592 25.5937 16.7571 25.2969C17.455 24.9948 18.2545 24.8438 19.1555 24.8438C20.4524 24.8438 21.4733 25.125 22.218 25.6875C22.9628 26.2448 23.455 26.9922 23.6946 27.9297ZM31.772 37.2422C30.6106 37.2422 29.6106 36.9792 28.772 36.4531C27.9387 35.9219 27.2981 35.1901 26.8502 34.2578C26.4022 33.3255 26.1783 32.2578 26.1783 31.0547C26.1783 29.8359 26.4074 28.7604 26.8658 27.8281C27.3241 26.8906 27.9699 26.1589 28.8033 25.6328C29.6366 25.1068 30.6184 24.8438 31.7486 24.8438C32.6601 24.8438 33.4726 25.013 34.1861 25.3516C34.8996 25.6849 35.4752 26.1536 35.9127 26.7578C36.3554 27.362 36.6184 28.0677 36.7017 28.875H34.4283C34.3033 28.3125 34.0168 27.8281 33.5689 27.4219C33.1262 27.0156 32.5324 26.8125 31.7877 26.8125C31.1366 26.8125 30.5663 26.9844 30.0767 27.3281C29.5923 27.6667 29.2147 28.151 28.9439 28.7812C28.6731 29.4062 28.5377 30.1458 28.5377 31C28.5377 31.875 28.6705 32.6302 28.9361 33.2656C29.2017 33.901 29.5767 34.3932 30.0611 34.7422C30.5507 35.0911 31.1262 35.2656 31.7877 35.2656C32.2304 35.2656 32.6314 35.1849 32.9908 35.0234C33.3554 34.8568 33.6601 34.6198 33.9048 34.3125C34.1548 34.0052 34.3293 33.6354 34.4283 33.2031H36.7017C36.6184 33.9792 36.3658 34.6719 35.9439 35.2812C35.522 35.8906 34.9569 36.3698 34.2486 36.7187C33.5455 37.0677 32.7199 37.2422 31.772 37.2422Z" fill="black"/>
</svg>
