<svg width="10" height="13" viewBox="0 0 20 26" fill="none" xmlns="http://www.w3.org/2000/svg">
  <path d="M0 26V0H9.26758C11.2819 0 12.9535 0.347005 14.2822 1.04102C15.6195 1.73503 16.6182 2.69564 17.2783 3.92285C17.9385 5.1416 18.2686 6.55078 18.2686 8.15039C18.2686 9.74154 17.9342 11.1423 17.2656 12.3525C16.6055 13.5544 15.6068 14.4896 14.2695 15.1582C12.9408 15.8268 11.2692 16.1611 9.25488 16.1611H2.23438V12.7842H8.89941C10.1689 12.7842 11.2015 12.6022 11.9971 12.2383C12.8011 11.8743 13.3893 11.3454 13.7617 10.6514C14.1341 9.95736 14.3203 9.1237 14.3203 8.15039C14.3203 7.16862 14.1299 6.31803 13.749 5.59863C13.3766 4.87923 12.7884 4.3291 11.9844 3.94824C11.1888 3.55892 10.1436 3.36426 8.84863 3.36426H3.92285V26H0ZM12.835 14.2695L19.2588 26H14.79L8.49316 14.2695H12.835Z" fill="#333333"/>
</svg>
